/* XPM */
static char * bullet_active_xpm[] = {
"6 10 11 1",
" 	c None",
".	c #7A547E",
"+	c #78537E",
"@	c #75507B",
"#	c #FFFFFF",
"$	c #76517C",
"%	c #77527C",
"&	c #78537D",
"*	c #AD7FA8",
"=	c #76507B",
"-	c #F9F6F8",
".+    ",
"@#@   ",
" $#$  ",
"  %#& ",
"   *#=",
"   *#$",
"  @-@ ",
" @#@  ",
"$#@   ",
"@@    "};
