/* XPM */
static char * maximize_pressed_xpm[] = {
"12 12 6 1",
" 	c #74507B",
".	c #75507B",
"+	c #AD7FA8",
"@	c #F4F5F6",
"#	c #74517B",
"$	c #74517C",
" ...........",
".++++++++++.",
".++++++++++.",
".++@@@@@@++.",
".++@@@@@@++.",
".++@++++@++.",
".++@++++@++.",
".++@++++@++.",
".++@@@@@@++.",
" ++++++++++.",
"#++++++++++.",
"$ .........."};
