/* XPM */
static char * menu_hilite_xpm[] = {
"1 17 9 1",
" 	c #75507B",
".	c #C091BB",
"+	c #C899C3",
"@	c #C999C3",
"#	c #C999C4",
"$	c #C394BE",
"%	c #B688B1",
"&	c #AE80A9",
"*	c #AD7FA8",
" ",
".",
"+",
"@",
"@",
"#",
"@",
"$",
"%",
"&",
"*",
"*",
"*",
"*",
"*",
"*",
" "};
