/* XPM */
static char * selected_active_xpm[] = {
"13 13 52 1",
" 	c #75507B",
".	c #AD7FA8",
"+	c #AA7DA5",
"@	c #A4789F",
"#	c #4B3649",
"$	c #896686",
"%	c #7A547F",
"&	c #A87DA4",
"*	c #463143",
"=	c #000000",
"-	c #543C51",
";	c #77527D",
">	c #76517C",
",	c #694C66",
"'	c #513A4E",
")	c #A87BA3",
"!	c #7D5B79",
"~	c #6D4F6A",
"{	c #AC7EA7",
"]	c #9B7297",
"^	c #281B27",
"/	c #A3779E",
"(	c #261925",
"_	c #654962",
":	c #AB7DA6",
"<	c #684B65",
"[	c #7C5A78",
"}	c #9B7397",
"|	c #30212E",
"1	c #5A4158",
"2	c #1C121B",
"3	c #0F080F",
"4	c #A579A0",
"5	c #9F749A",
"6	c #392837",
"7	c #5C4259",
"8	c #AD80A8",
"9	c #A2779D",
"0	c #422E40",
"a	c #7E5B7A",
"b	c #AD81A9",
"c	c #AD80A9",
"d	c #A57AA2",
"e	c #4D374B",
"f	c #976E92",
"g	c #AE84AB",
"h	c #AE83AA",
"i	c #AE82AA",
"j	c #A77BA3",
"k	c #AA7EA6",
"l	c #AE81AA",
"m	c #74517C",
"             ",
" ........+.. ",
" .......@#$.%",
" ......&*=-.;",
">......,='). ",
";.!~{.]=^/.. ",
"%@(=_:<=[... ",
">.}|=1234... ",
" ..56==7.... ",
" 8..90=a.... ",
" bc..def...8 ",
" ghibbjkcbbl ",
"m            "};
