/* XPM */
static char * shade_active_xpm[] = {
"12 12 34 1",
" 	c #75507B",
".	c #B485AF",
"+	c #BE8FB9",
"@	c #C596C0",
"#	c #C798C2",
"$	c #C898C2",
"%	c #C797C1",
"&	c #C394BE",
"*	c #B788B2",
"=	c #C495BF",
"-	c #C899C3",
";	c #C999C3",
">	c #F4F5F6",
",	c #C999C4",
"'	c #C393BD",
")	c #BF90BA",
"!	c #C697C1",
"~	c #B88AB3",
"{	c #B183AC",
"]	c #B789B2",
"^	c #BF91BA",
"/	c #C595BF",
"(	c #C596BF",
"_	c #C091BA",
":	c #B688B1",
"<	c #AF80AA",
"[	c #AD7FA8",
"}	c #AE80A9",
"|	c #B284AD",
"1	c #B687B0",
"2	c #B486AF",
"3	c #B082AB",
"4	c #73527C",
"5	c #71537D",
"            ",
" .+@##$%&+* ",
" =-;;;;;;-& ",
" -;>>>>>>;$ ",
" ;,>>>>>>;$ ",
" #;;;,,,;-' ",
" )!-;;;;-=~ ",
" {]^/!!(_:< ",
" [}|1]]23[[ ",
" [[[}}}[[[[ ",
" [[[[[[[[[[ ",
"4          5"};
