/* XPM */
static char * shade_toggled_pressed_xpm[] = {
"12 12 3 1",
" 	c #75507B",
".	c #AD7FA8",
"+	c #F4F5F6",
"            ",
" .......... ",
" .......... ",
" ..++++++.. ",
" ..++++++.. ",
" .......... ",
" ...++++... ",
" ....++.... ",
" .......... ",
" .......... ",
" .......... ",
"            "};
