/* XPM */
static char * stick_active_xpm[] = {
"12 12 20 1",
" 	c #75507B",
".	c #C092BB",
"+	c #C798C2",
"@	c #C899C3",
"#	c #C999C3",
"$	c #C697C1",
"%	c #C192BC",
"&	c #C999C4",
"*	c #C898C2",
"=	c #F4F5F6",
"-	c #C596C0",
";	c #B688B1",
">	c #C091BB",
",	c #C394BE",
"'	c #BE90B9",
")	c #AD7FA8",
"!	c #B082AB",
"~	c #C293BC",
"{	c #AE80A9",
"]	c #AF81AA",
"            ",
" .+@####@$% ",
" @###&&&&#* ",
" ##==&&==## ",
" ##==&&==&# ",
" -###&&###* ",
" ;>$@##@+,' ",
" )!==~~==!{ ",
" ))==]]==)) ",
" )))))))))) ",
" )))))))))) ",
"            "};
