/* XPM */
static char * app_16x16_xpm[] = {
"48 48 135 2",
"  	c None",
". 	c #808080",
"+ 	c #828282",
"@ 	c #8A8A8A",
"# 	c #888888",
"$ 	c #858585",
"% 	c #818181",
"& 	c #B8B8B8",
"* 	c #D6D6D6",
"= 	c #D8D8D8",
"- 	c #DBDBDB",
"; 	c #9A9A9A",
"> 	c #D5D5D5",
", 	c #E2E2E2",
"' 	c #E4E4E4",
") 	c #E5E5E5",
"! 	c #B6B6B6",
"~ 	c #8F8F8F",
"{ 	c #E0E0E0",
"] 	c #C8C8C8",
"^ 	c #A0A0A0",
"/ 	c #DCDCDC",
"( 	c #DDDDDD",
"_ 	c #E6E6E6",
": 	c #B4B4B4",
"< 	c #E7E7E7",
"[ 	c #DEDEDE",
"} 	c #E1E1E1",
"| 	c #E8E8E8",
"1 	c #878787",
"2 	c #B2B2B2",
"3 	c #A8A8A8",
"4 	c #848484",
"5 	c #C2C2C2",
"6 	c #DADADA",
"7 	c #D0D0D0",
"8 	c #989898",
"9 	c #969696",
"0 	c #D4D4D4",
"a 	c #EAEAEA",
"b 	c #F1F1F1",
"c 	c #8B8B8B",
"d 	c #979797",
"e 	c #F6F6F6",
"f 	c #F3F3F3",
"g 	c #B7B7B7",
"h 	c #BFBFBF",
"i 	c #D9D9D9",
"j 	c #D7D7D7",
"k 	c #B3B3B3",
"l 	c #838383",
"m 	c #BDBDBD",
"n 	c #E9E9E9",
"o 	c #EBEBEB",
"p 	c #EDEDED",
"q 	c #F4F4F4",
"r 	c #F7F7F7",
"s 	c #B0B0B0",
"t 	c #B9B9B9",
"u 	c #EFEFEF",
"v 	c #F5F5F5",
"w 	c #F2F2F2",
"x 	c #ADADAD",
"y 	c #C7C7C7",
"z 	c #CBCBCB",
"A 	c #CCCCCC",
"B 	c #CDCDCD",
"C 	c #E3E3E3",
"D 	c #FAFAFA",
"E 	c #F9F9F9",
"F 	c #EEEEEE",
"G 	c #F0F0F0",
"H 	c #919191",
"I 	c #D2D2D2",
"J 	c #F8F8F8",
"K 	c #C3C3C3",
"L 	c #AAAAAA",
"M 	c #ECECEC",
"N 	c #868686",
"O 	c #929292",
"P 	c #939393",
"Q 	c #FCFCFC",
"R 	c #FBFBFB",
"S 	c #C6C6C6",
"T 	c #8D8D8D",
"U 	c #8C8C8C",
"V 	c #949494",
"W 	c #AFAFAF",
"X 	c #FDFDFD",
"Y 	c #DFDFDF",
"Z 	c #A2A2A2",
"` 	c #A1A1A1",
" .	c #A6A6A6",
"..	c #C4C4C4",
"+.	c #D3D3D3",
"@.	c #C9C9C9",
"#.	c #9C9C9C",
"$.	c #CACACA",
"%.	c #A5A5A5",
"&.	c #8E8E8E",
"*.	c #BEBEBE",
"=.	c #CFCFCF",
"-.	c #C0C0C0",
";.	c #C5C5C5",
">.	c #D1D1D1",
",.	c #CECECE",
"'.	c #A4A4A4",
").	c #AEAEAE",
"!.	c #B5B5B5",
"~.	c #BABABA",
"{.	c #898989",
"].	c #959595",
"^.	c #C1C1C1",
"/.	c #BBBBBB",
"(.	c #BCBCBC",
"_.	c #B1B1B1",
":.	c #9D9D9D",
"<.	c #ABABAB",
"[.	c #7C7C7C",
"}.	c #9F9F9F",
"|.	c #797979",
"1.	c #6C6C6C",
"2.	c #7E7E7E",
"3.	c #787878",
"4.	c #7F7F7F",
"5.	c #6A6A6A",
"6.	c #737373",
"7.	c #757575",
"8.	c #686868",
"9.	c #515151",
"0.	c #747474",
"a.	c #A9A9A9",
"b.	c #ACACAC",
"c.	c #909090",
"d.	c #666666",
"                                                                                                ",
"                                            . . . . .                                           ",
"                                          . + @ # $ . .                                         ",
"                                          % & * = - ; %                                         ",
"                                          # > , ' ) ! %                                         ",
"                                        . ~ { - - ) ] .                                         ",
"                    % . .               . ^ ) / ( _ = %               . % . .                   ",
"                  % + ^ # %           . . : < [ } | ) 1 %           % $ 2 3 . %                 ",
"                . 4 5 6 7 8 . .   % . % 9 0 | , ) a b & c . . . . . d - e f g . .               ",
"              % % h - i j 6 k l . @ m [ n o n _ n p q e r _ s + l t u v f q w x .               ",
"              . . y - z A = } B h C | a n < | a p u f r D D E a ( e f u F G G 3 %               ",
"                % H * j 7 I i ' < < ' C _ | o F b f e J e e r r v b u p p w K +                 ",
"                  . L } j * i ( , } ' < n M u w q r r e v f w w u F p M G = N .                 ",
"                    + y C - ( { , ) | a p G f v J r v q f b G u F M o u < O %                   ",
"                    . P < ) } C _ n M F f E Q Q Q R D e w G F p M o M G S .                     ",
"                    . & a | ' < a p G J R Q F / j } v D E f p o a n | F a T .                   ",
"                  % U < M < | o F b D Q [ V . . . . % W F J f a | < _ n p A .                   ",
"                  . m p o n M u f D Q m . %         . % $ { r G _ ) ' C a _ c %                 ",
"                . % , G o p G f E X ] . .               % 4 | e | C , Y , _ s . . .             ",
"      . . % % % # Z G b F b q e Q b + .                   % ` v u } [ - 6 C i g  .P N . . %     ",
"      . 9 k ..+.[ o f b w v J E Q ...                     . . _ f [ 6 j 0 i - / / 6 +.@.P .     ",
"    . % C p o M F u G f e J e J R #.%                       . z f ( * +.7 B $.y S ] B +.%..     ",
"    . $ | u a M u w q r r e v J D &..                       . *.b - I =.A @.S K -.m ;.>.3 .     ",
"    . 4 o b b w q v J r v q f r D 9 .                       . ;.G * ,.z ] ] z A B ,.=.,.'..     ",
"    . . ).,.Y F J D E e q w b q E !..                       . j F =.$.y ..>.0 S ~.).^ P % .     ",
"      . % . % {.].K J v w b u u E } . .                   % U o ' @.S K ^.0 ;.% . % . .         ",
"                . 1 v v G u p M q r 3 .                 . . A M I ;.5 h K >.x .                 ",
"                  . / v u p M a o e b 9 . .           . . g M { K -.*./.@.,.]..                 ",
"                  . s q b o a n < o e b : + . . % . . @ @.o ' ..h (.t (.,.m + .                 ",
"                  . + , w o | < ) ' | f f _ ;.W 3 : B < o { ..*./.& !.K z #..                   ",
"                    . Z G u _ ) ' , { [ < F G u F p M C =.-.m ~.g : _.5 A O %                   ",
"                    % :.F o ' C , Y / i * +.> j * >.] 5 h (.t ! k s _.: $.^.4 .                 ",
"                  . U Y M ' C } [ - = > I =.A @.S K -.*./.& !.2 !.!.k !./.7 )..                 ",
"                % 4 ,.p ' , Y C ) / 0 >.,.z ] ;.5 h (.~.g : k *.A A m g & ;.>.; %               ",
"                % g p ) } { ) C , , [ > A y ..^.*./.& !.~.-.z B 5 t =.] /.m I z l %             ",
"              . $ ' M ' } _ > 8 T *.i / 6 0 B h ~.g ^.@.A A ..` % % ` A 7 B > ..4 .             ",
"              . . 2 < | C m N . . . &.<.5 7 +.^.! k @.] s 9 + . [.  % ~ -.> ] c %               ",
"                . . L ,.}.% |.    1.2.. . {.z ^.2 2 B '.. . 3.        2.4 }.@ .                 ",
"                  [.. . 4.              5.. ^.5 _.t ,.9 3.              6.. .                   ",
"                    7.3.                  . !.S k h B {.8.                                      ",
"                                          2.L A h ] y l 9.                                      ",
"                                          0.}.=.7 >.*..                                         ",
"                                          1.% a.x b.c.4.                                        ",
"                                          d.. . . . . |.                                        ",
"                                                                                                ",
"                                                                                                ",
"                                                                                                ",
"                                                                                                "};
