/* XPM */
static char * closeO_xpm[] = {
"19 38 443 2",
"  	c #AF819B",
". 	c #B589A2",
"+ 	c #88506E",
"@ 	c #A06B88",
"# 	c #A26B8A",
"$ 	c #A36C8B",
"% 	c #A46D8C",
"& 	c #A56D8D",
"* 	c #A56E8D",
"= 	c #A06A88",
"- 	c #87506D",
"; 	c #B588A1",
"> 	c #AF809A",
", 	c #AD7E98",
"' 	c #B387A0",
") 	c #854E6C",
"! 	c #7F4866",
"~ 	c #9B6283",
"{ 	c #9D6484",
"] 	c #9F6586",
"^ 	c #A06687",
"/ 	c #A06787",
"( 	c #9F6686",
"_ 	c #9E6585",
": 	c #7E4765",
"< 	c #844E6B",
"[ 	c #B2869F",
"} 	c #AB7C96",
"| 	c #814C69",
"1 	c #7D4664",
"2 	c #9A6081",
"3 	c #D0B6C5",
"4 	c #C6A5B8",
"5 	c #C7A6B9",
"6 	c #C8A7BA",
"7 	c #C9A8BB",
"8 	c #C7A4B8",
"9 	c #D0B5C5",
"0 	c #995F80",
"a 	c #7C4563",
"b 	c #804B68",
"c 	c #A97994",
"d 	c #834E6B",
"e 	c #965D7E",
"f 	c #B3859F",
"g 	c #BA78A1",
"h 	c #BC7AA2",
"i 	c #BD7CA4",
"j 	c #BF7DA5",
"k 	c #BF7EA6",
"l 	c #C07EA6",
"m 	c #BE7DA5",
"n 	c #BD7BA3",
"o 	c #B2849E",
"p 	c #955D7D",
"q 	c #824D6A",
"r 	c #A67792",
"s 	c #824C69",
"t 	c #965C7C",
"u 	c #C5A0B6",
"v 	c #C07FA7",
"w 	c #C281A9",
"x 	c #774B66",
"y 	c #794C67",
"z 	c #C585AD",
"A 	c #C685AE",
"B 	c #C584AD",
"C 	c #784C67",
"D 	c #C180A9",
"E 	c #C07DA7",
"F 	c #B486A0",
"G 	c #945B7B",
"H 	c #814B68",
"I 	c #A4748F",
"J 	c #7E4A68",
"K 	c #945C7C",
"L 	c #C4A0B5",
"M 	c #C686AE",
"N 	c #F9F9F9",
"O 	c #7D4F6B",
"P 	c #CC8EB5",
"Q 	c #F8F8F8",
"R 	c #935B7B",
"S 	c #7D4A67",
"T 	c #A1728D",
"U 	c #7F4B67",
"V 	c #C98EB3",
"W 	c #7A4D68",
"X 	c #FAFAFA",
"Y 	c #81526E",
"Z 	c #794D67",
"` 	c #C98DB2",
" .	c #925A7A",
"..	c #7D4A66",
"+.	c #9F708B",
"@.	c #7C4865",
"#.	c #915879",
"$.	c #C39DB4",
"%.	c #CE94B9",
"&.	c #D197BB",
"*.	c #7F506D",
"=.	c #7D506B",
"-.	c #D096BA",
";.	c #CE93B8",
">.	c #B2839D",
",.	c #905778",
"'.	c #7A4764",
").	c #9C6D88",
"!.	c #976281",
"~.	c #905677",
"{.	c #C39DB3",
"].	c #C07CA6",
"^.	c #C280A9",
"/.	c #C683AC",
"(.	c #835370",
"_.	c #FBFBFB",
":.	c #825370",
"<.	c #C582AB",
"[.	c #C27EA7",
"}.	c #BF7BA4",
"|.	c #B2819C",
"1.	c #8E5575",
"2.	c #96627F",
"3.	c #9A6B86",
"4.	c #94607F",
"5.	c #8D5575",
"6.	c #C39AB1",
"7.	c #BD79A3",
"8.	c #C17CA7",
"9.	c #7F516D",
"0.	c #BF7BA5",
"a.	c #BD78A2",
"b.	c #AF809B",
"c.	c #8C5474",
"d.	c #935F7D",
"e.	c #986984",
"f.	c #945E7E",
"g.	c #8D5474",
"h.	c #C198B1",
"i.	c #BA759F",
"j.	c #865573",
"k.	c #7B4E69",
"l.	c #B9749E",
"m.	c #AD809A",
"n.	c #8C5373",
"o.	c #935D7D",
"p.	c #986884",
"q.	c #935D7C",
"r.	c #8C5273",
"s.	c #C096AF",
"t.	c #B76F9C",
"u.	c #C178A5",
"v.	c #82526F",
"w.	c #B66E9A",
"x.	c #AC7E98",
"y.	c #8A5171",
"z.	c #915C7A",
"A.	c #976783",
"B.	c #915B7A",
"C.	c #895071",
"D.	c #BE94AD",
"E.	c #B36A97",
"F.	c #B66D9A",
"G.	c #7C4E6A",
"H.	c #BC72A0",
"I.	c #BB719F",
"J.	c #B56C99",
"K.	c #B26A96",
"L.	c #AA7C97",
"M.	c #874F70",
"N.	c #905A79",
"O.	c #976682",
"P.	c #8F5979",
"Q.	c #874D70",
"R.	c #CAA4BB",
"S.	c #AE6591",
"T.	c #B06694",
"U.	c #B26796",
"V.	c #B46998",
"W.	c #B56A99",
"X.	c #B56998",
"Y.	c #B36897",
"Z.	c #B16795",
"`.	c #AF6593",
" +	c #AD6490",
".+	c #A87593",
"++	c #864D6F",
"@+	c #8E5878",
"#+	c #966582",
"$+	c #8A5574",
"%+	c #874E6F",
"&+	c #A35A87",
"*+	c #A95F8C",
"=+	c #AB608E",
"-+	c #AD6190",
";+	c #AD6290",
">+	c #AE6291",
",+	c #AB618F",
"'+	c #AA608D",
")+	c #A85E8B",
"!+	c #A35A86",
"~+	c #864D6E",
"{+	c #8F5978",
"]+	c #895573",
"^+	c #966581",
"/+	c #A3728F",
"(+	c #8A5575",
"_+	c #864E6F",
":+	c #884F71",
"<+	c #8A5072",
"[+	c #8B5173",
"}+	c #8C5174",
"|+	c #8C5274",
"1+	c #895072",
"2+	c #854D6E",
"3+	c #895474",
"4+	c #A2718E",
"5+	c #956481",
"6+	c #9C778D",
"7+	c #A58297",
"8+	c #8E637D",
"9+	c #916882",
"0+	c #936983",
"a+	c #956C85",
"b+	c #966C86",
"c+	c #956B85",
"d+	c #946B84",
"e+	c #936A83",
"f+	c #916881",
"g+	c #8D637C",
"h+	c #A48196",
"i+	c #987389",
"j+	c #7E6674",
"k+	c #30252B",
"l+	c #AB7B96",
"m+	c #A67490",
"n+	c #6E3F57",
"o+	c #85526E",
"p+	c #83516C",
"q+	c #82506B",
"r+	c #814F6A",
"s+	c #804E69",
"t+	c #834F6C",
"u+	c #84516D",
"v+	c #86536F",
"w+	c #6F3F58",
"x+	c #A77591",
"y+	c #AC7C97",
"z+	c #A3728E",
"A+	c #693C54",
"B+	c #5F354B",
"C+	c #794663",
"D+	c #774561",
"E+	c #76445F",
"F+	c #75435E",
"G+	c #74425E",
"H+	c #76435F",
"I+	c #774460",
"J+	c #784662",
"K+	c #60364C",
"L+	c #6B3D56",
"M+	c #A4738F",
"N+	c #663A51",
"O+	c #5C3349",
"P+	c #76435E",
"Q+	c #BC8FA8",
"R+	c #AA7894",
"S+	c #A97793",
"T+	c #A87592",
"U+	c #A97693",
"V+	c #AA7794",
"W+	c #AB7995",
"X+	c #BD90A9",
"Y+	c #774560",
"Z+	c #5E344A",
"`+	c #683B53",
" @	c #63384F",
".@	c #72425C",
"+@	c #905E79",
"@@	c #934F78",
"#@	c #904D75",
"$@	c #8F4C74",
"%@	c #8E4B73",
"&@	c #8D4A72",
"*@	c #914E76",
"=@	c #945079",
"-@	c #915F7A",
";@	c #73435D",
">@	c #643A51",
",@	c #5E354A",
"'@	c #6C3E56",
")@	c #A6718F",
"!@	c #95507A",
"~@	c #934E78",
"{@	c #3A2632",
"]@	c #392531",
"^@	c #8F4A74",
"/@	c #8F4974",
"(@	c #3C2733",
"_@	c #944F79",
":@	c #96517B",
"<@	c #8F5C78",
"[@	c #6D3E57",
"}@	c #5F364B",
"|@	c #573347",
"1@	c #663B52",
"2@	c #9F6D89",
"3@	c #99517D",
"4@	c #3B2632",
"5@	c #EDEDED",
"6@	c #ECECEC",
"7@	c #34222D",
"8@	c #924A75",
"9@	c #35232D",
"0@	c #9A537E",
"a@	c #8A5873",
"b@	c #673C54",
"c@	c #593448",
"d@	c #543143",
"e@	c #62384F",
"f@	c #9C6A87",
"g@	c #9C5480",
"h@	c #37242F",
"i@	c #EBEBEB",
"j@	c #311F2A",
"k@	c #9E5682",
"l@	c #86546F",
"m@	c #653951",
"n@	c #563245",
"o@	c #502E3F",
"p@	c #5E354B",
"q@	c #996482",
"r@	c #A15784",
"s@	c #9E5482",
"t@	c #32212B",
"u@	c #EAEAEA",
"v@	c #A05684",
"w@	c #A25986",
"x@	c #81516B",
"y@	c #60364D",
"z@	c #522F41",
"A@	c #6B4057",
"B@	c #5A3348",
"C@	c #966380",
"D@	c #86446B",
"E@	c #824068",
"F@	c #7F3D64",
"G@	c #2D1E27",
"H@	c #2F1F28",
"I@	c #813F66",
"J@	c #84426A",
"K@	c #87456D",
"L@	c #7E4E68",
"M@	c #5D344A",
"N@	c #6D4259",
"O@	c #683E55",
"P@	c #573246",
"Q@	c #95617E",
"R@	c #814167",
"S@	c #7E3E64",
"T@	c #31212A",
"U@	c #33222C",
"V@	c #803F66",
"W@	c #834269",
"X@	c #7B4D66",
"Y@	c #593348",
"Z@	c #6A3F57",
"`@	c #583147",
" #	c #7E3F64",
".#	c #35232E",
"+#	c #2C1E26",
"@#	c #804066",
"##	c #7B4E67",
"$#	c #5A3349",
"%#	c #693E57",
"&#	c #673E55",
"*#	c #593247",
"=#	c #94607D",
"-#	c #7C3E62",
";#	c #302029",
">#	c #723659",
",#	c #382530",
"'#	c #7D3F64",
")#	c #6A3F56",
"!#	c #593147",
"~#	c #94617F",
"{#	c #7A3D61",
"]#	c #773A5E",
"^#	c #37232F",
"/#	c #36242E",
"(#	c #793C60",
"_#	c #7C3E63",
":#	c #7C4E68",
"<#	c #5B3349",
"[#	c #693D57",
"}#	c #5A3249",
"|#	c #AB7495",
"1#	c #783C5F",
"2#	c #763A5D",
"3#	c #73385B",
"4#	c #713659",
"5#	c #703558",
"6#	c #72375A",
"7#	c #75395C",
"8#	c #773B5E",
"9#	c #7C4D68",
"0#	c #5C334B",
"a#	c #6B3F59",
"b#	c #683D56",
"c#	c #593248",
"d#	c #72385A",
"e#	c #6F3557",
"f#	c #6F3558",
"g#	c #703659",
"h#	c #74395C",
"i#	c #73395B",
"j#	c #5B3249",
"k#	c #6A3F58",
"l#	c #895775",
"m#	c #683C56",
"n#	c #673C55",
"o#	c #563046",
"p#	c #552F44",
"q#	c #532E43",
"r#	c #542F44",
"s#	c #563045",
"t#	c #573147",
"u#	c #8A5976",
"v#	c #946F85",
"w#	c #8B677D",
"x#	c #6C485D",
"y#	c #6C485E",
"z#	c #6A475C",
"A#	c #69455A",
"B#	c #684459",
"C#	c #674459",
"D#	c #674358",
"E#	c #68455A",
"F#	c #69465B",
"G#	c #6B485D",
"H#	c #6D495F",
"I#	c #6D485E",
"J#	c #8D687E",
"  . + @ # $ % & * & % $ # = - ; > , , ",
"' ) ! ~ { ] ^ ^ / ^ ( _ { ~ : < [ } } ",
"| 1 2 3 4 5 6 7 7 7 6 5 8 9 0 a b c c ",
"d e f g h i j k l k m n h g o p q r r ",
"s t u v w x y z A B C x D E F G H I I ",
"J K L M C N N O P O N Q x z f R S T T ",
"U R L V W N X X Y X X N Z ` f  ...+.+.",
"@.#.$.%.&.*.X X X X X =.-.;.>.,.'.).).",
"!.~.{.].^./.(._._.X :.<.[.}.|.1.2.3.3.",
"4.5.6.7.8.Y X _._._.X 9.0.a.b.c.d.e.e.",
"f.g.h.i.O X X X j.X X X k.l.m.n.o.p.p.",
"q.r.s.t.k.X X :.u.v.X N W w.x.y.z.A.A.",
"B.C.D.E.F.G.=.H.H.I.O k.J.K.L.M.N.O.O.",
"P.Q.R.S.T.U.V.W.W.X.Y.Z.`. +.+++@+#+#+",
"$+N.%+&+*+=+-+;+>+;+,+'+)+!+~+{+]+^+^+",
"/+(+P._+:+<+[+}+|+}+[+1+:+2+@+3+4+5+5+",
"6+7+8+9+0+a+b+b+b+b+c+d+e+f+g+h+6+i+i+",
"j+j+j+j+j+j+j+j+j+j+j+j+j+j+j+j+j+j+j+",
"k+k+k+k+k+k+k+k+k+k+k+k+k+k+k+k+k+k+k+",
"l+m+n+o+p+q+r+s+s+r+q+t+u+v+w+x+y+, , ",
"z+A+B+C+D+E+F+G+G+G+H+I+J+'.K+L+M+} } ",
"N+O+P+Q+R+S+T+T+T+T+U+V+W+X+Y+Z+`+c c ",
" @.@+@@@#@$@%@&@&@&@%@#@*@=@-@;@>@r r ",
",@'@)@!@~@{@]@^@/@^@]@(@_@:@<@[@}@I I ",
"|@1@2@3@4@5@6@7@8@9@6@5@(@0@a@b@c@T T ",
"d@e@f@g@h@6@i@i@j@i@6@6@]@k@l@m@n@+.+.",
"o@p@q@r@s@t@i@u@u@u@i@7@v@w@x@y@z@).).",
"A@B@C@D@E@F@G@u@u@u@H@I@J@K@L@M@N@3.3.",
"O@P@Q@R@S@T@u@u@u@u@i@U@V@W@X@Y@Z@e.e.",
"O@`@d. #.#i@u@u@+#u@i@6@h@@###$#%#p.p.",
"&#*#=#-#h@6@i@;#>#T@i@6@,#'###$#)#A.A.",
"O@!#~#{#]#^#7@>#>#>#/#,#(#_#:#<#Z@O.O.",
"[#}#|#1#2#3#>#4#5#4#6#7#8#{#9#0#a##+#+",
"b#O@c#d#3#4#5#e#e#f#g#6#h#i#j#Z@k#^+^+",
"l#m#n#c#o#p#q#q#q#q#r#s#t#$#b#[#u#5+5+",
"v#w#x#y#z#A#B#C#D#C#E#F#G#H#I#J#v#i+i+",
"j+j+j+j+j+j+j+j+j+j+j+j+j+j+j+j+j+j+j+",
"k+k+k+k+k+k+k+k+k+k+k+k+k+k+k+k+k+k+k+"};
