/* XPM */
static char * frameATR_xpm[] = {
"5 22 35 1",
" 	c None",
".	c #5A3456",
"+	c #424242",
"@	c #D4B1CC",
"#	c #B6B3B5",
"$	c #4D4D4D",
"%	c #AD7E98",
"&	c #A8A6A7",
"*	c #323031",
"=	c #AB7C96",
"-	c #B5A1AB",
";	c #A97994",
">	c #AF9CA6",
",	c #BAA9B2",
"'	c #272526",
")	c #A67792",
"!	c #A4748F",
"~	c #A1728D",
"{	c #9F708B",
"]	c #9C6D88",
"^	c #9A6B86",
"/	c #986984",
"(	c #986884",
"_	c #976783",
":	c #976682",
"<	c #966582",
"[	c #966581",
"}	c #956481",
"|	c #987389",
"1	c #7E6674",
"2	c #917286",
"3	c #84747F",
"4	c #30252B",
"5	c #30262E",
"6	c #6B6B6B",
"     ",
".+   ",
"@#$  ",
"%%&* ",
"==-* ",
";;>,'",
"))))'",
"!!!!'",
"~~~~'",
"{{{{'",
"]]]]'",
"^^^^'",
"////'",
"(((('",
"____'",
"::::'",
"<<<<'",
"[[[['",
"}}}}'",
"||||'",
"1123'",
"44456"};
