/* XPM */
static char * maximizeO_xpm[] = {
"19 38 432 2",
"  	c #AF819B",
". 	c #B589A2",
"+ 	c #88506E",
"@ 	c #A06B88",
"# 	c #A26B8A",
"$ 	c #A36C8B",
"% 	c #A46D8C",
"& 	c #A56D8D",
"* 	c #A56E8D",
"= 	c #A06A88",
"- 	c #87506D",
"; 	c #B588A1",
"> 	c #AF809A",
", 	c #AD7E98",
"' 	c #B387A0",
") 	c #854E6C",
"! 	c #7F4866",
"~ 	c #9B6283",
"{ 	c #9D6484",
"] 	c #9F6586",
"^ 	c #A06687",
"/ 	c #A06787",
"( 	c #9F6686",
"_ 	c #9E6585",
": 	c #7E4765",
"< 	c #844E6B",
"[ 	c #B2869F",
"} 	c #AB7C96",
"| 	c #814C69",
"1 	c #7D4664",
"2 	c #9A6081",
"3 	c #D0B6C5",
"4 	c #C6A5B8",
"5 	c #C7A6B9",
"6 	c #C8A7BA",
"7 	c #C9A8BB",
"8 	c #C7A4B8",
"9 	c #D0B5C5",
"0 	c #995F80",
"a 	c #7C4563",
"b 	c #804B68",
"c 	c #A97994",
"d 	c #834E6B",
"e 	c #965D7E",
"f 	c #B3859F",
"g 	c #BA78A1",
"h 	c #BC7AA2",
"i 	c #BD7CA4",
"j 	c #BF7DA5",
"k 	c #BF7EA6",
"l 	c #C07EA6",
"m 	c #BE7DA5",
"n 	c #BD7BA3",
"o 	c #B2849E",
"p 	c #955D7D",
"q 	c #824D6A",
"r 	c #A67792",
"s 	c #824C69",
"t 	c #965C7C",
"u 	c #C5A0B6",
"v 	c #C07FA7",
"w 	c #754A64",
"x 	c #774B66",
"y 	c #794C67",
"z 	c #7A4D68",
"A 	c #794D67",
"B 	c #784C67",
"C 	c #C07DA7",
"D 	c #B486A0",
"E 	c #945B7B",
"F 	c #814B68",
"G 	c #A4748F",
"H 	c #7E4A68",
"I 	c #945C7C",
"J 	c #C4A0B5",
"K 	c #C686AE",
"L 	c #F9F9F9",
"M 	c #F8F8F8",
"N 	c #C585AD",
"O 	c #935B7B",
"P 	c #7D4A67",
"Q 	c #A1728D",
"R 	c #7F4B67",
"S 	c #C98EB3",
"T 	c #FAFAFA",
"U 	c #C98DB2",
"V 	c #925A7A",
"W 	c #7D4A66",
"X 	c #9F708B",
"Y 	c #7C4865",
"Z 	c #915879",
"` 	c #C39DB4",
" .	c #CE94B9",
"..	c #7C4E6A",
"+.	c #81526F",
"@.	c #835370",
"#.	c #845471",
"$.	c #80516E",
"%.	c #7B4E69",
"&.	c #CE93B8",
"*.	c #B2839D",
"=.	c #905778",
"-.	c #7A4764",
";.	c #9C6D88",
">.	c #976281",
",.	c #905677",
"'.	c #C39DB3",
").	c #C07CA6",
"!.	c #7D4F6B",
"~.	c #CB87B2",
"{.	c #CD89B3",
"].	c #CB87B1",
"^.	c #825370",
"/.	c #BF7BA4",
"(.	c #B2819C",
"_.	c #8E5575",
":.	c #96627F",
"<.	c #9A6B86",
"[.	c #94607F",
"}.	c #8D5575",
"|.	c #C39AB1",
"1.	c #BD79A3",
"2.	c #CA85B0",
"3.	c #CC87B2",
"4.	c #C984AF",
"5.	c #7C4F6A",
"6.	c #BD78A2",
"7.	c #AF809B",
"8.	c #8C5474",
"9.	c #935F7D",
"0.	c #986984",
"a.	c #945E7E",
"b.	c #8D5474",
"c.	c #C198B1",
"d.	c #BA759F",
"e.	c #865572",
"f.	c #865573",
"g.	c #855472",
"h.	c #82526F",
"i.	c #B9749E",
"j.	c #AD809A",
"k.	c #8C5373",
"l.	c #935D7D",
"m.	c #986884",
"n.	c #935D7C",
"o.	c #8C5273",
"p.	c #C096AF",
"q.	c #B76F9C",
"r.	c #B66E9A",
"s.	c #AC7E98",
"t.	c #8A5171",
"u.	c #915C7A",
"v.	c #976783",
"w.	c #915B7A",
"x.	c #895071",
"y.	c #BE94AD",
"z.	c #B36A97",
"A.	c #7D506B",
"B.	c #7F516D",
"C.	c #7F506C",
"D.	c #B26A96",
"E.	c #AA7C97",
"F.	c #874F70",
"G.	c #905A79",
"H.	c #976682",
"I.	c #8F5979",
"J.	c #874D70",
"K.	c #CAA4BB",
"L.	c #AE6591",
"M.	c #B06694",
"N.	c #B26796",
"O.	c #B46998",
"P.	c #B56A99",
"Q.	c #B56998",
"R.	c #B36897",
"S.	c #B16795",
"T.	c #AF6593",
"U.	c #AD6490",
"V.	c #A87593",
"W.	c #864D6F",
"X.	c #8E5878",
"Y.	c #966582",
"Z.	c #8A5574",
"`.	c #874E6F",
" +	c #A35A87",
".+	c #A95F8C",
"++	c #AB608E",
"@+	c #AD6190",
"#+	c #AD6290",
"$+	c #AE6291",
"%+	c #AB618F",
"&+	c #AA608D",
"*+	c #A85E8B",
"=+	c #A35A86",
"-+	c #864D6E",
";+	c #8F5978",
">+	c #895573",
",+	c #966581",
"'+	c #A3728F",
")+	c #8A5575",
"!+	c #864E6F",
"~+	c #884F71",
"{+	c #8A5072",
"]+	c #8B5173",
"^+	c #8C5174",
"/+	c #8C5274",
"(+	c #895072",
"_+	c #854D6E",
":+	c #895474",
"<+	c #A2718E",
"[+	c #956481",
"}+	c #9C778D",
"|+	c #A58297",
"1+	c #8E637D",
"2+	c #916882",
"3+	c #936983",
"4+	c #956C85",
"5+	c #966C86",
"6+	c #956B85",
"7+	c #946B84",
"8+	c #936A83",
"9+	c #916881",
"0+	c #8D637C",
"a+	c #A48196",
"b+	c #987389",
"c+	c #7E6674",
"d+	c #30252B",
"e+	c #AB7B96",
"f+	c #A67490",
"g+	c #6E3F57",
"h+	c #85526E",
"i+	c #83516C",
"j+	c #82506B",
"k+	c #814F6A",
"l+	c #804E69",
"m+	c #834F6C",
"n+	c #84516D",
"o+	c #86536F",
"p+	c #6F3F58",
"q+	c #A77591",
"r+	c #AC7C97",
"s+	c #A3728E",
"t+	c #693C54",
"u+	c #5F354B",
"v+	c #794663",
"w+	c #774561",
"x+	c #76445F",
"y+	c #75435E",
"z+	c #74425E",
"A+	c #76435F",
"B+	c #774460",
"C+	c #784662",
"D+	c #60364C",
"E+	c #6B3D56",
"F+	c #A4738F",
"G+	c #663A51",
"H+	c #5C3349",
"I+	c #76435E",
"J+	c #BC8FA8",
"K+	c #AA7894",
"L+	c #A97793",
"M+	c #A87592",
"N+	c #A97693",
"O+	c #AA7794",
"P+	c #AB7995",
"Q+	c #BD90A9",
"R+	c #774560",
"S+	c #5E344A",
"T+	c #683B53",
"U+	c #63384F",
"V+	c #72425C",
"W+	c #905E79",
"X+	c #934F78",
"Y+	c #904D75",
"Z+	c #8F4C74",
"`+	c #8E4B73",
" @	c #8D4A72",
".@	c #914E76",
"+@	c #945079",
"@@	c #915F7A",
"#@	c #73435D",
"$@	c #643A51",
"%@	c #5E354A",
"&@	c #6C3E56",
"*@	c #A6718F",
"=@	c #95507A",
"-@	c #3C2734",
";@	c #3A2632",
">@	c #392531",
",@	c #382530",
"'@	c #37242F",
")@	c #3C2733",
"!@	c #3F2935",
"~@	c #96517B",
"{@	c #8F5C78",
"]@	c #6D3E57",
"^@	c #5F364B",
"/@	c #573347",
"(@	c #663B52",
"_@	c #9F6D89",
":@	c #99517D",
"<@	c #3B2632",
"[@	c #EDEDED",
"}@	c #ECECEC",
"|@	c #9A537E",
"1@	c #8A5873",
"2@	c #673C54",
"3@	c #593448",
"4@	c #543143",
"5@	c #62384F",
"6@	c #9C6A87",
"7@	c #9C5480",
"8@	c #EBEBEB",
"9@	c #9E5682",
"0@	c #86546F",
"a@	c #653951",
"b@	c #563245",
"c@	c #502E3F",
"d@	c #5E354B",
"e@	c #996482",
"f@	c #A15784",
"g@	c #36242E",
"h@	c #301F29",
"i@	c #2E1E27",
"j@	c #2D1E26",
"k@	c #2F1E28",
"l@	c #31212A",
"m@	c #A25986",
"n@	c #81516B",
"o@	c #60364D",
"p@	c #522F41",
"q@	c #6B4057",
"r@	c #5A3348",
"s@	c #966380",
"t@	c #86446B",
"u@	c #35232D",
"v@	c #2D1E27",
"w@	c #79385E",
"x@	c #78375E",
"y@	c #7B3A60",
"z@	c #2F1F28",
"A@	c #37232F",
"B@	c #87456D",
"C@	c #7E4E68",
"D@	c #5D344A",
"E@	c #6D4259",
"F@	c #683E55",
"G@	c #573246",
"H@	c #95617E",
"I@	c #814167",
"J@	c #34222D",
"K@	c #74365B",
"L@	c #723459",
"M@	c #75375C",
"N@	c #834269",
"O@	c #7B4D66",
"P@	c #593348",
"Q@	c #6A3F57",
"R@	c #583147",
"S@	c #7E3F64",
"T@	c #35232E",
"U@	c #2C1D26",
"V@	c #2C1E26",
"W@	c #2E1F27",
"X@	c #311F2A",
"Y@	c #804066",
"Z@	c #7B4E67",
"`@	c #5A3349",
" #	c #693E57",
".#	c #673E55",
"+#	c #593247",
"@#	c #94607D",
"##	c #7C3E62",
"$#	c #7D3F64",
"%#	c #6A3F56",
"&#	c #593147",
"*#	c #94617F",
"=#	c #7A3D61",
"-#	c #33222C",
";#	c #7C3E63",
">#	c #7C4E68",
",#	c #5B3349",
"'#	c #693D57",
")#	c #5A3249",
"!#	c #AB7495",
"~#	c #783C5F",
"{#	c #763A5D",
"]#	c #73385B",
"^#	c #723659",
"/#	c #713659",
"(#	c #703558",
"_#	c #72375A",
":#	c #75395C",
"<#	c #773B5E",
"[#	c #7C4D68",
"}#	c #5C334B",
"|#	c #6B3F59",
"1#	c #683D56",
"2#	c #593248",
"3#	c #72385A",
"4#	c #6F3557",
"5#	c #6F3558",
"6#	c #703659",
"7#	c #74395C",
"8#	c #73395B",
"9#	c #5B3249",
"0#	c #6A3F58",
"a#	c #895775",
"b#	c #683C56",
"c#	c #673C55",
"d#	c #563046",
"e#	c #552F44",
"f#	c #532E43",
"g#	c #542F44",
"h#	c #563045",
"i#	c #573147",
"j#	c #8A5976",
"k#	c #946F85",
"l#	c #8B677D",
"m#	c #6C485D",
"n#	c #6C485E",
"o#	c #6A475C",
"p#	c #69455A",
"q#	c #684459",
"r#	c #674459",
"s#	c #674358",
"t#	c #68455A",
"u#	c #69465B",
"v#	c #6B485D",
"w#	c #6D495F",
"x#	c #6D485E",
"y#	c #8D687E",
"  . + @ # $ % & * & % $ # = - ; > , , ",
"' ) ! ~ { ] ^ ^ / ^ ( _ { ~ : < [ } } ",
"| 1 2 3 4 5 6 7 7 7 6 5 8 9 0 a b c c ",
"d e f g h i j k l k m n h g o p q r r ",
"s t u v w x y z z A B x w C D E F G G ",
"H I J K B L L L L L L M x N f O P Q Q ",
"R O J S z L T T T T T L A U f V W X X ",
"Y Z `  ...T +.@.#.@.$.L %.&.*.=.-.;.;.",
">.,.'.).!.T @.~.{.].^.T %./.(._.:.<.<.",
"[.}.|.1.!.T #.2.3.4.@.T 5.6.7.8.9.0.0.",
"a.b.c.d.!.T @.e.f.g.h.T %.i.j.k.l.m.m.",
"n.o.p.q.%.T T T T T T L z r.s.t.u.v.v.",
"w.x.y.z.A ..A.B.B.C.!.%.B D.E.F.G.H.H.",
"I.J.K.L.M.N.O.P.P.Q.R.S.T.U.V.W.X.Y.Y.",
"Z.G.`. +.+++@+#+$+#+%+&+*+=+-+;+>+,+,+",
"'+)+I.!+~+{+]+^+/+^+]+(+~+_+X.:+<+[+[+",
"}+|+1+2+3+4+5+5+5+5+6+7+8+9+0+a+}+b+b+",
"c+c+c+c+c+c+c+c+c+c+c+c+c+c+c+c+c+c+c+",
"d+d+d+d+d+d+d+d+d+d+d+d+d+d+d+d+d+d+d+",
"e+f+g+h+i+j+k+l+l+k+j+m+n+o+p+q+r+, , ",
"s+t+u+v+w+x+y+z+z+z+A+B+C+-.D+E+F+} } ",
"G+H+I+J+K+L+M+M+M+M+N+O+P+Q+R+S+T+c c ",
"U+V+W+X+Y+Z+`+ @ @ @`+Y+.@+@@@#@$@r r ",
"%@&@*@=@-@;@>@,@'@,@>@)@!@~@{@]@^@G G ",
"/@(@_@:@<@[@}@}@}@}@}@[@)@|@1@2@3@Q Q ",
"4@5@6@7@'@}@8@8@8@8@}@}@>@9@0@a@b@X X ",
"c@d@e@f@g@8@h@i@j@k@l@}@'@m@n@o@p@;.;.",
"q@r@s@t@u@8@v@w@x@y@z@}@A@B@C@D@E@<.<.",
"F@G@H@I@J@8@i@K@L@M@z@8@g@N@O@P@Q@0.0.",
"F@R@9.S@T@8@z@U@V@W@X@}@'@Y@Z@`@ #m.m.",
".#+#@###'@}@8@8@8@8@8@}@,@$#Z@`@%#v.v.",
"F@&#*#=#>@A@J@-#-#J@g@,@;@;#>#,#Q@H.H.",
"'#)#!#~#{#]#^#/#(#/#_#:#<#=#[#}#|#Y.Y.",
"1#F@2#3#]#/#(#4#4#5#6#_#7#8#9#Q@0#,+,+",
"a#b#c#2#d#e#f#f#f#f#g#h#i#`@1#'#j#[+[+",
"k#l#m#n#o#p#q#r#s#r#t#u#v#w#x#y#k#b+b+",
"c+c+c+c+c+c+c+c+c+c+c+c+c+c+c+c+c+c+c+",
"d+d+d+d+d+d+d+d+d+d+d+d+d+d+d+d+d+d+d+"};
