/* XPM */
static char * menusel_xpm[] = {
"1 20 20 1",
" 	c None",
".	c #63425F",
"+	c #B469AB",
"@	c #B367AA",
"#	c #B266A9",
"$	c #B165A8",
"%	c #B064A7",
"&	c #AF62A6",
"*	c #AE61A5",
"=	c #AD60A4",
"-	c #AC5FA3",
";	c #AC5EA3",
">	c #AE5DA4",
",	c #B05BA6",
"'	c #B259A8",
")	c #B458A9",
"!	c #B656AB",
"~	c #B754AD",
"{	c #BA53AE",
"]	c #BB51B0",
".",
"+",
"@",
"#",
"$",
"%",
"&",
"*",
"=",
"-",
";",
">",
",",
"'",
")",
"!",
"~",
"{",
"]",
"."};
