/* XPM */
static char * rolldownA_xpm[] = {
"19 38 95 2",
"  	c #AD7E98",
". 	c #7A4762",
"+ 	c #925E7B",
"@ 	c #AB7C96",
"# 	c #774560",
"$ 	c #6F3E59",
"% 	c #8A5473",
"& 	c #73435D",
"* 	c #6D3D56",
"= 	c #88526F",
"- 	c #C7A3B7",
"; 	c #B98FA7",
"> 	c #A97994",
", 	c #844F6C",
"' 	c #A2718C",
") 	c #A6638C",
"! 	c #A67792",
"~ 	c #6F4059",
"{ 	c #814D69",
"] 	c #B589A2",
"^ 	c #AB6791",
"/ 	c #59394C",
"( 	c #A2708C",
"_ 	c #A4748F",
": 	c #6B3F57",
"< 	c #7D4B67",
"[ 	c #B287A0",
"} 	c #B06C96",
"| 	c #F3F3F3",
"1 	c #9F6E89",
"2 	c #A1728D",
"3 	c #693E55",
"4 	c #7B4965",
"5 	c #B0869E",
"6 	c #B3719A",
"7 	c #9D6C87",
"8 	c #9F708B",
"9 	c #653B52",
"0 	c #774662",
"a 	c #AF819B",
"b 	c #B8769F",
"c 	c #9A6984",
"d 	c #9C6D88",
"e 	c #81516C",
"f 	c #75455F",
"g 	c #AD8099",
"h 	c #A36088",
"i 	c #986882",
"j 	c #9A6B86",
"k 	c #7E4F6A",
"l 	c #72445D",
"m 	c #AC7D97",
"n 	c #A05D85",
"o 	c #956680",
"p 	c #986984",
"q 	c #7D4E69",
"r 	c #72435D",
"s 	c #AA7C97",
"t 	c #9C5A82",
"u 	c #936680",
"v 	c #986884",
"w 	c #7D4D68",
"x 	c #72425C",
"y 	c #AA7B96",
"z 	c #99567F",
"A 	c #93657F",
"B 	c #976783",
"C 	c #7C4C68",
"D 	c #70415C",
"E 	c #A97B96",
"F 	c #96537C",
"G 	c #93647F",
"H 	c #976682",
"I 	c #7C4B67",
"J 	c #70405C",
"K 	c #BA8BA7",
"L 	c #934F78",
"M 	c #91607D",
"N 	c #966582",
"O 	c #784965",
"P 	c #7B4B67",
"Q 	c #70405B",
"R 	c #8A4970",
"S 	c #8E4B73",
"T 	c #966581",
"U 	c #956481",
"V 	c #784864",
"W 	c #7B4A66",
"X 	c #6F3F5B",
"Y 	c #987389",
"Z 	c #7C556C",
"` 	c #7E586F",
" .	c #7E6674",
"..	c #30252B",
"+.	c #000000",
"    . + + + + + + + + + + + .         ",
"@ # $ % % % % % % % % % % % $ # @ @ @ ",
"& * = - ; ; ; ; ; ; ; ; ; - = * & > > ",
"& , ' ) ) ) ) ) ) ) ) ) ) ) ' , & ! ! ",
"~ { ] ^ ^ / / / / / / / ^ ^ ( { ~ _ _ ",
": < [ } / | | | | | | | / } 1 < : 2 2 ",
"3 4 5 6 / | | | | | | | / 6 7 4 3 8 8 ",
"9 0 a b / | | | | | | | / b c 0 9 d d ",
"e f g h / | | | | | | | / h i f e j j ",
"k l m n / | | | | | | | / n o l k p p ",
"q r s t / | | | | | | | / t u r q v v ",
"w x y z / | | | | | | | / z A x w B B ",
"C D E F F / / / / / / / F F G D C H H ",
"I J K L L L L L L L L L L L M J I N N ",
"O P Q R S S S S S S S S S R Q P O T T ",
"U V W X X X X X X X X X X X W V U U U ",
"Y Y Z ` ` ` ` ` ` ` ` ` ` ` Z Y Y Y Y ",
" . . . . . . . . . . . . . . . . . . .",
"......................................",
"+.+.+.+.+.+.+.+.+.+.+.+.+.+.+.+.+.+.+.",
"+.+.+.+.+.+.+.+.+.+.+.+.+.+.+.+.+.+.+.",
"+.+.+.+.+.+.+.+.+.+.+.+.+.+.+.+.+.+.+.",
"+.+.+.+.+.+.+.+.+.+.+.+.+.+.+.+.+.+.+.",
"+.+.+.+.+.+.+.+.+.+.+.+.+.+.+.+.+.+.+.",
"+.+.+.+.+.+.+.+.+.+.+.+.+.+.+.+.+.+.+.",
"+.+.+.+.+.+.+.+.+.+.+.+.+.+.+.+.+.+.+.",
"+.+.+.+.+.+.+.+.+.+.+.+.+.+.+.+.+.+.+.",
"+.+.+.+.+.+.+.+.+.+.+.+.+.+.+.+.+.+.+.",
"+.+.+.+.+.+.+.+.+.+.+.+.+.+.+.+.+.+.+.",
"+.+.+.+.+.+.+.+.+.+.+.+.+.+.+.+.+.+.+.",
"+.+.+.+.+.+.+.+.+.+.+.+.+.+.+.+.+.+.+.",
"+.+.+.+.+.+.+.+.+.+.+.+.+.+.+.+.+.+.+.",
"+.+.+.+.+.+.+.+.+.+.+.+.+.+.+.+.+.+.+.",
"+.+.+.+.+.+.+.+.+.+.+.+.+.+.+.+.+.+.+.",
"+.+.+.+.+.+.+.+.+.+.+.+.+.+.+.+.+.+.+.",
"+.+.+.+.+.+.+.+.+.+.+.+.+.+.+.+.+.+.+.",
"+.+.+.+.+.+.+.+.+.+.+.+.+.+.+.+.+.+.+.",
"+.+.+.+.+.+.+.+.+.+.+.+.+.+.+.+.+.+.+."};
