/* XPM */
static char * maximizeA_xpm[] = {
"19 38 96 2",
"  	c #AD7E98",
". 	c #7A4762",
"+ 	c #925E7B",
"@ 	c #AB7C96",
"# 	c #774560",
"$ 	c #6F3E59",
"% 	c #8A5473",
"& 	c #73435D",
"* 	c #6D3D56",
"= 	c #88526F",
"- 	c #C7A3B7",
"; 	c #B98FA7",
"> 	c #A97994",
", 	c #844F6C",
"' 	c #A2718C",
") 	c #A6638C",
"! 	c #A67792",
"~ 	c #6F4059",
"{ 	c #814D69",
"] 	c #B589A2",
"^ 	c #AB6791",
"/ 	c #59394C",
"( 	c #A2708C",
"_ 	c #A4748F",
": 	c #6B3F57",
"< 	c #7D4B67",
"[ 	c #B287A0",
"} 	c #B06C96",
"| 	c #F3F3F3",
"1 	c #9F6E89",
"2 	c #A1728D",
"3 	c #693E55",
"4 	c #7B4965",
"5 	c #B0869E",
"6 	c #B3719A",
"7 	c #9D6C87",
"8 	c #9F708B",
"9 	c #653B52",
"0 	c #774662",
"a 	c #AF819B",
"b 	c #B8769F",
"c 	c #9A6984",
"d 	c #9C6D88",
"e 	c #81516C",
"f 	c #75455F",
"g 	c #AD8099",
"h 	c #A36088",
"i 	c #A26088",
"j 	c #986882",
"k 	c #9A6B86",
"l 	c #7E4F6A",
"m 	c #72445D",
"n 	c #AC7D97",
"o 	c #A05D85",
"p 	c #956680",
"q 	c #986984",
"r 	c #7D4E69",
"s 	c #72435D",
"t 	c #AA7C97",
"u 	c #9C5A82",
"v 	c #936680",
"w 	c #986884",
"x 	c #7D4D68",
"y 	c #72425C",
"z 	c #AA7B96",
"A 	c #99567F",
"B 	c #93657F",
"C 	c #976783",
"D 	c #7C4C68",
"E 	c #70415C",
"F 	c #A97B96",
"G 	c #96537C",
"H 	c #93647F",
"I 	c #976682",
"J 	c #7C4B67",
"K 	c #70405C",
"L 	c #BA8BA7",
"M 	c #934F78",
"N 	c #91607D",
"O 	c #966582",
"P 	c #784965",
"Q 	c #7B4B67",
"R 	c #70405B",
"S 	c #8A4970",
"T 	c #8E4B73",
"U 	c #966581",
"V 	c #956481",
"W 	c #784864",
"X 	c #7B4A66",
"Y 	c #6F3F5B",
"Z 	c #987389",
"` 	c #7C556C",
" .	c #7E586F",
"..	c #7E6674",
"+.	c #30252B",
"@.	c #000000",
"    . + + + + + + + + + + + .         ",
"@ # $ % % % % % % % % % % % $ # @ @ @ ",
"& * = - ; ; ; ; ; ; ; ; ; - = * & > > ",
"& , ' ) ) ) ) ) ) ) ) ) ) ) ' , & ! ! ",
"~ { ] ^ / / / / / / / / / ^ ( { ~ _ _ ",
": < [ } / | | | | | | | / } 1 < : 2 2 ",
"3 4 5 6 / | | | | | | | / 6 7 4 3 8 8 ",
"9 0 a b / | / / / / / | / b c 0 9 d d ",
"e f g h / | / i h h / | / h j f e k k ",
"l m n o / | / o o o / | / o p m l q q ",
"r s t u / | / / / / / | / u v s r w w ",
"x y z A / | | | | | | | / A B y x C C ",
"D E F G / / / / / / / / / G H E D I I ",
"J K L M M M M M M M M M M M N K J O O ",
"P Q R S T T T T T T T T T S R Q P U U ",
"V W X Y Y Y Y Y Y Y Y Y Y Y X W V V V ",
"Z Z `  . . . . . . . . . . .` Z Z Z Z ",
"......................................",
"+.+.+.+.+.+.+.+.+.+.+.+.+.+.+.+.+.+.+.",
"@.@.@.@.@.@.@.@.@.@.@.@.@.@.@.@.@.@.@.",
"@.@.@.@.@.@.@.@.@.@.@.@.@.@.@.@.@.@.@.",
"@.@.@.@.@.@.@.@.@.@.@.@.@.@.@.@.@.@.@.",
"@.@.@.@.@.@.@.@.@.@.@.@.@.@.@.@.@.@.@.",
"@.@.@.@.@.@.@.@.@.@.@.@.@.@.@.@.@.@.@.",
"@.@.@.@.@.@.@.@.@.@.@.@.@.@.@.@.@.@.@.",
"@.@.@.@.@.@.@.@.@.@.@.@.@.@.@.@.@.@.@.",
"@.@.@.@.@.@.@.@.@.@.@.@.@.@.@.@.@.@.@.",
"@.@.@.@.@.@.@.@.@.@.@.@.@.@.@.@.@.@.@.",
"@.@.@.@.@.@.@.@.@.@.@.@.@.@.@.@.@.@.@.",
"@.@.@.@.@.@.@.@.@.@.@.@.@.@.@.@.@.@.@.",
"@.@.@.@.@.@.@.@.@.@.@.@.@.@.@.@.@.@.@.",
"@.@.@.@.@.@.@.@.@.@.@.@.@.@.@.@.@.@.@.",
"@.@.@.@.@.@.@.@.@.@.@.@.@.@.@.@.@.@.@.",
"@.@.@.@.@.@.@.@.@.@.@.@.@.@.@.@.@.@.@.",
"@.@.@.@.@.@.@.@.@.@.@.@.@.@.@.@.@.@.@.",
"@.@.@.@.@.@.@.@.@.@.@.@.@.@.@.@.@.@.@.",
"@.@.@.@.@.@.@.@.@.@.@.@.@.@.@.@.@.@.@.",
"@.@.@.@.@.@.@.@.@.@.@.@.@.@.@.@.@.@.@."};
