/* XPM */
static char * minimizeA_xpm[] = {
"19 38 97 2",
"  	c #AD7E98",
". 	c #7A4762",
"+ 	c #925E7B",
"@ 	c #AB7C96",
"# 	c #774560",
"$ 	c #6F3E59",
"% 	c #8A5473",
"& 	c #73435D",
"* 	c #6D3D56",
"= 	c #88526F",
"- 	c #C7A3B7",
"; 	c #B98FA7",
"> 	c #A97994",
", 	c #844F6C",
"' 	c #A2718C",
") 	c #A6638C",
"! 	c #A67792",
"~ 	c #6F4059",
"{ 	c #814D69",
"] 	c #B589A2",
"^ 	c #AB6791",
"/ 	c #A2708C",
"( 	c #A4748F",
"_ 	c #6B3F57",
": 	c #7D4B67",
"< 	c #B287A0",
"[ 	c #B06C96",
"} 	c #AF6C95",
"| 	c #9F6E89",
"1 	c #A1728D",
"2 	c #693E55",
"3 	c #7B4965",
"4 	c #B0869E",
"5 	c #B3719A",
"6 	c #9D6C87",
"7 	c #9F708B",
"8 	c #653B52",
"9 	c #774662",
"0 	c #AF819B",
"a 	c #B8769F",
"b 	c #9A6984",
"c 	c #9C6D88",
"d 	c #81516C",
"e 	c #75455F",
"f 	c #AD8099",
"g 	c #A36088",
"h 	c #A26088",
"i 	c #986882",
"j 	c #9A6B86",
"k 	c #7E4F6A",
"l 	c #72445D",
"m 	c #AC7D97",
"n 	c #A05D85",
"o 	c #59394C",
"p 	c #956680",
"q 	c #986984",
"r 	c #7D4E69",
"s 	c #72435D",
"t 	c #AA7C97",
"u 	c #9C5A82",
"v 	c #F3F3F3",
"w 	c #936680",
"x 	c #986884",
"y 	c #7D4D68",
"z 	c #72425C",
"A 	c #AA7B96",
"B 	c #99567F",
"C 	c #93657F",
"D 	c #976783",
"E 	c #7C4C68",
"F 	c #70415C",
"G 	c #A97B96",
"H 	c #96537C",
"I 	c #93647F",
"J 	c #976682",
"K 	c #7C4B67",
"L 	c #70405C",
"M 	c #BA8BA7",
"N 	c #934F78",
"O 	c #91607D",
"P 	c #966582",
"Q 	c #784965",
"R 	c #7B4B67",
"S 	c #70405B",
"T 	c #8A4970",
"U 	c #8E4B73",
"V 	c #966581",
"W 	c #956481",
"X 	c #784864",
"Y 	c #7B4A66",
"Z 	c #6F3F5B",
"` 	c #987389",
" .	c #7C556C",
"..	c #7E586F",
"+.	c #7E6674",
"@.	c #30252B",
"#.	c #000000",
"    . + + + + + + + + + + + .         ",
"@ # $ % % % % % % % % % % % $ # @ @ @ ",
"& * = - ; ; ; ; ; ; ; ; ; - = * & > > ",
"& , ' ) ) ) ) ) ) ) ) ) ) ) ' , & ! ! ",
"~ { ] ^ ^ ^ ^ ^ ^ ^ ^ ^ ^ ^ / { ~ ( ( ",
"_ : < [ } [ } } } } } [ } [ | : _ 1 1 ",
"2 3 4 5 5 5 5 5 5 5 5 5 5 5 6 3 2 7 7 ",
"8 9 0 a a a a a a a a a a a b 9 8 c c ",
"d e f g h g g h g g g g g g i e d j j ",
"k l m n o o o o o o o o o n p l k q q ",
"r s t u o v v v v v v v o u w s r x x ",
"y z A B o v v v v v v v o B C z y D D ",
"E F G H o o o o o o o o o H I F E J J ",
"K L M N N N N N N N N N N N O L K P P ",
"Q R S T U U U U U U U U U T S R Q V V ",
"W X Y Z Z Z Z Z Z Z Z Z Z Z Y X W W W ",
"` `  ....................... .` ` ` ` ",
"+.+.+.+.+.+.+.+.+.+.+.+.+.+.+.+.+.+.+.",
"@.@.@.@.@.@.@.@.@.@.@.@.@.@.@.@.@.@.@.",
"#.#.#.#.#.#.#.#.#.#.#.#.#.#.#.#.#.#.#.",
"#.#.#.#.#.#.#.#.#.#.#.#.#.#.#.#.#.#.#.",
"#.#.#.#.#.#.#.#.#.#.#.#.#.#.#.#.#.#.#.",
"#.#.#.#.#.#.#.#.#.#.#.#.#.#.#.#.#.#.#.",
"#.#.#.#.#.#.#.#.#.#.#.#.#.#.#.#.#.#.#.",
"#.#.#.#.#.#.#.#.#.#.#.#.#.#.#.#.#.#.#.",
"#.#.#.#.#.#.#.#.#.#.#.#.#.#.#.#.#.#.#.",
"#.#.#.#.#.#.#.#.#.#.#.#.#.#.#.#.#.#.#.",
"#.#.#.#.#.#.#.#.#.#.#.#.#.#.#.#.#.#.#.",
"#.#.#.#.#.#.#.#.#.#.#.#.#.#.#.#.#.#.#.",
"#.#.#.#.#.#.#.#.#.#.#.#.#.#.#.#.#.#.#.",
"#.#.#.#.#.#.#.#.#.#.#.#.#.#.#.#.#.#.#.",
"#.#.#.#.#.#.#.#.#.#.#.#.#.#.#.#.#.#.#.",
"#.#.#.#.#.#.#.#.#.#.#.#.#.#.#.#.#.#.#.",
"#.#.#.#.#.#.#.#.#.#.#.#.#.#.#.#.#.#.#.",
"#.#.#.#.#.#.#.#.#.#.#.#.#.#.#.#.#.#.#.",
"#.#.#.#.#.#.#.#.#.#.#.#.#.#.#.#.#.#.#.",
"#.#.#.#.#.#.#.#.#.#.#.#.#.#.#.#.#.#.#.",
"#.#.#.#.#.#.#.#.#.#.#.#.#.#.#.#.#.#.#."};
