/* XPM */
static char * minimizeO_xpm[] = {
"19 38 483 2",
"  	c #AF819B",
". 	c #B589A2",
"+ 	c #88506E",
"@ 	c #A06B88",
"# 	c #A26B8A",
"$ 	c #A36C8B",
"% 	c #A46D8C",
"& 	c #A56D8D",
"* 	c #A56E8D",
"= 	c #A06A88",
"- 	c #87506D",
"; 	c #B588A1",
"> 	c #AF809A",
", 	c #AD7E98",
"' 	c #B387A0",
") 	c #854E6C",
"! 	c #7F4866",
"~ 	c #9B6283",
"{ 	c #9D6484",
"] 	c #9F6586",
"^ 	c #A06687",
"/ 	c #A06787",
"( 	c #9F6686",
"_ 	c #9E6585",
": 	c #7E4765",
"< 	c #844E6B",
"[ 	c #B2869F",
"} 	c #AB7C96",
"| 	c #814C69",
"1 	c #7D4664",
"2 	c #9A6081",
"3 	c #D0B6C5",
"4 	c #C6A5B8",
"5 	c #C7A6B9",
"6 	c #C8A7BA",
"7 	c #C9A8BB",
"8 	c #C7A4B8",
"9 	c #D0B5C5",
"0 	c #995F80",
"a 	c #7C4563",
"b 	c #804B68",
"c 	c #A97994",
"d 	c #834E6B",
"e 	c #965D7E",
"f 	c #B3859F",
"g 	c #BA78A1",
"h 	c #BC7AA2",
"i 	c #BD7CA4",
"j 	c #BF7DA5",
"k 	c #BF7EA6",
"l 	c #C07EA6",
"m 	c #BE7DA5",
"n 	c #BD7BA3",
"o 	c #B2849E",
"p 	c #955D7D",
"q 	c #824D6A",
"r 	c #A67792",
"s 	c #824C69",
"t 	c #965C7C",
"u 	c #C5A0B6",
"v 	c #C07FA7",
"w 	c #C281A9",
"x 	c #C382AB",
"y 	c #C584AD",
"z 	c #C585AD",
"A 	c #C685AE",
"B 	c #C483AC",
"C 	c #C180A9",
"D 	c #C07DA7",
"E 	c #B486A0",
"F 	c #945B7B",
"G 	c #814B68",
"H 	c #A4748F",
"I 	c #7E4A68",
"J 	c #945C7C",
"K 	c #C4A0B5",
"L 	c #C686AE",
"M 	c #C889B0",
"N 	c #CA8BB2",
"O 	c #CB8DB3",
"P 	c #CB8EB4",
"Q 	c #CC8EB5",
"R 	c #CA8CB3",
"S 	c #C98AB1",
"T 	c #C788AF",
"U 	c #935B7B",
"V 	c #7D4A67",
"W 	c #A1728D",
"X 	c #7F4B67",
"Y 	c #C98EB3",
"Z 	c #CC91B6",
"` 	c #CE93B8",
" .	c #CF95BA",
"..	c #D197BB",
"+.	c #D197BC",
"@.	c #D097BB",
"#.	c #CF95B9",
"$.	c #CD92B7",
"%.	c #CB90B5",
"&.	c #C98DB2",
"*.	c #925A7A",
"=.	c #7D4A66",
"-.	c #9F708B",
";.	c #7C4865",
">.	c #915879",
",.	c #C39DB4",
"'.	c #CE94B9",
").	c #D39ABE",
"!.	c #D59DC0",
"~.	c #D79FC2",
"{.	c #D7A0C2",
"].	c #D69FC1",
"^.	c #D59CBF",
"/.	c #D299BD",
"(.	c #D096BA",
"_.	c #B2839D",
":.	c #905778",
"<.	c #7A4764",
"[.	c #9C6D88",
"}.	c #976281",
"|.	c #905677",
"1.	c #C39DB3",
"2.	c #C07CA6",
"3.	c #C280A9",
"4.	c #C683AC",
"5.	c #C986AF",
"6.	c #CB87B2",
"7.	c #CD89B3",
"8.	c #CB87B1",
"9.	c #C885AE",
"0.	c #C582AB",
"a.	c #C27EA7",
"b.	c #BF7BA4",
"c.	c #B2819C",
"d.	c #8E5575",
"e.	c #96627F",
"f.	c #9A6B86",
"g.	c #94607F",
"h.	c #8D5575",
"i.	c #C39AB1",
"j.	c #BD79A3",
"k.	c #7D4F6B",
"l.	c #81526E",
"m.	c #845471",
"n.	c #875674",
"o.	c #8A5776",
"p.	c #865573",
"q.	c #835370",
"r.	c #7F516D",
"s.	c #7C4F6A",
"t.	c #BD78A2",
"u.	c #AF809B",
"v.	c #8C5474",
"w.	c #935F7D",
"x.	c #986984",
"y.	c #945E7E",
"z.	c #8D5474",
"A.	c #C198B1",
"B.	c #BA759F",
"C.	c #FAFAFA",
"D.	c #FBFBFB",
"E.	c #7B4E69",
"F.	c #B9749E",
"G.	c #AD809A",
"H.	c #8C5373",
"I.	c #935D7D",
"J.	c #986884",
"K.	c #935D7C",
"L.	c #8C5273",
"M.	c #C096AF",
"N.	c #B76F9C",
"O.	c #F9F9F9",
"P.	c #7A4D68",
"Q.	c #B66E9A",
"R.	c #AC7E98",
"S.	c #8A5171",
"T.	c #915C7A",
"U.	c #976783",
"V.	c #915B7A",
"W.	c #895071",
"X.	c #BE94AD",
"Y.	c #B36A97",
"Z.	c #794D67",
"`.	c #7C4E6A",
" +	c #7D506B",
".+	c #7F506C",
"++	c #784C67",
"@+	c #B26A96",
"#+	c #AA7C97",
"$+	c #874F70",
"%+	c #905A79",
"&+	c #976682",
"*+	c #8F5979",
"=+	c #874D70",
"-+	c #CAA4BB",
";+	c #AE6591",
">+	c #B06694",
",+	c #B26796",
"'+	c #B46998",
")+	c #B56A99",
"!+	c #B56998",
"~+	c #B36897",
"{+	c #B16795",
"]+	c #AF6593",
"^+	c #AD6490",
"/+	c #A87593",
"(+	c #864D6F",
"_+	c #8E5878",
":+	c #966582",
"<+	c #8A5574",
"[+	c #874E6F",
"}+	c #A35A87",
"|+	c #A95F8C",
"1+	c #AB608E",
"2+	c #AD6190",
"3+	c #AD6290",
"4+	c #AE6291",
"5+	c #AB618F",
"6+	c #AA608D",
"7+	c #A85E8B",
"8+	c #A35A86",
"9+	c #864D6E",
"0+	c #8F5978",
"a+	c #895573",
"b+	c #966581",
"c+	c #A3728F",
"d+	c #8A5575",
"e+	c #864E6F",
"f+	c #884F71",
"g+	c #8A5072",
"h+	c #8B5173",
"i+	c #8C5174",
"j+	c #8C5274",
"k+	c #895072",
"l+	c #854D6E",
"m+	c #895474",
"n+	c #A2718E",
"o+	c #956481",
"p+	c #9C778D",
"q+	c #A58297",
"r+	c #8E637D",
"s+	c #916882",
"t+	c #936983",
"u+	c #956C85",
"v+	c #966C86",
"w+	c #956B85",
"x+	c #946B84",
"y+	c #936A83",
"z+	c #916881",
"A+	c #8D637C",
"B+	c #A48196",
"C+	c #987389",
"D+	c #7E6674",
"E+	c #30252B",
"F+	c #AB7B96",
"G+	c #A67490",
"H+	c #6E3F57",
"I+	c #85526E",
"J+	c #83516C",
"K+	c #82506B",
"L+	c #814F6A",
"M+	c #804E69",
"N+	c #834F6C",
"O+	c #84516D",
"P+	c #86536F",
"Q+	c #6F3F58",
"R+	c #A77591",
"S+	c #AC7C97",
"T+	c #A3728E",
"U+	c #693C54",
"V+	c #5F354B",
"W+	c #794663",
"X+	c #774561",
"Y+	c #76445F",
"Z+	c #75435E",
"`+	c #74425E",
" @	c #76435F",
".@	c #774460",
"+@	c #784662",
"@@	c #60364C",
"#@	c #6B3D56",
"$@	c #A4738F",
"%@	c #663A51",
"&@	c #5C3349",
"*@	c #76435E",
"=@	c #BC8FA8",
"-@	c #AA7894",
";@	c #A97793",
">@	c #A87592",
",@	c #A97693",
"'@	c #AA7794",
")@	c #AB7995",
"!@	c #BD90A9",
"~@	c #774560",
"{@	c #5E344A",
"]@	c #683B53",
"^@	c #63384F",
"/@	c #72425C",
"(@	c #905E79",
"_@	c #934F78",
":@	c #904D75",
"<@	c #8F4C74",
"[@	c #8E4B73",
"}@	c #8D4A72",
"|@	c #914E76",
"1@	c #945079",
"2@	c #915F7A",
"3@	c #73435D",
"4@	c #643A51",
"5@	c #5E354A",
"6@	c #6C3E56",
"7@	c #A6718F",
"8@	c #95507A",
"9@	c #934E78",
"0@	c #914C76",
"a@	c #904B75",
"b@	c #8F4A74",
"c@	c #8F4974",
"d@	c #924D77",
"e@	c #944F79",
"f@	c #96517B",
"g@	c #8F5C78",
"h@	c #6D3E57",
"i@	c #5F364B",
"j@	c #573347",
"k@	c #663B52",
"l@	c #9F6D89",
"m@	c #99517D",
"n@	c #97507A",
"o@	c #954D78",
"p@	c #934B76",
"q@	c #924A75",
"r@	c #944C77",
"s@	c #964E79",
"t@	c #98517B",
"u@	c #9A537E",
"v@	c #8A5873",
"w@	c #673C54",
"x@	c #593448",
"y@	c #543143",
"z@	c #62384F",
"A@	c #9C6A87",
"B@	c #9C5480",
"C@	c #9A527D",
"D@	c #974F7B",
"E@	c #964D79",
"F@	c #944B78",
"G@	c #944B77",
"H@	c #954C78",
"I@	c #964E7A",
"J@	c #98507C",
"K@	c #9B537F",
"L@	c #9E5682",
"M@	c #86546F",
"N@	c #653951",
"O@	c #563245",
"P@	c #502E3F",
"Q@	c #5E354B",
"R@	c #996482",
"S@	c #A15784",
"T@	c #9E5482",
"U@	c #9C527F",
"V@	c #9A4F7D",
"W@	c #984C7B",
"X@	c #994E7C",
"Y@	c #9B507E",
"Z@	c #9D5280",
"`@	c #A05684",
" #	c #A25986",
".#	c #81516B",
"+#	c #60364D",
"@#	c #522F41",
"##	c #6B4057",
"$#	c #5A3348",
"%#	c #966380",
"&#	c #86446B",
"*#	c #824068",
"=#	c #7F3D64",
"-#	c #7C3A61",
";#	c #79385E",
">#	c #78375E",
",#	c #7B3A60",
"'#	c #7D3C62",
")#	c #813F66",
"!#	c #84426A",
"~#	c #87456D",
"{#	c #7E4E68",
"]#	c #5D344A",
"^#	c #6D4259",
"/#	c #683E55",
"(#	c #573246",
"_#	c #95617E",
":#	c #814167",
"<#	c #34222D",
"[#	c #31212A",
"}#	c #2E1E27",
"|#	c #2A1C24",
"1#	c #281B23",
"2#	c #2C1C25",
"3#	c #2F1F28",
"4#	c #33222C",
"5#	c #36242E",
"6#	c #834269",
"7#	c #7B4D66",
"8#	c #593348",
"9#	c #6A3F57",
"0#	c #583147",
"a#	c #7E3F64",
"b#	c #35232E",
"c#	c #EBEBEB",
"d#	c #EAEAEA",
"e#	c #ECECEC",
"f#	c #37242F",
"g#	c #804066",
"h#	c #7B4E67",
"i#	c #5A3349",
"j#	c #693E57",
"k#	c #673E55",
"l#	c #593247",
"m#	c #94607D",
"n#	c #7C3E62",
"o#	c #382530",
"p#	c #7D3F64",
"q#	c #6A3F56",
"r#	c #593147",
"s#	c #94617F",
"t#	c #7A3D61",
"u#	c #392531",
"v#	c #37232F",
"w#	c #3A2632",
"x#	c #7C3E63",
"y#	c #7C4E68",
"z#	c #5B3349",
"A#	c #693D57",
"B#	c #5A3249",
"C#	c #AB7495",
"D#	c #783C5F",
"E#	c #763A5D",
"F#	c #73385B",
"G#	c #723659",
"H#	c #713659",
"I#	c #703558",
"J#	c #72375A",
"K#	c #75395C",
"L#	c #773B5E",
"M#	c #7C4D68",
"N#	c #5C334B",
"O#	c #6B3F59",
"P#	c #683D56",
"Q#	c #593248",
"R#	c #72385A",
"S#	c #6F3557",
"T#	c #6F3558",
"U#	c #703659",
"V#	c #74395C",
"W#	c #73395B",
"X#	c #5B3249",
"Y#	c #6A3F58",
"Z#	c #895775",
"`#	c #683C56",
" $	c #673C55",
".$	c #563046",
"+$	c #552F44",
"@$	c #532E43",
"#$	c #542F44",
"$$	c #563045",
"%$	c #573147",
"&$	c #8A5976",
"*$	c #946F85",
"=$	c #8B677D",
"-$	c #6C485D",
";$	c #6C485E",
">$	c #6A475C",
",$	c #69455A",
"'$	c #684459",
")$	c #674459",
"!$	c #674358",
"~$	c #68455A",
"{$	c #69465B",
"]$	c #6B485D",
"^$	c #6D495F",
"/$	c #6D485E",
"($	c #8D687E",
"  . + @ # $ % & * & % $ # = - ; > , , ",
"' ) ! ~ { ] ^ ^ / ^ ( _ { ~ : < [ } } ",
"| 1 2 3 4 5 6 7 7 7 6 5 8 9 0 a b c c ",
"d e f g h i j k l k m n h g o p q r r ",
"s t u v w x y z A y B x C D E F G H H ",
"I J K L M N O P Q P R S T z f U V W W ",
"X U K Y Z `  ...+.@.#.$.%.&.f *.=.-.-.",
";.>.,.'...).!.~.{.].^./.(.` _.:.<.[.[.",
"}.|.1.2.3.4.5.6.7.8.9.0.a.b.c.d.e.f.f.",
"g.h.i.j.k.l.m.n.o.p.q.r.s.t.u.v.w.x.x.",
"y.z.A.B.k.C.C.C.D.C.C.C.E.F.G.H.I.J.J.",
"K.L.M.N.E.C.C.C.C.C.C.O.P.Q.R.S.T.U.U.",
"V.W.X.Y.Z.`. +r.r..+k.E.++@+#+$+%+&+&+",
"*+=+-+;+>+,+'+)+)+!+~+{+]+^+/+(+_+:+:+",
"<+%+[+}+|+1+2+3+4+3+5+6+7+8+9+0+a+b+b+",
"c+d+*+e+f+g+h+i+j+i+h+k+f+l+_+m+n+o+o+",
"p+q+r+s+t+u+v+v+v+v+w+x+y+z+A+B+p+C+C+",
"D+D+D+D+D+D+D+D+D+D+D+D+D+D+D+D+D+D+D+",
"E+E+E+E+E+E+E+E+E+E+E+E+E+E+E+E+E+E+E+",
"F+G+H+I+J+K+L+M+M+L+K+N+O+P+Q+R+S+, , ",
"T+U+V+W+X+Y+Z+`+`+`+ @.@+@<.@@#@$@} } ",
"%@&@*@=@-@;@>@>@>@>@,@'@)@!@~@{@]@c c ",
"^@/@(@_@:@<@[@}@}@}@[@:@|@1@2@3@4@r r ",
"5@6@7@8@9@0@a@b@c@b@a@d@e@f@g@h@i@H H ",
"j@k@l@m@n@o@p@q@q@p@r@s@t@u@v@w@x@W W ",
"y@z@A@B@C@D@E@F@G@H@I@J@K@L@M@N@O@-.-.",
"P@Q@R@S@T@U@V@W@W@X@Y@Z@`@ #.#+#@#[.[.",
"##$#%#&#*#=#-#;#>#,#'#)#!#~#{#]#^#f.f.",
"/#(#_#:#<#[#}#|#1#2#3#4#5#6#7#8#9#x.x.",
"/#0#w.a#b#c#d#d#d#d#c#e#f#g#h#i#j#J.J.",
"k#l#m#n#f#e#c#c#c#c#c#e#o#p#h#i#q#U.U.",
"/#r#s#t#u#v#<#4#4#<#5#o#w#x#y#z#9#&+&+",
"A#B#C#D#E#F#G#H#I#H#J#K#L#t#M#N#O#:+:+",
"P#/#Q#R#F#H#I#S#S#T#U#J#V#W#X#9#Y#b+b+",
"Z#`# $Q#.$+$@$@$@$@$#$$$%$i#P#A#&$o+o+",
"*$=$-$;$>$,$'$)$!$)$~${$]$^$/$($*$C+C+",
"D+D+D+D+D+D+D+D+D+D+D+D+D+D+D+D+D+D+D+",
"E+E+E+E+E+E+E+E+E+E+E+E+E+E+E+E+E+E+E+"};
