/* XPM */
static char * restoreO_xpm[] = {
"19 38 463 2",
"  	c #AF819B",
". 	c #B589A2",
"+ 	c #88506E",
"@ 	c #A06B88",
"# 	c #A26B8A",
"$ 	c #A36C8B",
"% 	c #A46D8C",
"& 	c #A56D8D",
"* 	c #A56E8D",
"= 	c #A06A88",
"- 	c #87506D",
"; 	c #B588A1",
"> 	c #AF809A",
", 	c #AD7E98",
"' 	c #B387A0",
") 	c #854E6C",
"! 	c #7F4866",
"~ 	c #9B6283",
"{ 	c #9D6484",
"] 	c #9F6586",
"^ 	c #A06687",
"/ 	c #A06787",
"( 	c #9F6686",
"_ 	c #9E6585",
": 	c #7E4765",
"< 	c #844E6B",
"[ 	c #B2869F",
"} 	c #AB7C96",
"| 	c #814C69",
"1 	c #7D4664",
"2 	c #9A6081",
"3 	c #D0B6C5",
"4 	c #C6A5B8",
"5 	c #C7A6B9",
"6 	c #C8A7BA",
"7 	c #C9A8BB",
"8 	c #C7A4B8",
"9 	c #D0B5C5",
"0 	c #995F80",
"a 	c #7C4563",
"b 	c #804B68",
"c 	c #A97994",
"d 	c #834E6B",
"e 	c #965D7E",
"f 	c #B3859F",
"g 	c #BA78A1",
"h 	c #BC7AA2",
"i 	c #BD7CA4",
"j 	c #BF7DA5",
"k 	c #BF7EA6",
"l 	c #C07EA6",
"m 	c #BE7DA5",
"n 	c #BD7BA3",
"o 	c #B2849E",
"p 	c #955D7D",
"q 	c #824D6A",
"r 	c #A67792",
"s 	c #824C69",
"t 	c #965C7C",
"u 	c #C5A0B6",
"v 	c #C07FA7",
"w 	c #C281A9",
"x 	c #C382AB",
"y 	c #C584AD",
"z 	c #C585AD",
"A 	c #C685AE",
"B 	c #C483AC",
"C 	c #C180A9",
"D 	c #C07DA7",
"E 	c #B486A0",
"F 	c #945B7B",
"G 	c #814B68",
"H 	c #A4748F",
"I 	c #7E4A68",
"J 	c #945C7C",
"K 	c #C4A0B5",
"L 	c #C686AE",
"M 	c #C889B0",
"N 	c #7A4D68",
"O 	c #7C4F6A",
"P 	c #7D4F6B",
"Q 	c #7B4E69",
"R 	c #794D67",
"S 	c #C788AF",
"T 	c #935B7B",
"U 	c #7D4A67",
"V 	c #A1728D",
"W 	c #7F4B67",
"X 	c #C98EB3",
"Y 	c #CC91B6",
"Z 	c #FAFAFA",
"` 	c #7C4E6A",
" .	c #CB90B5",
"..	c #C98DB2",
"+.	c #925A7A",
"@.	c #7D4A66",
"#.	c #9F708B",
"$.	c #7C4865",
"%.	c #915879",
"&.	c #C39DB4",
"*.	c #CE94B9",
"=.	c #D197BB",
"-.	c #7F506D",
";.	c #7D506B",
">.	c #D096BA",
",.	c #CE93B8",
"'.	c #B2839D",
").	c #905778",
"!.	c #7A4764",
"~.	c #9C6D88",
"{.	c #976281",
"].	c #905677",
"^.	c #C39DB3",
"/.	c #C07CA6",
"(.	c #C280A9",
"_.	c #80516E",
":.	c #865573",
"<.	c #875674",
"[.	c #855472",
"}.	c #7F516D",
"|.	c #C27EA7",
"1.	c #BF7BA4",
"2.	c #B2819C",
"3.	c #8E5575",
"4.	c #96627F",
"5.	c #9A6B86",
"6.	c #94607F",
"7.	c #8D5575",
"8.	c #C39AB1",
"9.	c #BD79A3",
"0.	c #C17CA7",
"a.	c #81526E",
"b.	c #8A5776",
"c.	c #BF7BA5",
"d.	c #BD78A2",
"e.	c #AF809B",
"f.	c #8C5474",
"g.	c #935F7D",
"h.	c #986984",
"i.	c #945E7E",
"j.	c #8D5474",
"k.	c #C198B1",
"l.	c #BA759F",
"m.	c #BE78A3",
"n.	c #FBFBFB",
"o.	c #7F506C",
"p.	c #BC77A1",
"q.	c #B9749E",
"r.	c #AD809A",
"s.	c #8C5373",
"t.	c #935D7D",
"u.	c #986884",
"v.	c #935D7C",
"w.	c #8C5273",
"x.	c #C096AF",
"y.	c #B76F9C",
"z.	c #BA729F",
"A.	c #7E506C",
"B.	c #825370",
"C.	c #835370",
"D.	c #82526F",
"E.	c #B9719E",
"F.	c #B66E9A",
"G.	c #AC7E98",
"H.	c #8A5171",
"I.	c #915C7A",
"J.	c #976783",
"K.	c #915B7A",
"L.	c #895071",
"M.	c #BE94AD",
"N.	c #B36A97",
"O.	c #B66D9A",
"P.	c #B86F9C",
"Q.	c #BA709E",
"R.	c #BC72A0",
"S.	c #BB719F",
"T.	c #B76E9C",
"U.	c #B56C99",
"V.	c #B26A96",
"W.	c #AA7C97",
"X.	c #874F70",
"Y.	c #905A79",
"Z.	c #976682",
"`.	c #8F5979",
" +	c #874D70",
".+	c #CAA4BB",
"++	c #AE6591",
"@+	c #B06694",
"#+	c #B26796",
"$+	c #B46998",
"%+	c #B56A99",
"&+	c #B56998",
"*+	c #B36897",
"=+	c #B16795",
"-+	c #AF6593",
";+	c #AD6490",
">+	c #A87593",
",+	c #864D6F",
"'+	c #8E5878",
")+	c #966582",
"!+	c #8A5574",
"~+	c #874E6F",
"{+	c #A35A87",
"]+	c #A95F8C",
"^+	c #AB608E",
"/+	c #AD6190",
"(+	c #AD6290",
"_+	c #AE6291",
":+	c #AB618F",
"<+	c #AA608D",
"[+	c #A85E8B",
"}+	c #A35A86",
"|+	c #864D6E",
"1+	c #8F5978",
"2+	c #895573",
"3+	c #966581",
"4+	c #A3728F",
"5+	c #8A5575",
"6+	c #864E6F",
"7+	c #884F71",
"8+	c #8A5072",
"9+	c #8B5173",
"0+	c #8C5174",
"a+	c #8C5274",
"b+	c #895072",
"c+	c #854D6E",
"d+	c #895474",
"e+	c #A2718E",
"f+	c #956481",
"g+	c #9C778D",
"h+	c #A58297",
"i+	c #8E637D",
"j+	c #916882",
"k+	c #936983",
"l+	c #956C85",
"m+	c #966C86",
"n+	c #956B85",
"o+	c #946B84",
"p+	c #936A83",
"q+	c #916881",
"r+	c #8D637C",
"s+	c #A48196",
"t+	c #987389",
"u+	c #7E6674",
"v+	c #30252B",
"w+	c #AB7B96",
"x+	c #A67490",
"y+	c #6E3F57",
"z+	c #85526E",
"A+	c #83516C",
"B+	c #82506B",
"C+	c #814F6A",
"D+	c #804E69",
"E+	c #834F6C",
"F+	c #84516D",
"G+	c #86536F",
"H+	c #6F3F58",
"I+	c #A77591",
"J+	c #AC7C97",
"K+	c #A3728E",
"L+	c #693C54",
"M+	c #5F354B",
"N+	c #794663",
"O+	c #774561",
"P+	c #76445F",
"Q+	c #75435E",
"R+	c #74425E",
"S+	c #76435F",
"T+	c #774460",
"U+	c #784662",
"V+	c #60364C",
"W+	c #6B3D56",
"X+	c #A4738F",
"Y+	c #663A51",
"Z+	c #5C3349",
"`+	c #76435E",
" @	c #BC8FA8",
".@	c #AA7894",
"+@	c #A97793",
"@@	c #A87592",
"#@	c #A97693",
"$@	c #AA7794",
"%@	c #AB7995",
"&@	c #BD90A9",
"*@	c #774560",
"=@	c #5E344A",
"-@	c #683B53",
";@	c #63384F",
">@	c #72425C",
",@	c #905E79",
"'@	c #934F78",
")@	c #904D75",
"!@	c #8F4C74",
"~@	c #8E4B73",
"{@	c #8D4A72",
"]@	c #914E76",
"^@	c #945079",
"/@	c #915F7A",
"(@	c #73435D",
"_@	c #643A51",
":@	c #5E354A",
"<@	c #6C3E56",
"[@	c #A6718F",
"}@	c #95507A",
"|@	c #934E78",
"1@	c #914C76",
"2@	c #904B75",
"3@	c #8F4A74",
"4@	c #8F4974",
"5@	c #924D77",
"6@	c #944F79",
"7@	c #96517B",
"8@	c #8F5C78",
"9@	c #6D3E57",
"0@	c #5F364B",
"a@	c #573347",
"b@	c #663B52",
"c@	c #9F6D89",
"d@	c #99517D",
"e@	c #97507A",
"f@	c #37242F",
"g@	c #35232E",
"h@	c #34222D",
"i@	c #35232D",
"j@	c #36242E",
"k@	c #382530",
"l@	c #98517B",
"m@	c #9A537E",
"n@	c #8A5873",
"o@	c #673C54",
"p@	c #593448",
"q@	c #543143",
"r@	c #62384F",
"s@	c #9C6A87",
"t@	c #9C5480",
"u@	c #9A527D",
"v@	c #EBEBEB",
"w@	c #ECECEC",
"x@	c #9B537F",
"y@	c #9E5682",
"z@	c #86546F",
"A@	c #653951",
"B@	c #563245",
"C@	c #502E3F",
"D@	c #5E354B",
"E@	c #996482",
"F@	c #A15784",
"G@	c #9E5482",
"H@	c #32212B",
"I@	c #EAEAEA",
"J@	c #A05684",
"K@	c #A25986",
"L@	c #81516B",
"M@	c #60364D",
"N@	c #522F41",
"O@	c #6B4057",
"P@	c #5A3348",
"Q@	c #966380",
"R@	c #86446B",
"S@	c #824068",
"T@	c #31212A",
"U@	c #2A1C24",
"V@	c #291B23",
"W@	c #2C1E26",
"X@	c #33222C",
"Y@	c #84426A",
"Z@	c #87456D",
"`@	c #7E4E68",
" #	c #5D344A",
".#	c #6D4259",
"+#	c #683E55",
"@#	c #573246",
"##	c #95617E",
"$#	c #814167",
"%#	c #7E3E64",
"&#	c #281B23",
"*#	c #2C1C25",
"=#	c #803F66",
"-#	c #834269",
";#	c #7B4D66",
">#	c #593348",
",#	c #6A3F57",
"'#	c #583147",
")#	c #7E3F64",
"!#	c #7B3D61",
"~#	c #7D3E63",
"{#	c #804066",
"]#	c #7B4E67",
"^#	c #5A3349",
"/#	c #693E57",
"(#	c #673E55",
"_#	c #593247",
":#	c #94607D",
"<#	c #7C3E62",
"[#	c #793B5F",
"}#	c #32202B",
"|#	c #302029",
"1#	c #301F29",
"2#	c #7A3C61",
"3#	c #7D3F64",
"4#	c #6A3F56",
"5#	c #593147",
"6#	c #94617F",
"7#	c #7A3D61",
"8#	c #773A5E",
"9#	c #75385C",
"0#	c #73375A",
"a#	c #723659",
"b#	c #74385B",
"c#	c #76395D",
"d#	c #793C60",
"e#	c #7C3E63",
"f#	c #7C4E68",
"g#	c #5B3349",
"h#	c #693D57",
"i#	c #5A3249",
"j#	c #AB7495",
"k#	c #783C5F",
"l#	c #763A5D",
"m#	c #73385B",
"n#	c #713659",
"o#	c #703558",
"p#	c #72375A",
"q#	c #75395C",
"r#	c #773B5E",
"s#	c #7C4D68",
"t#	c #5C334B",
"u#	c #6B3F59",
"v#	c #683D56",
"w#	c #593248",
"x#	c #72385A",
"y#	c #6F3557",
"z#	c #6F3558",
"A#	c #703659",
"B#	c #74395C",
"C#	c #73395B",
"D#	c #5B3249",
"E#	c #6A3F58",
"F#	c #895775",
"G#	c #683C56",
"H#	c #673C55",
"I#	c #563046",
"J#	c #552F44",
"K#	c #532E43",
"L#	c #542F44",
"M#	c #563045",
"N#	c #573147",
"O#	c #8A5976",
"P#	c #946F85",
"Q#	c #8B677D",
"R#	c #6C485D",
"S#	c #6C485E",
"T#	c #6A475C",
"U#	c #69455A",
"V#	c #684459",
"W#	c #674459",
"X#	c #674358",
"Y#	c #68455A",
"Z#	c #69465B",
"`#	c #6B485D",
" $	c #6D495F",
".$	c #6D485E",
"+$	c #8D687E",
"  . + @ # $ % & * & % $ # = - ; > , , ",
"' ) ! ~ { ] ^ ^ / ^ ( _ { ~ : < [ } } ",
"| 1 2 3 4 5 6 7 7 7 6 5 8 9 0 a b c c ",
"d e f g h i j k l k m n h g o p q r r ",
"s t u v w x y z A y B x C D E F G H H ",
"I J K L M N O P P P Q R S z f T U V V ",
"W T K X Y P Z Z Z Z Z `  ...f +.@.#.#.",
"$.%.&.*.=.-.Z Z Z Z Z ;.>.,.'.).!.~.~.",
"{.].^./.(._.Z :.<.[.Z }.|.1.2.3.4.5.5.",
"6.7.8.9.0.a.Z <.b.:.Z }.c.d.e.f.g.h.h.",
"i.j.k.l.m._.Z Z n.Z Z o.p.q.r.s.t.u.u.",
"v.w.x.y.z.A._.B.C.D._.P E.F.G.H.I.J.J.",
"K.L.M.N.O.P.Q.R.R.S.Q.T.U.V.W.X.Y.Z.Z.",
"`. +.+++@+#+$+%+%+&+*+=+-+;+>+,+'+)+)+",
"!+Y.~+{+]+^+/+(+_+(+:+<+[+}+|+1+2+3+3+",
"4+5+`.6+7+8+9+0+a+0+9+b+7+c+'+d+e+f+f+",
"g+h+i+j+k+l+m+m+m+m+n+o+p+q+r+s+g+t+t+",
"u+u+u+u+u+u+u+u+u+u+u+u+u+u+u+u+u+u+u+",
"v+v+v+v+v+v+v+v+v+v+v+v+v+v+v+v+v+v+v+",
"w+x+y+z+A+B+C+D+D+C+B+E+F+G+H+I+J+, , ",
"K+L+M+N+O+P+Q+R+R+R+S+T+U+!.V+W+X+} } ",
"Y+Z+`+ @.@+@@@@@@@@@#@$@%@&@*@=@-@c c ",
";@>@,@'@)@!@~@{@{@{@~@)@]@^@/@(@_@r r ",
":@<@[@}@|@1@2@3@4@3@2@5@6@7@8@9@0@H H ",
"a@b@c@d@e@f@g@h@h@i@j@k@l@m@n@o@p@V V ",
"q@r@s@t@u@i@v@v@v@v@w@j@x@y@z@A@B@#.#.",
"C@D@E@F@G@H@v@I@I@I@v@h@J@K@L@M@N@~.~.",
"O@P@Q@R@S@T@I@U@V@W@v@X@Y@Z@`@ #.#5.5.",
"+#@###$#%#T@I@U@&#*#v@X@=#-#;#>#,#h.h.",
"+#'#g.)#!#H@I@I@I@I@v@h@~#{#]#^#/#u.u.",
"(#_#:#<#[#h@}#|#1#T@X@j@2#3#]#^#4#J.J.",
"+#5#6#7#8#9#0#a#a#a#b#c#d#e#f#g#,#Z.Z.",
"h#i#j#k#l#m#a#n#o#n#p#q#r#7#s#t#u#)+)+",
"v#+#w#x#m#n#o#y#y#z#A#p#B#C#D#,#E#3+3+",
"F#G#H#w#I#J#K#K#K#K#L#M#N#^#v#h#O#f+f+",
"P#Q#R#S#T#U#V#W#X#W#Y#Z#`# $.$+$P#t+t+",
"u+u+u+u+u+u+u+u+u+u+u+u+u+u+u+u+u+u+u+",
"v+v+v+v+v+v+v+v+v+v+v+v+v+v+v+v+v+v+v+"};
