/* XPM */
static char * rollupO_xpm[] = {
"19 38 477 2",
"  	c #AF819B",
". 	c #B589A2",
"+ 	c #88506E",
"@ 	c #A06B88",
"# 	c #A26B8A",
"$ 	c #A36C8B",
"% 	c #A46D8C",
"& 	c #A56D8D",
"* 	c #A56E8D",
"= 	c #A06A88",
"- 	c #87506D",
"; 	c #B588A1",
"> 	c #AF809A",
", 	c #AD7E98",
"' 	c #B387A0",
") 	c #854E6C",
"! 	c #7F4866",
"~ 	c #9B6283",
"{ 	c #9D6484",
"] 	c #9F6586",
"^ 	c #A06687",
"/ 	c #A06787",
"( 	c #9F6686",
"_ 	c #9E6585",
": 	c #7E4765",
"< 	c #844E6B",
"[ 	c #B2869F",
"} 	c #AB7C96",
"| 	c #814C69",
"1 	c #7D4664",
"2 	c #9A6081",
"3 	c #D0B6C5",
"4 	c #C6A5B8",
"5 	c #C7A6B9",
"6 	c #C8A7BA",
"7 	c #C9A8BB",
"8 	c #C7A4B8",
"9 	c #D0B5C5",
"0 	c #995F80",
"a 	c #7C4563",
"b 	c #804B68",
"c 	c #A97994",
"d 	c #834E6B",
"e 	c #965D7E",
"f 	c #B3859F",
"g 	c #BA78A1",
"h 	c #BC7AA2",
"i 	c #BD7CA4",
"j 	c #BF7DA5",
"k 	c #BF7EA6",
"l 	c #C07EA6",
"m 	c #BE7DA5",
"n 	c #BD7BA3",
"o 	c #B2849E",
"p 	c #955D7D",
"q 	c #824D6A",
"r 	c #A67792",
"s 	c #824C69",
"t 	c #965C7C",
"u 	c #C5A0B6",
"v 	c #C07FA7",
"w 	c #754A64",
"x 	c #774B66",
"y 	c #794C67",
"z 	c #7A4D68",
"A 	c #794D67",
"B 	c #784C67",
"C 	c #C07DA7",
"D 	c #B486A0",
"E 	c #945B7B",
"F 	c #814B68",
"G 	c #A4748F",
"H 	c #7E4A68",
"I 	c #945C7C",
"J 	c #C4A0B5",
"K 	c #C686AE",
"L 	c #F9F9F9",
"M 	c #F8F8F8",
"N 	c #C585AD",
"O 	c #935B7B",
"P 	c #7D4A67",
"Q 	c #A1728D",
"R 	c #7F4B67",
"S 	c #C98EB3",
"T 	c #FAFAFA",
"U 	c #C98DB2",
"V 	c #925A7A",
"W 	c #7D4A66",
"X 	c #9F708B",
"Y 	c #7C4865",
"Z 	c #915879",
"` 	c #C39DB4",
" .	c #CE94B9",
"..	c #7C4E6A",
"+.	c #7F506D",
"@.	c #81526F",
"#.	c #835370",
"$.	c #845471",
"%.	c #80516E",
"&.	c #7D506B",
"*.	c #7B4E69",
"=.	c #CE93B8",
"-.	c #B2839D",
";.	c #905778",
">.	c #7A4764",
",.	c #9C6D88",
"'.	c #976281",
").	c #905677",
"!.	c #C39DB3",
"~.	c #C07CA6",
"{.	c #C280A9",
"].	c #C683AC",
"^.	c #C986AF",
"/.	c #CB87B2",
"(.	c #CD89B3",
"_.	c #CB87B1",
":.	c #C885AE",
"<.	c #C582AB",
"[.	c #C27EA7",
"}.	c #BF7BA4",
"|.	c #B2819C",
"1.	c #8E5575",
"2.	c #96627F",
"3.	c #9A6B86",
"4.	c #94607F",
"5.	c #8D5575",
"6.	c #C39AB1",
"7.	c #BD79A3",
"8.	c #C17CA7",
"9.	c #C480AA",
"0.	c #C683AD",
"a.	c #CA85B0",
"b.	c #CC87B2",
"c.	c #C984AF",
"d.	c #C681AC",
"e.	c #C37EA9",
"f.	c #BF7BA5",
"g.	c #BD78A2",
"h.	c #AF809B",
"i.	c #8C5474",
"j.	c #935F7D",
"k.	c #986984",
"l.	c #945E7E",
"m.	c #8D5474",
"n.	c #C198B1",
"o.	c #BA759F",
"p.	c #BE78A3",
"q.	c #C17BA6",
"r.	c #C47EA9",
"s.	c #C680AB",
"t.	c #C57FAA",
"u.	c #C37DA8",
"v.	c #C07AA5",
"w.	c #BC77A1",
"x.	c #B9749E",
"y.	c #AD809A",
"z.	c #8C5373",
"A.	c #935D7D",
"B.	c #986884",
"C.	c #935D7C",
"D.	c #8C5273",
"E.	c #C096AF",
"F.	c #B76F9C",
"G.	c #BA729F",
"H.	c #BD75A2",
"I.	c #BF76A3",
"J.	c #C178A5",
"K.	c #BC73A0",
"L.	c #B9719E",
"M.	c #B66E9A",
"N.	c #AC7E98",
"O.	c #8A5171",
"P.	c #915C7A",
"Q.	c #976783",
"R.	c #915B7A",
"S.	c #895071",
"T.	c #BE94AD",
"U.	c #B36A97",
"V.	c #B66D9A",
"W.	c #B86F9C",
"X.	c #BA709E",
"Y.	c #BC72A0",
"Z.	c #BB719F",
"`.	c #B76E9C",
" +	c #B56C99",
".+	c #B26A96",
"++	c #AA7C97",
"@+	c #874F70",
"#+	c #905A79",
"$+	c #976682",
"%+	c #8F5979",
"&+	c #874D70",
"*+	c #CAA4BB",
"=+	c #AE6591",
"-+	c #B06694",
";+	c #B26796",
">+	c #B46998",
",+	c #B56A99",
"'+	c #B56998",
")+	c #B36897",
"!+	c #B16795",
"~+	c #AF6593",
"{+	c #AD6490",
"]+	c #A87593",
"^+	c #864D6F",
"/+	c #8E5878",
"(+	c #966582",
"_+	c #8A5574",
":+	c #874E6F",
"<+	c #A35A87",
"[+	c #A95F8C",
"}+	c #AB608E",
"|+	c #AD6190",
"1+	c #AD6290",
"2+	c #AE6291",
"3+	c #AB618F",
"4+	c #AA608D",
"5+	c #A85E8B",
"6+	c #A35A86",
"7+	c #864D6E",
"8+	c #8F5978",
"9+	c #895573",
"0+	c #966581",
"a+	c #A3728F",
"b+	c #8A5575",
"c+	c #864E6F",
"d+	c #884F71",
"e+	c #8A5072",
"f+	c #8B5173",
"g+	c #8C5174",
"h+	c #8C5274",
"i+	c #895072",
"j+	c #854D6E",
"k+	c #895474",
"l+	c #A2718E",
"m+	c #956481",
"n+	c #9C778D",
"o+	c #A58297",
"p+	c #8E637D",
"q+	c #916882",
"r+	c #936983",
"s+	c #956C85",
"t+	c #966C86",
"u+	c #956B85",
"v+	c #946B84",
"w+	c #936A83",
"x+	c #916881",
"y+	c #8D637C",
"z+	c #A48196",
"A+	c #987389",
"B+	c #7E6674",
"C+	c #30252B",
"D+	c #AB7B96",
"E+	c #A67490",
"F+	c #6E3F57",
"G+	c #85526E",
"H+	c #83516C",
"I+	c #82506B",
"J+	c #814F6A",
"K+	c #804E69",
"L+	c #834F6C",
"M+	c #84516D",
"N+	c #86536F",
"O+	c #6F3F58",
"P+	c #A77591",
"Q+	c #AC7C97",
"R+	c #A3728E",
"S+	c #693C54",
"T+	c #5F354B",
"U+	c #794663",
"V+	c #774561",
"W+	c #76445F",
"X+	c #75435E",
"Y+	c #74425E",
"Z+	c #76435F",
"`+	c #774460",
" @	c #784662",
".@	c #60364C",
"+@	c #6B3D56",
"@@	c #A4738F",
"#@	c #663A51",
"$@	c #5C3349",
"%@	c #76435E",
"&@	c #BC8FA8",
"*@	c #AA7894",
"=@	c #A97793",
"-@	c #A87592",
";@	c #A97693",
">@	c #AA7794",
",@	c #AB7995",
"'@	c #BD90A9",
")@	c #774560",
"!@	c #5E344A",
"~@	c #683B53",
"{@	c #63384F",
"]@	c #72425C",
"^@	c #905E79",
"/@	c #934F78",
"(@	c #904D75",
"_@	c #8F4C74",
":@	c #8E4B73",
"<@	c #8D4A72",
"[@	c #914E76",
"}@	c #945079",
"|@	c #915F7A",
"1@	c #73435D",
"2@	c #643A51",
"3@	c #5E354A",
"4@	c #6C3E56",
"5@	c #A6718F",
"6@	c #95507A",
"7@	c #3C2734",
"8@	c #3A2632",
"9@	c #392531",
"0@	c #382530",
"a@	c #37242F",
"b@	c #3C2733",
"c@	c #3F2935",
"d@	c #96517B",
"e@	c #8F5C78",
"f@	c #6D3E57",
"g@	c #5F364B",
"h@	c #573347",
"i@	c #663B52",
"j@	c #9F6D89",
"k@	c #99517D",
"l@	c #3B2632",
"m@	c #EDEDED",
"n@	c #ECECEC",
"o@	c #9A537E",
"p@	c #8A5873",
"q@	c #673C54",
"r@	c #593448",
"s@	c #543143",
"t@	c #62384F",
"u@	c #9C6A87",
"v@	c #9C5480",
"w@	c #EBEBEB",
"x@	c #9E5682",
"y@	c #86546F",
"z@	c #653951",
"A@	c #563245",
"B@	c #502E3F",
"C@	c #5E354B",
"D@	c #996482",
"E@	c #A15784",
"F@	c #36242E",
"G@	c #32212B",
"H@	c #301F29",
"I@	c #2E1E27",
"J@	c #2D1E26",
"K@	c #2F1E28",
"L@	c #31212A",
"M@	c #34222D",
"N@	c #A25986",
"O@	c #81516B",
"P@	c #60364D",
"Q@	c #522F41",
"R@	c #6B4057",
"S@	c #5A3348",
"T@	c #966380",
"U@	c #86446B",
"V@	c #824068",
"W@	c #7F3D64",
"X@	c #7C3A61",
"Y@	c #79385E",
"Z@	c #78375E",
"`@	c #7B3A60",
" #	c #7D3C62",
".#	c #813F66",
"+#	c #84426A",
"@#	c #87456D",
"##	c #7E4E68",
"$#	c #5D344A",
"%#	c #6D4259",
"&#	c #683E55",
"*#	c #573246",
"=#	c #95617E",
"-#	c #814167",
";#	c #7E3E64",
">#	c #7A3B61",
",#	c #77385E",
"'#	c #74365B",
")#	c #723459",
"!#	c #75375C",
"~#	c #793960",
"{#	c #7C3D63",
"]#	c #803F66",
"^#	c #834269",
"/#	c #7B4D66",
"(#	c #593348",
"_#	c #6A3F57",
":#	c #583147",
"<#	c #7E3F64",
"[#	c #7B3D61",
"}#	c #78395E",
"|#	c #75385B",
"1#	c #723559",
"2#	c #74375A",
"3#	c #76385C",
"4#	c #793B60",
"5#	c #7D3E63",
"6#	c #804066",
"7#	c #7B4E67",
"8#	c #5A3349",
"9#	c #693E57",
"0#	c #673E55",
"a#	c #593247",
"b#	c #94607D",
"c#	c #7C3E62",
"d#	c #793B5F",
"e#	c #723659",
"f#	c #73375A",
"g#	c #783A5E",
"h#	c #7A3C61",
"i#	c #7D3F64",
"j#	c #6A3F56",
"k#	c #593147",
"l#	c #94617F",
"m#	c #7A3D61",
"n#	c #773A5E",
"o#	c #75385C",
"p#	c #74385B",
"q#	c #76395D",
"r#	c #793C60",
"s#	c #7C3E63",
"t#	c #7C4E68",
"u#	c #5B3349",
"v#	c #693D57",
"w#	c #5A3249",
"x#	c #AB7495",
"y#	c #783C5F",
"z#	c #763A5D",
"A#	c #73385B",
"B#	c #713659",
"C#	c #703558",
"D#	c #72375A",
"E#	c #75395C",
"F#	c #773B5E",
"G#	c #7C4D68",
"H#	c #5C334B",
"I#	c #6B3F59",
"J#	c #683D56",
"K#	c #593248",
"L#	c #72385A",
"M#	c #6F3557",
"N#	c #6F3558",
"O#	c #703659",
"P#	c #74395C",
"Q#	c #73395B",
"R#	c #5B3249",
"S#	c #6A3F58",
"T#	c #895775",
"U#	c #683C56",
"V#	c #673C55",
"W#	c #563046",
"X#	c #552F44",
"Y#	c #532E43",
"Z#	c #542F44",
"`#	c #563045",
" $	c #573147",
".$	c #8A5976",
"+$	c #946F85",
"@$	c #8B677D",
"#$	c #6C485D",
"$$	c #6C485E",
"%$	c #6A475C",
"&$	c #69455A",
"*$	c #684459",
"=$	c #674459",
"-$	c #674358",
";$	c #68455A",
">$	c #69465B",
",$	c #6B485D",
"'$	c #6D495F",
")$	c #6D485E",
"!$	c #8D687E",
"  . + @ # $ % & * & % $ # = - ; > , , ",
"' ) ! ~ { ] ^ ^ / ^ ( _ { ~ : < [ } } ",
"| 1 2 3 4 5 6 7 7 7 6 5 8 9 0 a b c c ",
"d e f g h i j k l k m n h g o p q r r ",
"s t u v w x y z z A B x w C D E F G G ",
"H I J K B L L L L L L M x N f O P Q Q ",
"R O J S z L T T T T T L A U f V W X X ",
"Y Z `  ...+.@.#.$.#.%.&.*.=.-.;.>.,.,.",
"'.).!.~.{.].^./.(._.:.<.[.}.|.1.2.3.3.",
"4.5.6.7.8.9.0.a.b.c.d.e.f.g.h.i.j.k.k.",
"l.m.n.o.p.q.r.s.d.t.u.v.w.x.y.z.A.B.B.",
"C.D.E.F.G.H.I.J.J.J.I.K.L.M.N.O.P.Q.Q.",
"R.S.T.U.V.W.X.Y.Y.Z.X.`. +.+++@+#+$+$+",
"%+&+*+=+-+;+>+,+,+'+)+!+~+{+]+^+/+(+(+",
"_+#+:+<+[+}+|+1+2+1+3+4+5+6+7+8+9+0+0+",
"a+b+%+c+d+e+f+g+h+g+f+i+d+j+/+k+l+m+m+",
"n+o+p+q+r+s+t+t+t+t+u+v+w+x+y+z+n+A+A+",
"B+B+B+B+B+B+B+B+B+B+B+B+B+B+B+B+B+B+B+",
"C+C+C+C+C+C+C+C+C+C+C+C+C+C+C+C+C+C+C+",
"D+E+F+G+H+I+J+K+K+J+I+L+M+N+O+P+Q+, , ",
"R+S+T+U+V+W+X+Y+Y+Y+Z+`+ @>..@+@@@} } ",
"#@$@%@&@*@=@-@-@-@-@;@>@,@'@)@!@~@c c ",
"{@]@^@/@(@_@:@<@<@<@:@(@[@}@|@1@2@r r ",
"3@4@5@6@7@8@9@0@a@0@9@b@c@d@e@f@g@G G ",
"h@i@j@k@l@m@n@n@n@n@n@m@b@o@p@q@r@Q Q ",
"s@t@u@v@a@n@w@w@w@w@n@n@9@x@y@z@A@X X ",
"B@C@D@E@F@G@H@I@J@K@L@M@a@N@O@P@Q@,.,.",
"R@S@T@U@V@W@X@Y@Z@`@ #.#+#@###$#%#3.3.",
"&#*#=#-#;#>#,#'#)#!#~#{#]#^#/#(#_#k.k.",
"&#:#j.<#[#}#|#1#1#2#3#4#5#6#7#8#9#B.B.",
"0#a#b#c#d#3#2#e#e#f#|#g#h#i#7#8#j#Q.Q.",
"&#k#l#m#n#o#f#e#e#e#p#q#r#s#t#u#_#$+$+",
"v#w#x#y#z#A#e#B#C#B#D#E#F#m#G#H#I#(+(+",
"J#&#K#L#A#B#C#M#M#N#O#D#P#Q#R#_#S#0+0+",
"T#U#V#K#W#X#Y#Y#Y#Y#Z#`# $8#J#v#.$m+m+",
"+$@$#$$$%$&$*$=$-$=$;$>$,$'$)$!$+$A+A+",
"B+B+B+B+B+B+B+B+B+B+B+B+B+B+B+B+B+B+B+",
"C+C+C+C+C+C+C+C+C+C+C+C+C+C+C+C+C+C+C+"};
