/* XPM */
static char * rolldownO_xpm[] = {
"19 38 407 2",
"  	c #AF819B",
". 	c #B589A2",
"+ 	c #88506E",
"@ 	c #A06B88",
"# 	c #A26B8A",
"$ 	c #A36C8B",
"% 	c #A46D8C",
"& 	c #A56D8D",
"* 	c #A56E8D",
"= 	c #A06A88",
"- 	c #87506D",
"; 	c #B588A1",
"> 	c #AF809A",
", 	c #AD7E98",
"' 	c #B387A0",
") 	c #854E6C",
"! 	c #7F4866",
"~ 	c #9B6283",
"{ 	c #9D6484",
"] 	c #9F6586",
"^ 	c #A06687",
"/ 	c #A06787",
"( 	c #9F6686",
"_ 	c #9E6585",
": 	c #7E4765",
"< 	c #844E6B",
"[ 	c #B2869F",
"} 	c #AB7C96",
"| 	c #814C69",
"1 	c #7D4664",
"2 	c #9A6081",
"3 	c #D0B6C5",
"4 	c #C6A5B8",
"5 	c #C7A6B9",
"6 	c #C8A7BA",
"7 	c #C9A8BB",
"8 	c #C7A4B8",
"9 	c #D0B5C5",
"0 	c #995F80",
"a 	c #7C4563",
"b 	c #804B68",
"c 	c #A97994",
"d 	c #834E6B",
"e 	c #965D7E",
"f 	c #B3859F",
"g 	c #BA78A1",
"h 	c #BC7AA2",
"i 	c #BD7CA4",
"j 	c #BF7DA5",
"k 	c #BF7EA6",
"l 	c #C07EA6",
"m 	c #BE7DA5",
"n 	c #BD7BA3",
"o 	c #B2849E",
"p 	c #955D7D",
"q 	c #824D6A",
"r 	c #A67792",
"s 	c #824C69",
"t 	c #965C7C",
"u 	c #C5A0B6",
"v 	c #C07FA7",
"w 	c #C281A9",
"x 	c #774B66",
"y 	c #794C67",
"z 	c #7A4D68",
"A 	c #794D67",
"B 	c #784C67",
"C 	c #C180A9",
"D 	c #C07DA7",
"E 	c #B486A0",
"F 	c #945B7B",
"G 	c #814B68",
"H 	c #A4748F",
"I 	c #7E4A68",
"J 	c #945C7C",
"K 	c #C4A0B5",
"L 	c #C686AE",
"M 	c #F9F9F9",
"N 	c #F8F8F8",
"O 	c #C585AD",
"P 	c #935B7B",
"Q 	c #7D4A67",
"R 	c #A1728D",
"S 	c #7F4B67",
"T 	c #C98EB3",
"U 	c #FAFAFA",
"V 	c #C98DB2",
"W 	c #925A7A",
"X 	c #7D4A66",
"Y 	c #9F708B",
"Z 	c #7C4865",
"` 	c #915879",
" .	c #C39DB4",
"..	c #CE94B9",
"+.	c #7C4E6A",
"@.	c #7B4E69",
"#.	c #CE93B8",
"$.	c #B2839D",
"%.	c #905778",
"&.	c #7A4764",
"*.	c #9C6D88",
"=.	c #976281",
"-.	c #905677",
";.	c #C39DB3",
">.	c #C07CA6",
",.	c #7D4F6B",
"'.	c #FBFBFB",
").	c #BF7BA4",
"!.	c #B2819C",
"~.	c #8E5575",
"{.	c #96627F",
"].	c #9A6B86",
"^.	c #94607F",
"/.	c #8D5575",
"(.	c #C39AB1",
"_.	c #BD79A3",
":.	c #7C4F6A",
"<.	c #BD78A2",
"[.	c #AF809B",
"}.	c #8C5474",
"|.	c #935F7D",
"1.	c #986984",
"2.	c #945E7E",
"3.	c #8D5474",
"4.	c #C198B1",
"5.	c #BA759F",
"6.	c #B9749E",
"7.	c #AD809A",
"8.	c #8C5373",
"9.	c #935D7D",
"0.	c #986884",
"a.	c #935D7C",
"b.	c #8C5273",
"c.	c #C096AF",
"d.	c #B76F9C",
"e.	c #B66E9A",
"f.	c #AC7E98",
"g.	c #8A5171",
"h.	c #915C7A",
"i.	c #976783",
"j.	c #915B7A",
"k.	c #895071",
"l.	c #BE94AD",
"m.	c #B36A97",
"n.	c #B66D9A",
"o.	c #7D506B",
"p.	c #7F516D",
"q.	c #7F506C",
"r.	c #B56C99",
"s.	c #B26A96",
"t.	c #AA7C97",
"u.	c #874F70",
"v.	c #905A79",
"w.	c #976682",
"x.	c #8F5979",
"y.	c #874D70",
"z.	c #CAA4BB",
"A.	c #AE6591",
"B.	c #B06694",
"C.	c #B26796",
"D.	c #B46998",
"E.	c #B56A99",
"F.	c #B56998",
"G.	c #B36897",
"H.	c #B16795",
"I.	c #AF6593",
"J.	c #AD6490",
"K.	c #A87593",
"L.	c #864D6F",
"M.	c #8E5878",
"N.	c #966582",
"O.	c #8A5574",
"P.	c #874E6F",
"Q.	c #A35A87",
"R.	c #A95F8C",
"S.	c #AB608E",
"T.	c #AD6190",
"U.	c #AD6290",
"V.	c #AE6291",
"W.	c #AB618F",
"X.	c #AA608D",
"Y.	c #A85E8B",
"Z.	c #A35A86",
"`.	c #864D6E",
" +	c #8F5978",
".+	c #895573",
"++	c #966581",
"@+	c #A3728F",
"#+	c #8A5575",
"$+	c #864E6F",
"%+	c #884F71",
"&+	c #8A5072",
"*+	c #8B5173",
"=+	c #8C5174",
"-+	c #8C5274",
";+	c #895072",
">+	c #854D6E",
",+	c #895474",
"'+	c #A2718E",
")+	c #956481",
"!+	c #9C778D",
"~+	c #A58297",
"{+	c #8E637D",
"]+	c #916882",
"^+	c #936983",
"/+	c #956C85",
"(+	c #966C86",
"_+	c #956B85",
":+	c #946B84",
"<+	c #936A83",
"[+	c #916881",
"}+	c #8D637C",
"|+	c #A48196",
"1+	c #987389",
"2+	c #7E6674",
"3+	c #30252B",
"4+	c #AB7B96",
"5+	c #A67490",
"6+	c #6E3F57",
"7+	c #85526E",
"8+	c #83516C",
"9+	c #82506B",
"0+	c #814F6A",
"a+	c #804E69",
"b+	c #834F6C",
"c+	c #84516D",
"d+	c #86536F",
"e+	c #6F3F58",
"f+	c #A77591",
"g+	c #AC7C97",
"h+	c #A3728E",
"i+	c #693C54",
"j+	c #5F354B",
"k+	c #794663",
"l+	c #774561",
"m+	c #76445F",
"n+	c #75435E",
"o+	c #74425E",
"p+	c #76435F",
"q+	c #774460",
"r+	c #784662",
"s+	c #60364C",
"t+	c #6B3D56",
"u+	c #A4738F",
"v+	c #663A51",
"w+	c #5C3349",
"x+	c #76435E",
"y+	c #BC8FA8",
"z+	c #AA7894",
"A+	c #A97793",
"B+	c #A87592",
"C+	c #A97693",
"D+	c #AA7794",
"E+	c #AB7995",
"F+	c #BD90A9",
"G+	c #774560",
"H+	c #5E344A",
"I+	c #683B53",
"J+	c #63384F",
"K+	c #72425C",
"L+	c #905E79",
"M+	c #934F78",
"N+	c #904D75",
"O+	c #8F4C74",
"P+	c #8E4B73",
"Q+	c #8D4A72",
"R+	c #914E76",
"S+	c #945079",
"T+	c #915F7A",
"U+	c #73435D",
"V+	c #643A51",
"W+	c #5E354A",
"X+	c #6C3E56",
"Y+	c #A6718F",
"Z+	c #95507A",
"`+	c #934E78",
" @	c #3A2632",
".@	c #392531",
"+@	c #382530",
"@@	c #37242F",
"#@	c #3C2733",
"$@	c #944F79",
"%@	c #96517B",
"&@	c #8F5C78",
"*@	c #6D3E57",
"=@	c #5F364B",
"-@	c #573347",
";@	c #663B52",
">@	c #9F6D89",
",@	c #99517D",
"'@	c #3B2632",
")@	c #EDEDED",
"!@	c #ECECEC",
"~@	c #9A537E",
"{@	c #8A5873",
"]@	c #673C54",
"^@	c #593448",
"/@	c #543143",
"(@	c #62384F",
"_@	c #9C6A87",
":@	c #9C5480",
"<@	c #EBEBEB",
"[@	c #9E5682",
"}@	c #86546F",
"|@	c #653951",
"1@	c #563245",
"2@	c #502E3F",
"3@	c #5E354B",
"4@	c #996482",
"5@	c #A15784",
"6@	c #36242E",
"7@	c #EAEAEA",
"8@	c #A25986",
"9@	c #81516B",
"0@	c #60364D",
"a@	c #522F41",
"b@	c #6B4057",
"c@	c #5A3348",
"d@	c #966380",
"e@	c #86446B",
"f@	c #35232D",
"g@	c #37232F",
"h@	c #87456D",
"i@	c #7E4E68",
"j@	c #5D344A",
"k@	c #6D4259",
"l@	c #683E55",
"m@	c #573246",
"n@	c #95617E",
"o@	c #814167",
"p@	c #34222D",
"q@	c #834269",
"r@	c #7B4D66",
"s@	c #593348",
"t@	c #6A3F57",
"u@	c #583147",
"v@	c #7E3F64",
"w@	c #35232E",
"x@	c #804066",
"y@	c #7B4E67",
"z@	c #5A3349",
"A@	c #693E57",
"B@	c #673E55",
"C@	c #593247",
"D@	c #94607D",
"E@	c #7C3E62",
"F@	c #7D3F64",
"G@	c #6A3F56",
"H@	c #593147",
"I@	c #94617F",
"J@	c #7A3D61",
"K@	c #773A5E",
"L@	c #33222C",
"M@	c #793C60",
"N@	c #7C3E63",
"O@	c #7C4E68",
"P@	c #5B3349",
"Q@	c #693D57",
"R@	c #5A3249",
"S@	c #AB7495",
"T@	c #783C5F",
"U@	c #763A5D",
"V@	c #73385B",
"W@	c #723659",
"X@	c #713659",
"Y@	c #703558",
"Z@	c #72375A",
"`@	c #75395C",
" #	c #773B5E",
".#	c #7C4D68",
"+#	c #5C334B",
"@#	c #6B3F59",
"##	c #683D56",
"$#	c #593248",
"%#	c #72385A",
"&#	c #6F3557",
"*#	c #6F3558",
"=#	c #703659",
"-#	c #74395C",
";#	c #73395B",
">#	c #5B3249",
",#	c #6A3F58",
"'#	c #895775",
")#	c #683C56",
"!#	c #673C55",
"~#	c #563046",
"{#	c #552F44",
"]#	c #532E43",
"^#	c #542F44",
"/#	c #563045",
"(#	c #573147",
"_#	c #8A5976",
":#	c #946F85",
"<#	c #8B677D",
"[#	c #6C485D",
"}#	c #6C485E",
"|#	c #6A475C",
"1#	c #69455A",
"2#	c #684459",
"3#	c #674459",
"4#	c #674358",
"5#	c #68455A",
"6#	c #69465B",
"7#	c #6B485D",
"8#	c #6D495F",
"9#	c #6D485E",
"0#	c #8D687E",
"  . + @ # $ % & * & % $ # = - ; > , , ",
"' ) ! ~ { ] ^ ^ / ^ ( _ { ~ : < [ } } ",
"| 1 2 3 4 5 6 7 7 7 6 5 8 9 0 a b c c ",
"d e f g h i j k l k m n h g o p q r r ",
"s t u v w x y z z A B x C D E F G H H ",
"I J K L B M M M M M M N x O f P Q R R ",
"S P K T z M U U U U U M A V f W X Y Y ",
"Z `  ...+.U U U U U U M @.#.$.%.&.*.*.",
"=.-.;.>.,.U U '.'.U U U @.).!.~.{.].].",
"^./.(._.,.U U '.'.'.U U :.<.[.}.|.1.1.",
"2.3.4.5.,.U U U '.U U U @.6.7.8.9.0.0.",
"a.b.c.d.@.U U U U U U M z e.f.g.h.i.i.",
"j.k.l.m.n.+.o.p.p.q.,.@.r.s.t.u.v.w.w.",
"x.y.z.A.B.C.D.E.E.F.G.H.I.J.K.L.M.N.N.",
"O.v.P.Q.R.S.T.U.V.U.W.X.Y.Z.`. +.+++++",
"@+#+x.$+%+&+*+=+-+=+*+;+%+>+M.,+'+)+)+",
"!+~+{+]+^+/+(+(+(+(+_+:+<+[+}+|+!+1+1+",
"2+2+2+2+2+2+2+2+2+2+2+2+2+2+2+2+2+2+2+",
"3+3+3+3+3+3+3+3+3+3+3+3+3+3+3+3+3+3+3+",
"4+5+6+7+8+9+0+a+a+0+9+b+c+d+e+f+g+, , ",
"h+i+j+k+l+m+n+o+o+o+p+q+r+&.s+t+u+} } ",
"v+w+x+y+z+A+B+B+B+B+C+D+E+F+G+H+I+c c ",
"J+K+L+M+N+O+P+Q+Q+Q+P+N+R+S+T+U+V+r r ",
"W+X+Y+Z+`+ @.@+@@@+@.@#@$@%@&@*@=@H H ",
"-@;@>@,@'@)@!@!@!@!@!@)@#@~@{@]@^@R R ",
"/@(@_@:@@@!@<@<@<@<@!@!@.@[@}@|@1@Y Y ",
"2@3@4@5@6@<@<@7@7@7@<@!@@@8@9@0@a@*.*.",
"b@c@d@e@f@<@7@7@7@7@<@!@g@h@i@j@k@].].",
"l@m@n@o@p@<@7@7@7@7@<@<@6@q@r@s@t@1.1.",
"l@u@|.v@w@<@7@7@7@7@<@!@@@x@y@z@A@0.0.",
"B@C@D@E@@@!@<@<@<@<@<@!@+@F@y@z@G@i.i.",
"l@H@I@J@K@g@p@L@L@p@6@+@M@N@O@P@t@w.w.",
"Q@R@S@T@U@V@W@X@Y@X@Z@`@ #J@.#+#@#N.N.",
"##l@$#%#V@X@Y@&#&#*#=#Z@-#;#>#t@,#++++",
"'#)#!#$#~#{#]#]#]#]#^#/#(#z@##Q@_#)+)+",
":#<#[#}#|#1#2#3#4#3#5#6#7#8#9#0#:#1+1+",
"2+2+2+2+2+2+2+2+2+2+2+2+2+2+2+2+2+2+2+",
"3+3+3+3+3+3+3+3+3+3+3+3+3+3+3+3+3+3+3+"};
