/* XPM */
static char * close_pressed_xpm[] = {
"20 24 180 2",
"  	c #75507B",
". 	c #C292BD",
"+ 	c #C293BD",
"@ 	c #C292BE",
"# 	c #C393BE",
"$ 	c #BF8FBA",
"% 	c #BE8FBA",
"& 	c #BE90BA",
"* 	c #BE8FB9",
"= 	c #C090BB",
"- 	c #BF90BA",
"; 	c #BF90BB",
"> 	c #C08FBB",
", 	c #C090BA",
"' 	c #BB8CB6",
") 	c #BC8CB7",
"! 	c #BD8CB8",
"~ 	c #BC8DB8",
"{ 	c #B889B3",
"] 	c #7B5580",
"^ 	c #7B5480",
"/ 	c #7A5580",
"( 	c #7A5480",
"_ 	c #B989B4",
": 	c #B98AB4",
"< 	c #B586B0",
"[ 	c #7D5782",
"} 	c #7E5882",
"| 	c #7E5782",
"1 	c #7E5883",
"2 	c #7D5783",
"3 	c #7D5882",
"4 	c #7D5883",
"5 	c #7E5783",
"6 	c #B686B0",
"7 	c #B283AD",
"8 	c #805A84",
"9 	c #805A85",
"0 	c #815A85",
"a 	c #805984",
"b 	c #815A84",
"c 	c #805985",
"d 	c #B284AD",
"e 	c #AE7FA9",
"f 	c #835C87",
"g 	c #94678F",
"h 	c #936A92",
"i 	c #8D638C",
"j 	c #916B94",
"k 	c #916D95",
"l 	c #97769C",
"m 	c #835C88",
"n 	c #AF80AA",
"o 	c #AB7DA6",
"p 	c #875F8A",
"q 	c #865F89",
"r 	c #865F8A",
"s 	c #AFB0CA",
"t 	c #BAB9CF",
"u 	c #906C95",
"v 	c #926B94",
"w 	c #B2A9C2",
"x 	c #997296",
"y 	c #936991",
"z 	c #865E8A",
"A 	c #AC7DA7",
"B 	c #A779A3",
"C 	c #89618C",
"D 	c #89628C",
"E 	c #B1A9C2",
"F 	c #D1D3E2",
"G 	c #B8B4CB",
"H 	c #E1EAF6",
"I 	c #A894B1",
"J 	c #A97AA3",
"K 	c #A5769F",
"L 	c #8B648F",
"M 	c #8C638F",
"N 	c #8B648E",
"O 	c #C2C6DA",
"P 	c #B8B5CB",
"Q 	c #B9B8CE",
"R 	c #906D96",
"S 	c #8C648F",
"T 	c #A577A0",
"U 	c #A1739C",
"V 	c #8E6791",
"W 	c #8F6791",
"X 	c #8F6691",
"Y 	c #8F6E97",
"Z 	c #BEC0D4",
"` 	c #C2C7DA",
" .	c #906E97",
"..	c #8E6691",
"+.	c #8E6690",
"@.	c #A2749E",
"#.	c #9D7099",
"$.	c #926993",
"%.	c #916994",
"&.	c #926994",
"*.	c #926893",
"=.	c #906E98",
"-.	c #916993",
";.	c #9F7199",
">.	c #9A6C96",
",.	c #946B96",
"'.	c #956B96",
").	c #956B95",
"!.	c #BAB9CE",
"~.	c #B5AEC6",
"{.	c #906B94",
"].	c #946B95",
"^.	c #946C96",
"/.	c #9C6D97",
"(.	c #976992",
"_.	c #986E98",
":.	c #976D98",
"<.	c #AC9FB9",
"[.	c #C4BFD1",
"}.	c #AFA4BE",
"|.	c #976E98",
"1.	c #976A93",
"2.	c #94668F",
"3.	c #9A709A",
"4.	c #9A709B",
"5.	c #906991",
"6.	c #A9A1BD",
"7.	c #8F6D97",
"8.	c #926A93",
"9.	c #AEA3BD",
"0.	c #A387A5",
"a.	c #8F7098",
"b.	c #956890",
"c.	c #90638B",
"d.	c #9E749F",
"e.	c #9E749E",
"f.	c #9E739E",
"g.	c #9B77A3",
"h.	c #987CA1",
"i.	c #92658D",
"j.	c #8D6088",
"k.	c #A479A3",
"l.	c #A579A3",
"m.	c #A479A4",
"n.	c #A57AA4",
"o.	c #8E6189",
"p.	c #895D85",
"q.	c #AB7EA8",
"r.	c #AB7FA9",
"s.	c #AB7EA9",
"t.	c #AA7FA9",
"u.	c #AA7EA9",
"v.	c #AA7EA8",
"w.	c #8B5E86",
"x.	c #875A81",
"y.	c #865982",
"z.	c #B184AF",
"A.	c #B184AE",
"B.	c #B284AF",
"C.	c #B185AE",
"D.	c #B185AF",
"E.	c #885A82",
"F.	c #875B83",
"G.	c #83577E",
"H.	c #84577F",
"I.	c #84587F",
"J.	c #80537B",
"K.	c #7F537B",
"L.	c #7F537A",
"M.	c #80537A",
"N.	c #80547C",
"O.	c #80547B",
"P.	c #81537C",
"Q.	c #7C5077",
"R.	c #7C4F77",
"S.	c #7C5078",
"T.	c #7B4F77",
"U.	c #7D5178",
"V.	c #7D5078",
"W.	c #8F638B",
"                                        ",
". . . + . . + . . @ # # # # # # # # # # ",
"$ $ % $ & $ * $ $ = - ; = ; > , = > = , ",
"' ' )                             ) ! ~ ",
"{ {   ] ] ] ^ / ] ] ] / ] ] / / (   _ : ",
"<   [ [ } [ | 1 2 [ 3 4 4 3 } 1 } 5   6 ",
"7   8 8 9 0 9 a 9 b 8 0 9 c 0 0 0 0   d ",
"e   f f f f g g h i f j g k l m f f   n ",
"o   p q r g s t g u v g w x y r q z   A ",
"B   C C D g E F G g g G H I g C C D   J ",
"K   L M N u g O H P P H Q g R L S L   T ",
"U   V W W X Y g Z H H ` g  .V ....+.  @.",
"#.  $.%.&.*.Y g Z H H ` g =.-.*.-.$.  ;.",
">.  ,.'.).R g G H !.!.H ~.g {.].].^.  /.",
"(.  _.:.:.g O H <.g g G [.}.g |.|.|.  1.",
"2.  3.3.4.5.6.w g 7.8.g 9.0.a.4.4.4.  b.",
"c.  d.e.f.g.g g {.f.d.8.g k h.f.e.e.  i.",
"j.  k.k.l.k.m.k.m.l.l.m.m.m.n.m.l.l.  o.",
"p.  q.q.q.r.s.t.t.u.r.r.r.r.r.r.v.r.  w.",
"x.y.  z.A.B.A.C.A.z.D.A.z.A.z.A.A.  E.F.",
"G.G.G.                            H.H.I.",
"J.J.K.J.L.L.J.M.J.L.K.K.J.M.M.N.N.O.P.N.",
"Q.Q.R.Q.S.S.Q.Q.Q.Q.Q.T.R.R.Q.U.U.V.V.U.",
"g g g g g g g W.W.W.g g g g g g g g g g "};
