/* XPM */
static char * close_active_xpm[] = {
"20 24 158 2",
"  	c #75507B",
". 	c #C091BB",
"+ 	c #C090BB",
"@ 	c #C191BC",
"# 	c #C191BB",
"$ 	c #C190BC",
"% 	c #C091BC",
"& 	c #BD8EB9",
"* 	c #BD8EB8",
"= 	c #B082AA",
"- 	c #9A6D95",
"; 	c #94688F",
"> 	c #92668D",
", 	c #93668D",
"' 	c #92668C",
") 	c #AA7CA5",
"! 	c #BE8EB9",
"~ 	c #BF8FB9",
"{ 	c #A679A1",
"] 	c #A5779F",
"^ 	c #BC8DB7",
"/ 	c #A87AA2",
"( 	c #BE8FB9",
"_ 	c #BD8FB9",
": 	c #BD8EBA",
"< 	c #BA8AB5",
"[ 	c #B98BB5",
"} 	c #B98AB5",
"| 	c #996B93",
"1 	c #B587B1",
"2 	c #B687B1",
"3 	c #946991",
"4 	c #94678F",
"5 	c #936C94",
"6 	c #A4769F",
"7 	c #9F719A",
"8 	c #936A92",
"9 	c #926A92",
"0 	c #997A9E",
"a 	c #B182AD",
"b 	c #956890",
"c 	c #B183AD",
"d 	c #B184AD",
"e 	c #B284AE",
"f 	c #A38FAE",
"g 	c #A186A5",
"h 	c #936991",
"i 	c #AA98B4",
"j 	c #A58CA8",
"k 	c #906F97",
"l 	c #B182AC",
"m 	c #B283AD",
"n 	c #986B92",
"o 	c #AE80AA",
"p 	c #AD80A9",
"q 	c #AE80A9",
"r 	c #B0A5BE",
"s 	c #E1EAF6",
"t 	c #A58EAC",
"u 	c #AEA0BA",
"v 	c #AE7FA9",
"w 	c #936D95",
"x 	c #AA98B3",
"y 	c #A692AE",
"z 	c #9D7FA0",
"A 	c #A678A1",
"B 	c #AA7BA6",
"C 	c #9F729A",
"D 	c #A779A3",
"E 	c #A2749E",
"F 	c #936890",
"G 	c #AEA0B9",
"H 	c #B0A6BE",
"I 	c #A3759E",
"J 	c #A97AA4",
"K 	c #B586B0",
"L 	c #A2759E",
"M 	c #A2749D",
"N 	c #926B94",
"O 	c #9B6D96",
"P 	c #AC7DA7",
"Q 	c #BC8CB7",
"R 	c #9E7199",
"S 	c #9F7199",
"T 	c #906E97",
"U 	c #AC9FB8",
"V 	c #AB9EB8",
"W 	c #926B93",
"X 	c #B788B2",
"Y 	c #BB8CB6",
"Z 	c #996C94",
"` 	c #996C95",
" .	c #AFA4BE",
"..	c #C4BFD1",
"+.	c #B8B4CB",
"@.	c #9E81A1",
"#.	c #996D94",
"$.	c #B888B3",
"%.	c #BF8FBA",
"&.	c #95688F",
"*.	c #9C81A2",
"=.	c #B1A8C1",
"-.	c #926A93",
";.	c #916C95",
">.	c #A796B2",
",.	c #AB97B1",
"'.	c #8F7098",
").	c #C393BE",
"!.	c #91648B",
"~.	c #90638B",
"{.	c #90648B",
"].	c #936B93",
"^.	c #92658D",
"/.	c #97769C",
"(.	c #91638B",
"_.	c #8C5F87",
":.	c #8C5F86",
"<.	c #8D6088",
"[.	c #8B5F86",
"}.	c #8C6087",
"|.	c #8C6187",
"1.	c #8C6086",
"2.	c #BB8BB6",
"3.	c #885C82",
"4.	c #885C83",
"5.	c #875B81",
"6.	c #875A82",
"7.	c #885B82",
"8.	c #875B82",
"9.	c #885B81",
"0.	c #AC7EA7",
"a.	c #84587E",
"b.	c #83577E",
"c.	c #83587E",
"d.	c #83567D",
"e.	c #83567C",
"f.	c #83577D",
"g.	c #82567C",
"h.	c #9B6E96",
"i.	c #A3769E",
"j.	c #BD8DB8",
"k.	c #8A5E85",
"l.	c #82567D",
"m.	c #A97CA5",
"n.	c #A1739C",
"o.	c #84577E",
"p.	c #7E5278",
"q.	c #7D5279",
"r.	c #7D5179",
"s.	c #7D5278",
"t.	c #82557D",
"u.	c #895D84",
"v.	c #8D6188",
"w.	c #875C82",
"x.	c #875C83",
"y.	c #845980",
"z.	c #7E527A",
"A.	c #7F537A",
"                                        ",
". . + @ # $ % @ % + $ % + @ % % @ . @ % ",
"& * = - ; > > > , > ' ' > > ' ' ' ) ! ~ ",
"{ ' '                             ' ] ^ ",
"' '   % % % % % % % % % % % % % %   ' / ",
"'   & & & & & ( _ & _ _ ! & & & _ :   - ",
"'   < [ } } } < } } < [ } [ } } [ }   | ",
"'   1 2 2 3 4 4 5 6 7 8 4 9 0 a 2 1   b ",
"'   c d e 4 f g 4 h 3 4 i j k l m c   ' ",
"n   o p q 4 r s g 4 4 t s u 4 v v q   ' ",
")   ) ) ) w 4 r s x y s z 4 8 A B )   C ",
"D   A A A E 4 F G s s H 4 h I A { A   J ",
"K   L M M M 8 F G s s H 4 N O L I L   P ",
"Q   R R S T 4 r s U U s V 4 W S R S   X ",
"Y   Z ` - 4  ...+.4 4 +.s @.4 #.` `   $.",
"%.  &.&.&.4 *.=.4 -.;.4 >.,.'.b b b   ! ",
").  !.~.{.].4 4 N ^.{.N 4 './.~.~.(.  ).",
").  _.:._.<.<.[.}.:.:.|.<.:.:.:.:.1.  ).",
"2.  3.4.5.6.7.6.6.7.7.6.8.5.6.8.8.9.  + ",
"0.).  a.a.b.c.d.d.e.f.g.e.g.e.e.g.  ).h.",
"i.j.).                            ).).k.",
"l.* m.K ).^ ^ ).^ ).).^ ^ ).^ ^ ).( n.o.",
"p.q.r.s.t.u.v.w.x.w.v.y.y.u.v.y.f.z.A.A.",
"4 4 4 4 4 4 4 4 4 4 4 4 4 4 4 4 4 4 4 4 "};
