/* XPM */
static char * hide_pressed_xpm[] = {
"20 24 163 2",
"  	c #75507B",
". 	c #C393BE",
"+ 	c #C090BB",
"@ 	c #C191BC",
"# 	c #C191BB",
"$ 	c #C091BB",
"% 	c #C091BC",
"& 	c #C190BC",
"* 	c #C090BC",
"= 	c #C190BB",
"- 	c #BD8EB9",
"; 	c #BE8EB8",
"> 	c #BD8EB8",
", 	c #BE8FB9",
"' 	c #BF8FB9",
") 	c #BB8CB6",
"! 	c #7A5480",
"~ 	c #7B5580",
"{ 	c #7B5480",
"] 	c #7A5580",
"^ 	c #7A547F",
"/ 	c #7B5680",
"( 	c #7B5581",
"_ 	c #BC8CB7",
": 	c #B989B4",
"< 	c #7E5782",
"[ 	c #7D5782",
"} 	c #7E5783",
"| 	c #7E5882",
"1 	c #7D5883",
"2 	c #7E5883",
"3 	c #B98AB5",
"4 	c #B787B2",
"5 	c #805A84",
"6 	c #805984",
"7 	c #805985",
"8 	c #805A85",
"9 	c #815A85",
"0 	c #B485B0",
"a 	c #835B87",
"b 	c #835C87",
"c 	c #835B86",
"d 	c #825C86",
"e 	c #845C87",
"f 	c #835D87",
"g 	c #845C88",
"h 	c #835C88",
"i 	c #B585B0",
"j 	c #B283AC",
"k 	c #855E89",
"l 	c #865E89",
"m 	c #865F8A",
"n 	c #855E8A",
"o 	c #865F89",
"p 	c #B283AD",
"q 	c #B081AB",
"r 	c #88608B",
"s 	c #88608C",
"t 	c #88618B",
"u 	c #88618C",
"v 	c #89618C",
"w 	c #AF81AA",
"x 	c #AD7FA8",
"y 	c #8B638D",
"z 	c #8B628D",
"A 	c #8A638E",
"B 	c #8A638D",
"C 	c #8B638E",
"D 	c #8C638E",
"E 	c #8C638F",
"F 	c #8B638F",
"G 	c #AB7CA6",
"H 	c #8D6590",
"I 	c #8E6590",
"J 	c #8F6590",
"K 	c #8E6691",
"L 	c #8E6591",
"M 	c #8E6690",
"N 	c #AA7DA6",
"O 	c #A97AA4",
"P 	c #906893",
"Q 	c #906892",
"R 	c #906792",
"S 	c #906793",
"T 	c #916893",
"U 	c #916892",
"V 	c #926894",
"W 	c #A87AA4",
"X 	c #A677A1",
"Y 	c #936994",
"Z 	c #926A94",
"` 	c #94678F",
" .	c #936B95",
"..	c #946B95",
"+.	c #946B96",
"@.	c #A678A1",
"#.	c #A4759F",
"$.	c #956C97",
"%.	c #956B97",
"&.	c #E1EAF6",
"*.	c #966D97",
"=.	c #976C98",
"-.	c #976D98",
";.	c #A4759E",
">.	c #A2749D",
",.	c #986F9A",
"'.	c #986F99",
").	c #996E99",
"!.	c #996F9A",
"~.	c #996F9B",
"{.	c #9A709A",
"].	c #A2739C",
"^.	c #9C6E97",
"/.	c #9B719C",
"(.	c #9B709C",
"_.	c #906891",
":.	c #9C719C",
"<.	c #9D729D",
"[.	c #9D6F98",
"}.	c #986993",
"|.	c #9F759F",
"1.	c #A0749F",
"2.	c #A074A0",
"3.	c #A176A0",
"4.	c #A075A0",
"5.	c #A175A0",
"6.	c #A176A1",
"7.	c #A076A1",
"8.	c #A277A1",
"9.	c #A277A2",
"0.	c #A276A2",
"a.	c #996A94",
"b.	c #92658E",
"c.	c #A578A4",
"d.	c #A579A4",
"e.	c #A67AA5",
"f.	c #A77BA6",
"g.	c #94668F",
"h.	c #8E6189",
"i.	c #AA7DA8",
"j.	c #AB7EA9",
"k.	c #AC7FAA",
"l.	c #AC7FA9",
"m.	c #AB7FAA",
"n.	c #AB7EAA",
"o.	c #AD7FAB",
"p.	c #AC80AB",
"q.	c #8F628A",
"r.	c #8A5D84",
"s.	c #895D84",
"t.	c #8A5C85",
"u.	c #8B5E86",
"v.	c #855880",
"w.	c #855980",
"x.	c #855881",
"y.	c #865982",
"z.	c #865981",
"A.	c #865A82",
"B.	c #80547C",
"C.	c #81547B",
"D.	c #80547B",
"E.	c #81547C",
"F.	c #80537B",
"                                        ",
". . . . . . . . . . . . . . . . . . . . ",
"+ + + @ # $ @ @ + % & @ % @ + * = = @ & ",
"- ; >                             , ' , ",
") )   ! ~ { ] ^ ~ ~ ~ ~ / ( ~ ~ ~   _ _ ",
":   < [ [ [ [ [ < } | } | 1 } } 2 }   3 ",
"4   5 6 6 6 6 7 6 8 8 8 9 8 9 8 8 8   4 ",
"0   a a b c d b b b e f g h e h h b   i ",
"j   k k k l k k l m l m n o m o m m   p ",
"q   r r s s s t u v u u v v v u u v   w ",
"x   y z A B C D C D E C C E F D F C   x ",
"G   H H I I H J K L I L K L M K L K   N ",
"O   P Q R R S T U T T T P T T P T V   W ",
"X   Y Z Y ` ` ` ` ` ` ` ` ` `  ...+.  @.",
"#.  $.%.$.` &.&.&.&.&.&.&.&.` *.=.-.  ;.",
">.  ,.'.).` &.&.&.&.&.&.&.&.` !.~.{.  ].",
"^.  /.(./._.` ` ` ` ` ` ` ` ` :.<.<.  [.",
"}.  |.1.2.3.4.3.5.4.6.3.7.4.5.8.9.0.  a.",
"b.  c.d.e.e.e.e.e.e.e.e.e.e.e.f.f.f.  g.",
"h.h.  i.j.j.j.j.j.j.k.l.m.n.m.o.p.  q.q.",
"r.s.t.                            u.u.u.",
"v.w.v.v.v.v.v.v.v.v.v.v.x.v.w.v.w.y.z.A.",
"B.C.D.E.E.B.B.D.D.D.D.C.D.C.F.D.B.F.B.F.",
"` ` ` ` ` ` ` ` ` ` ` ` ` ` ` ` ` ` ` ` "};
