/* XPM */
static char * hide_active_xpm[] = {
"20 24 130 2",
"  	c #75507B",
". 	c #C091BB",
"+ 	c #C090BB",
"@ 	c #C191BC",
"# 	c #C191BB",
"$ 	c #C190BC",
"% 	c #C091BC",
"& 	c #BD8EB9",
"* 	c #BD8EB8",
"= 	c #B082AA",
"- 	c #9A6D95",
"; 	c #94688F",
"> 	c #92668D",
", 	c #93668D",
"' 	c #92668C",
") 	c #AA7CA5",
"! 	c #BE8EB9",
"~ 	c #BF8FB9",
"{ 	c #A679A1",
"] 	c #A5779F",
"^ 	c #BC8DB7",
"/ 	c #C291BC",
"( 	c #C192BC",
"_ 	c #C191BD",
": 	c #A87AA2",
"< 	c #BE8DB8",
"[ 	c #BE8DB9",
"} 	c #BD8DB8",
"| 	c #BE8EB8",
"1 	c #B98BB5",
"2 	c #BA8AB5",
"3 	c #B98AB4",
"4 	c #B98AB5",
"5 	c #BA8BB4",
"6 	c #BA8BB5",
"7 	c #BA8AB4",
"8 	c #996B93",
"9 	c #B687B0",
"0 	c #B686B1",
"a 	c #B687B1",
"b 	c #B586B1",
"c 	c #B587B0",
"d 	c #B586B0",
"e 	c #956890",
"f 	c #B283AD",
"g 	c #B283AC",
"h 	c #986B92",
"i 	c #AF7FA8",
"j 	c #AE7FA9",
"k 	c #AF80A9",
"l 	c #AE7FA8",
"m 	c #AF7FA9",
"n 	c #AA7BA5",
"o 	c #AB7CA5",
"p 	c #9F729A",
"q 	c #A779A3",
"r 	c #A779A1",
"s 	c #A778A1",
"t 	c #A678A2",
"u 	c #A678A1",
"v 	c #A97AA4",
"w 	c #A3749E",
"x 	c #A3759E",
"y 	c #A3759D",
"z 	c #A3749D",
"A 	c #AC7DA7",
"B 	c #BC8CB7",
"C 	c #9F7199",
"D 	c #9F719A",
"E 	c #94678F",
"F 	c #B788B2",
"G 	c #BB8CB6",
"H 	c #9A6D94",
"I 	c #E1EAF6",
"J 	c #9B6D94",
"K 	c #B888B3",
"L 	c #BF8FBA",
"M 	c #966990",
"N 	c #966890",
"O 	c #956990",
"P 	c #C393BE",
"Q 	c #91648C",
"R 	c #92648C",
"S 	c #926890",
"T 	c #8A6A94",
"U 	c #91658B",
"V 	c #91648B",
"W 	c #8C5F86",
"X 	c #8B5E86",
"Y 	c #8D6087",
"Z 	c #8C6087",
"` 	c #8D6086",
" .	c #BB8BB6",
"..	c #885B81",
"+.	c #875B82",
"@.	c #875A81",
"#.	c #875B81",
"$.	c #895C82",
"%.	c #885C82",
"&.	c #885B82",
"*.	c #885B83",
"=.	c #AC7EA7",
"-.	c #83567D",
";.	c #82567D",
">.	c #83567C",
",.	c #82567C",
"'.	c #84577E",
").	c #84577D",
"!.	c #83577E",
"~.	c #84587E",
"{.	c #83587D",
"].	c #9B6E96",
"^.	c #A3769E",
"/.	c #8A5E85",
"(.	c #A97CA5",
"_.	c #BE8FB9",
":.	c #A1739C",
"<.	c #7E5278",
"[.	c #7D5279",
"}.	c #7D5179",
"|.	c #7D5278",
"1.	c #82557D",
"2.	c #895D84",
"3.	c #8D6188",
"4.	c #875C82",
"5.	c #875C83",
"6.	c #845980",
"7.	c #83577D",
"8.	c #7E527A",
"9.	c #7F537A",
"                                        ",
". . + @ # $ % @ % + $ % + @ % % @ . @ % ",
"& * = - ; > > > , > ' ' > > ' ' ' ) ! ~ ",
"{ ' '                             ' ] ^ ",
"' '   @ @ @ / @ @ ( @ @ ( _ @ @ @   ' : ",
"'   < * & * & < [ [ } * } * | [ ! [   - ",
"'   1 2 3 3 4 5 3 6 1 2 3 7 7 3 7 4   8 ",
"'   9 0 a a 9 a a a b 0 9 a c d a 9   e ",
"'   f f f f f g g g g f g f f g f f   ' ",
"h   i j j k l j m j i l m m j j j j   ' ",
")   ) n n ) o ) o ) o o ) o ) ) ) )   p ",
"q   r s { s t s s s u { r s s r t {   v ",
"d   w x y w y w x w y y y z z y x x   A ",
"B   C D C E E E E E E E E E E C C C   F ",
"G   - - H E I I I I I I I I E - - J   K ",
"L   M N O E I I I I I I I I E N N N   ! ",
"P   Q R Q E E E E E E E E S T R U V   P ",
"P   W X Y Y Y Y Z Y Y Y Z ` Y Z Z Z   P ",
" .  ..+.@.#.$.%.&.&.&.%.&.%.*.%.$.&.  + ",
"=.P   -.-.;.>.,.'.).!.!.~.'.).'.{.  P ].",
"^.} P                             P P /.",
";.* (.d P ^ ^ P ^ P P ^ ^ P ^ ^ P _.:.'.",
"<.[.}.|.1.2.3.4.5.4.3.6.6.2.3.6.7.8.9.9.",
"E E E E E E E E E E E E E E E E E E E E "};
