/* XPM */
static char * maximize_toggled_active_xpm[] = {
"20 24 117 2",
"  	c #75507B",
". 	c #C091BB",
"+ 	c #C090BB",
"@ 	c #C191BC",
"# 	c #C191BB",
"$ 	c #C190BC",
"% 	c #C091BC",
"& 	c #BD8EB9",
"* 	c #BD8EB8",
"= 	c #B082AA",
"- 	c #9A6D95",
"; 	c #94688F",
"> 	c #92668D",
", 	c #93668D",
"' 	c #92668C",
") 	c #AA7CA5",
"! 	c #BE8EB9",
"~ 	c #BF8FB9",
"{ 	c #A679A1",
"] 	c #A5779F",
"^ 	c #BC8DB7",
"/ 	c #BF8FBA",
"( 	c #BF8EB9",
"_ 	c #BE8FBA",
": 	c #A87AA2",
"< 	c #BB8BB6",
"[ 	c #BB8CB6",
"} 	c #BA8BB5",
"| 	c #BA8AB5",
"1 	c #B888B2",
"2 	c #B787B2",
"3 	c #B788B1",
"4 	c #B787B1",
"5 	c #B687B1",
"6 	c #B687B2",
"7 	c #996B93",
"8 	c #B383AE",
"9 	c #B384AE",
"0 	c #B384AD",
"a 	c #B284AE",
"b 	c #956890",
"c 	c #AF81AA",
"d 	c #B081AA",
"e 	c #AF80AA",
"f 	c #94678F",
"g 	c #B080AA",
"h 	c #AF80AB",
"i 	c #986B92",
"j 	c #AB7DA6",
"k 	c #AC7DA6",
"l 	c #AC7DA7",
"m 	c #E1EAF6",
"n 	c #AC7EA6",
"o 	c #A87AA3",
"p 	c #A979A3",
"q 	c #9F729A",
"r 	c #A779A3",
"s 	c #A5769F",
"t 	c #A576A0",
"u 	c #A4769F",
"v 	c #A577A0",
"w 	c #A97AA4",
"x 	c #B586B0",
"y 	c #A1739C",
"z 	c #A1739B",
"A 	c #A2739B",
"B 	c #A2749C",
"C 	c #BC8CB7",
"D 	c #9D6F97",
"E 	c #9D6F98",
"F 	c #B788B2",
"G 	c #996C93",
"H 	c #986B93",
"I 	c #986A92",
"J 	c #B888B3",
"K 	c #95678E",
"L 	c #94678E",
"M 	c #94668D",
"N 	c #93668E",
"O 	c #C393BE",
"P 	c #90638A",
"Q 	c #8F638A",
"R 	c #8F628A",
"S 	c #8F6289",
"T 	c #90628A",
"U 	c #906289",
"V 	c #8B5E85",
"W 	c #8A5E85",
"X 	c #8A5F85",
"Y 	c #875A81",
"Z 	c #865A81",
"` 	c #875A80",
" .	c #865A80",
"..	c #AC7EA7",
"+.	c #82567D",
"@.	c #82567C",
"#.	c #83567C",
"$.	c #83577D",
"%.	c #82577C",
"&.	c #9B6E96",
"*.	c #A3769E",
"=.	c #BD8DB8",
"-.	c #A97CA5",
";.	c #BE8FB9",
">.	c #84577E",
",.	c #7E5278",
"'.	c #7D5279",
").	c #7D5179",
"!.	c #7D5278",
"~.	c #82557D",
"{.	c #895D84",
"].	c #8D6188",
"^.	c #875C82",
"/.	c #875C83",
"(.	c #845980",
"_.	c #7E527A",
":.	c #7F537A",
"                                        ",
". . + @ # $ % @ % + $ % + @ % % @ . @ % ",
"& * = - ; > > > , > ' ' > > ' ' ' ) ! ~ ",
"{ ' '                             ' ] ^ ",
"' '   ~ / ~ ~ ( ! / ~ _ ~ / ~ _ _   ' : ",
"'   < < [ < [ < [ < < } | } } | | }   - ",
"'   1 1 2 3 4 4 3 5 5 4 6 5 2 4 3 5   7 ",
"'   8 9 9 9 0 9 9 9 9 9 8 9 9 a 9 8   b ",
"'   c d e c f f f f f f f f d g c h   ' ",
"i   j k k l f m m m m m m f n l l l   ' ",
")   o o o o f m m m m m m f p o o o   q ",
"r   s ] t ] f m f f f f m f u ] s v   w ",
"x   y z A B f m f y y f m f z y y y   l ",
"C   D D E E f m f f f f m f E D D D   F ",
"[   G H 7 H f m m m m m m f 7 H G I   J ",
"/   K K f f f f f f f f f f L M L N   ! ",
"O   P Q R S R S S S R T R S S R U R   O ",
"O   V V V W V V W V X V V V V W V V   O ",
"<   Y Y Z `  .Z Y Z Z Y Y Y Z  .Z Z   + ",
"..O   +.@.@.+.#.$.%.+.@.@.#.@.@.+.  O &.",
"*.=.O                             O O W ",
"+.* -.x O ^ ^ O ^ O O ^ ^ O ^ ^ O ;.y >.",
",.'.).!.~.{.].^./.^.].(.(.{.].(.$._.:.:.",
"f f f f f f f f f f f f f f f f f f f f "};
