/* XPM */
static char * maximize_toggled_pressed_xpm[] = {
"20 24 149 2",
"  	c #75507B",
". 	c #C493BE",
"+ 	c #C394BF",
"@ 	c #C394BE",
"# 	c #C494BE",
"$ 	c #C293BE",
"% 	c #C393BD",
"& 	c #C393BE",
"* 	c #C293BD",
"= 	c #C292BD",
"- 	c #C193BD",
"; 	c #C191BC",
"> 	c #C091BB",
", 	c #C091BC",
"' 	c #C090BB",
") 	c #BF90BB",
"! 	c #BF91BB",
"~ 	c #BF90BA",
"{ 	c #BF8FBA",
"] 	c #BD8FB9",
"^ 	c #BD8FB8",
"/ 	c #BE8EB8",
"( 	c #BC8DB7",
"_ 	c #BB8BB6",
": 	c #BA8CB5",
"< 	c #7F5983",
"[ 	c #805983",
"} 	c #7F5883",
"| 	c #805883",
"1 	c #B98AB4",
"2 	c #B789B3",
"3 	c #815A85",
"4 	c #815A84",
"5 	c #815B85",
"6 	c #825A85",
"7 	c #825B85",
"8 	c #B788B1",
"9 	c #B586B0",
"0 	c #825B86",
"a 	c #835C86",
"b 	c #825C86",
"c 	c #835B86",
"d 	c #835C87",
"e 	c #B385AF",
"f 	c #B283AD",
"g 	c #845C87",
"h 	c #855D88",
"i 	c #845D88",
"j 	c #855D87",
"k 	c #855E88",
"l 	c #855E87",
"m 	c #845E88",
"n 	c #B183AC",
"o 	c #AF81AB",
"p 	c #875F89",
"q 	c #865E89",
"r 	c #865F89",
"s 	c #94678F",
"t 	c #875F8A",
"u 	c #875E89",
"v 	c #AD7FA9",
"w 	c #AC7EA8",
"x 	c #88608A",
"y 	c #88608B",
"z 	c #89608B",
"A 	c #E1EAF6",
"B 	c #89608A",
"C 	c #AB7DA6",
"D 	c #A97CA4",
"E 	c #8B618C",
"F 	c #8B628C",
"G 	c #8A618C",
"H 	c #8A628C",
"I 	c #A87AA4",
"J 	c #A679A2",
"K 	c #8C638E",
"L 	c #8C648D",
"M 	c #8C638D",
"N 	c #A678A0",
"O 	c #A3769F",
"P 	c #8E648F",
"Q 	c #8D648E",
"R 	c #8D658E",
"S 	c #8E658F",
"T 	c #8D658F",
"U 	c #A383AB",
"V 	c #A1739C",
"W 	c #8F6690",
"X 	c #906691",
"Y 	c #906690",
"Z 	c #8F6790",
"` 	c #906791",
" .	c #A0729B",
"..	c #9E7199",
"+.	c #926892",
"@.	c #916892",
"#.	c #936993",
"$.	c #9D7199",
"%.	c #9B6F96",
"&.	c #976C96",
"*.	c #966C96",
"=.	c #986D97",
"-.	c #976D97",
";.	c #986D96",
">.	c #9A6D96",
",.	c #996C94",
"'.	c #9B7099",
").	c #9B709A",
"!.	c #9C709A",
"~.	c #9C719B",
"{.	c #9D719B",
"].	c #9D719A",
"^.	c #9C719A",
"/.	c #986B93",
"(.	c #956891",
"_.	c #A0749D",
":.	c #9F749D",
"<.	c #A2759E",
"[.	c #A1759E",
"}.	c #A1759F",
"|.	c #967199",
"1.	c #93668E",
"2.	c #A578A1",
"3.	c #A679A3",
"4.	c #92668D",
"5.	c #90648B",
"6.	c #AB7DA7",
"7.	c #AA7DA6",
"8.	c #8F638A",
"9.	c #8F638B",
"0.	c #8D6189",
"a.	c #8C6088",
"b.	c #8C6188",
"c.	c #8A5E86",
"d.	c #8A5E85",
"e.	c #8A5F85",
"f.	c #8A5F86",
"g.	c #8A5D85",
"h.	c #895D85",
"i.	c #8A5D86",
"j.	c #895E85",
"k.	c #875C83",
"l.	c #875B83",
"m.	c #885B83",
"n.	c #865B83",
"o.	c #875A82",
"p.	c #875B82",
"q.	c #865B82",
"r.	c #865A82",
"                                        ",
". + @ @ # $ % $ % & & & & & % $ * * = - ",
"; > , > , > ' ' ' ' ) ' ' ' ) ' ! ~ ~ { ",
"] ^ /                             ( ( ( ",
"_ :   < < [ [ } < [ } [ } < | < <   1 1 ",
"2   3 3 3 3 4 3 4 3 4 3 5 6 3 4 7 3   8 ",
"9   0 0 a b a b c d d a a d d a a a   e ",
"f   g h i h j j k h k h j h l j m j   n ",
"o   p q r p s s s s s s s s r p t u   v ",
"w   x y z x s A A A A A A s y y B x   C ",
"D   E F G H s A A A A A A s F G G H   I ",
"J   K L M K s A s s s s A s K K L K   N ",
"O   P Q R P s A s P P s A s P S T S   U ",
"V   W W X W s A s s s s A s W Y Z `    .",
"..  +.@.@.@.s A A A A A A s #.#.#.#.  $.",
"%.  &.&.*.*.s s s s s s s s =.-.=.;.  >.",
",.  '.'.).).).!.~.{.].~.{.~.~.^.{.~.  /.",
"(.  _._._.:.<.[.[.[.}.[.}.}.}.}.}.[.  |.",
"1.  2.2.3.J 3.J J J 3.3.J J J 3.J J   4.",
"5.5.  C C 6.7.C C C C C C 7.C C C   8.9.",
"0.0.0.                            a.b.a.",
"c.d.c.e.f.f.c.c.c.c.g.g.h.g.i.h.d.d.j.g.",
"k.l.k.l.l.m.l.l.k.m.n.o.p.l.q.r.o.n.q.p.",
"s s s s s s s s s s s s s s s s s s s s "};
