/* XPM */
static char * maximize_active_xpm[] = {
"20 24 121 2",
"  	c #75507B",
". 	c #C091BB",
"+ 	c #C090BB",
"@ 	c #C191BC",
"# 	c #C191BB",
"$ 	c #C190BC",
"% 	c #C091BC",
"& 	c #BD8EB9",
"* 	c #BD8EB8",
"= 	c #B082AA",
"- 	c #9A6D95",
"; 	c #94688F",
"> 	c #92668D",
", 	c #93668D",
"' 	c #92668C",
") 	c #AA7CA5",
"! 	c #BE8EB9",
"~ 	c #BF8FB9",
"{ 	c #A679A1",
"] 	c #A5779F",
"^ 	c #BC8DB7",
"/ 	c #BF8FBA",
"( 	c #BF8FBB",
"_ 	c #C08FBB",
": 	c #BF90BA",
"< 	c #C08FBA",
"[ 	c #C090BA",
"} 	c #A87AA2",
"| 	c #BC8CB7",
"1 	c #BC8DB6",
"2 	c #BB8CB7",
"3 	c #BC8CB6",
"4 	c #B889B3",
"5 	c #B989B3",
"6 	c #B988B3",
"7 	c #B788B2",
"8 	c #996B93",
"9 	c #B485AF",
"0 	c #B585AF",
"a 	c #94678F",
"b 	c #B484AE",
"c 	c #B484AF",
"d 	c #956890",
"e 	c #B182AC",
"f 	c #B183AC",
"g 	c #E1EAF6",
"h 	c #B081AB",
"i 	c #B182AB",
"j 	c #986B92",
"k 	c #AE7FA8",
"l 	c #AC7EA8",
"m 	c #AD7EA7",
"n 	c #AD7EA8",
"o 	c #A97BA4",
"p 	c #A97BA3",
"q 	c #9F729A",
"r 	c #A779A3",
"s 	c #A677A1",
"t 	c #A677A0",
"u 	c #A678A0",
"v 	c #A577A0",
"w 	c #A97AA4",
"x 	c #B586B0",
"y 	c #A2749D",
"z 	c #A2749C",
"A 	c #AC7DA7",
"B 	c #9E7099",
"C 	c #9E7199",
"D 	c #9E7098",
"E 	c #BB8CB6",
"F 	c #9A6C94",
"G 	c #906891",
"H 	c #93678F",
"I 	c #996C94",
"J 	c #986B93",
"K 	c #B888B3",
"L 	c #966890",
"M 	c #96688F",
"N 	c #95678E",
"O 	c #C393BE",
"P 	c #91648C",
"Q 	c #92648B",
"R 	c #91648B",
"S 	c #90638A",
"T 	c #90638B",
"U 	c #8D6088",
"V 	c #8C6087",
"W 	c #8D6087",
"X 	c #8C5F86",
"Y 	c #8C5F87",
"Z 	c #8C6086",
"` 	c #BB8BB6",
" .	c #885B82",
"..	c #885B81",
"+.	c #875B82",
"@.	c #885C82",
"#.	c #AC7EA7",
"$.	c #83577E",
"%.	c #84577E",
"&.	c #83577D",
"*.	c #84577D",
"=.	c #9B6E96",
"-.	c #A3769E",
";.	c #BD8DB8",
">.	c #8A5E85",
",.	c #82567D",
"'.	c #A97CA5",
").	c #BE8FB9",
"!.	c #A1739C",
"~.	c #7E5278",
"{.	c #7D5279",
"].	c #7D5179",
"^.	c #7D5278",
"/.	c #82557D",
"(.	c #895D84",
"_.	c #8D6188",
":.	c #875C82",
"<.	c #875C83",
"[.	c #845980",
"}.	c #7E527A",
"|.	c #7F537A",
"                                        ",
". . + @ # $ % @ % + $ % + @ % % @ . @ % ",
"& * = - ; > > > , > ' ' > > ' ' ' ) ! ~ ",
"{ ' '                             ' ] ^ ",
"' '   / ( _ : : + : < : : < : : [   ' } ",
"'   ^ | 1 | | ^ | 2 | | | 3 | | | |   - ",
"'   4 5 4 4 4 4 5 4 4 6 5 5 4 7 7 7   8 ",
"'   9 0 0 a a a a a a a a a a 9 b c   d ",
"'   e e f a g g g g g g g g a h i h   ' ",
"j   k l m a g g g g g g g g a m n l   ' ",
")   o o p a g a a a a a a g a o p p   q ",
"r   s t s a g a u v t u a g a v t v   w ",
"x   y y z a g a z y z y a g a y z y   A ",
"|   B B C a g a B B B D a g a C B D   7 ",
"E   F F F a g a a G H a a g a F I J   K ",
"/   d L M a g g g g g g g g a N N a   ! ",
"O   P Q R a a a a a a a a a a S S T   O ",
"O   U V W W X X Y Y Z X X X Z X X X   O ",
"`    ... .+... ... . .+.+.@.@...+. .  + ",
"#.O   $.$.$.%.$.&.*.&.*.$.&.$.&.&.  O =.",
"-.;.O                             O O >.",
",.* '.x O ^ ^ O ^ O O ^ ^ O ^ ^ O ).!.%.",
"~.{.].^./.(._.:.<.:._.[.[.(._.[.&.}.|.|.",
"a a a a a a a a a a a a a a a a a a a a "};
