/* XPM */
static char * maximize_pressed_xpm[] = {
"20 24 125 2",
"  	c #75507B",
". 	c #C092BB",
"+ 	c #C091BB",
"@ 	c #C191BB",
"# 	c #C192BB",
"$ 	c #BE90B9",
"% 	c #BF8FBA",
"& 	c #BF90B9",
"* 	c #BF8FB9",
"= 	c #BE8FB9",
"- 	c #BE8FBA",
"; 	c #BF90BA",
"> 	c #BC8EB8",
", 	c #BD8EB7",
"' 	c #BD8EB8",
") 	c #BB8CB6",
"! 	c #7E5783",
"~ 	c #7E5883",
"{ 	c #7D5783",
"] 	c #7E5782",
"^ 	c #7E5882",
"/ 	c #B98BB4",
"( 	c #815984",
"_ 	c #805A85",
": 	c #805984",
"< 	c #805985",
"[ 	c #805A84",
"} 	c #815A84",
"| 	c #815A85",
"1 	c #B789B2",
"2 	c #835C87",
"3 	c #825C87",
"4 	c #B889B3",
"5 	c #B587B0",
"6 	c #865E89",
"7 	c #855F89",
"8 	c #855F8A",
"9 	c #94678F",
"0 	c #855E89",
"a 	c #855E8A",
"b 	c #B385AE",
"c 	c #88618B",
"d 	c #88608B",
"e 	c #88608C",
"f 	c #E1EAF6",
"g 	c #88618C",
"h 	c #87618C",
"i 	c #B485AF",
"j 	c #B283AD",
"k 	c #8A638D",
"l 	c #8A628E",
"m 	c #8B628E",
"n 	c #8B638D",
"o 	c #B082AB",
"p 	c #8D6590",
"q 	c #8D648F",
"r 	c #8C6590",
"s 	c #B081AB",
"t 	c #AF80A9",
"u 	c #8F6792",
"v 	c #8F6691",
"w 	c #906792",
"x 	c #8F6692",
"y 	c #AE80A9",
"z 	c #AC7EA7",
"A 	c #926994",
"B 	c #916994",
"C 	c #AD7EA7",
"D 	c #AB7CA5",
"E 	c #946B97",
"F 	c #946B96",
"G 	c #956B96",
"H 	c #946C96",
"I 	c #AB7DA5",
"J 	c #A97BA4",
"K 	c #976E99",
"L 	c #966E98",
"M 	c #976E98",
"N 	c #976D98",
"O 	c #976D99",
"P 	c #A779A2",
"Q 	c #9A6F9B",
"R 	c #99709A",
"S 	c #996F9A",
"T 	c #996F9B",
"U 	c #9A709A",
"V 	c #A577A0",
"W 	c #9C739D",
"X 	c #9B729D",
"Y 	c #9C729C",
"Z 	c #9C719D",
"` 	c #9C729D",
" .	c #A577A1",
"..	c #A0729B",
"+.	c #9E75A0",
"@.	c #9F74A0",
"#.	c #9F749F",
"$.	c #9F75A0",
"%.	c #9E749F",
"&.	c #A0729A",
"*.	c #9B6E96",
"=.	c #A479A5",
"-.	c #A479A4",
";.	c #A47AA5",
">.	c #A47AA4",
",.	c #A579A5",
"'.	c #A278A3",
").	c #A277A2",
"!.	c #A277A3",
"~.	c #A377A3",
"{.	c #9B6D96",
"].	c #976992",
"^.	c #976991",
"/.	c #AC80AB",
"(.	c #AD80AB",
"_.	c #AA7EAA",
":.	c #966891",
"<.	c #92648C",
"[.	c #92658D",
"}.	c #8D5F88",
"|.	c #8C6087",
"1.	c #8D6087",
"2.	c #8C6088",
"3.	c #8D6088",
"4.	c #885B83",
"                                        ",
". . . + . . + + @ @ @ @ + + + . + # + + ",
"$ % & $ * = - = = * $ $ * % * * * ; ; * ",
"> , ,                             ' ' ' ",
") )   ! ! ! ~ { ~ ] ^ ~ ~ ! ^ ~ !   ) ) ",
"/   ( _ : < _ [ } _ _ _ _ ( | _ _ |   / ",
"1   2 2 2 2 2 2 2 2 2 3 2 2 2 2 2 2   4 ",
"5   6 7 8 9 9 9 9 9 9 9 9 9 9 7 0 a   5 ",
"b   c d e 9 f f f f f f f f 9 d g h   i ",
"j   k l m 9 f f f f f f f f 9 m k n   j ",
"o   p p q 9 f 9 9 9 9 9 9 f 9 p p r   s ",
"t   u u v 9 f 9 w u u w 9 f 9 u x u   y ",
"z   A A A 9 f 9 B B A B 9 f 9 B B A   C ",
"D   E F F 9 f 9 G F F H 9 f 9 G F H   I ",
"J   K L M 9 f 9 9 9 9 9 9 f 9 N K O   J ",
"P   Q R S 9 f f f f f f f f 9 T U S   P ",
"V   W X Y 9 9 9 9 9 9 9 9 9 9 Z ` `    .",
"..  +.@.#.$.@.%.%.%.%.%.#.%.%.%.%.%.  &.",
"*.  =.-.-.;.>.,.-.=.-.'.).!.'.!.!.~.  {.",
"].^.  /./././././././././.(./._._.  :.^.",
"<.<.<.                            <.<.[.",
"}.|.1.2.|.}.3.3.3.1.3.}.1.1.}.}.}.3.}.2.",
"4.4.4.4.4.4.4.4.4.4.4.4.4.4.4.4.4.4.4.4.",
"9 9 9 9 9 9 9 9 9 9 9 9 9 9 9 9 9 9 9 9 "};
