/* XPM */
static char * menu_pressed_xpm[] = {
"20 24 98 2",
"  	c #75507B",
". 	c #5C3566",
"+ 	c #5C3567",
"@ 	c #5C3667",
"# 	c #5C3666",
"$ 	c #5D3566",
"% 	c #5D3667",
"& 	c #5D3567",
"* 	c #5E3668",
"= 	c #5D3668",
"- 	c #5D3767",
"; 	c #5E3768",
"> 	c #5E3767",
", 	c #5E3667",
"' 	c #5D3768",
") 	c #5E3769",
"! 	c #5E3868",
"~ 	c #5F3869",
"{ 	c #5F3768",
"] 	c #5F3769",
"^ 	c #603869",
"/ 	c #5F386A",
"( 	c #60396A",
"_ 	c #60386A",
": 	c #613A6B",
"< 	c #603A6A",
"[ 	c #61396B",
"} 	c #60396B",
"| 	c #603A6B",
"1 	c #623A6C",
"2 	c #613B6B",
"3 	c #623A6B",
"4 	c #613A6C",
"5 	c #613B6C",
"6 	c #623A6D",
"7 	c #623B6C",
"8 	c #623B6D",
"9 	c #633A6D",
"0 	c #633A6C",
"a 	c #633B6C",
"b 	c #633B6D",
"c 	c #633C6D",
"d 	c #643B6E",
"e 	c #643B6D",
"f 	c #643C6E",
"g 	c #633C6E",
"h 	c #643C6D",
"i 	c #633B6E",
"j 	c #643D6E",
"k 	c #653D6F",
"l 	c #653D6E",
"m 	c #653E6F",
"n 	c #643E6F",
"o 	c #663D70",
"p 	c #663D6F",
"q 	c #653E70",
"r 	c #663E70",
"s 	c #663E6F",
"t 	c #663F71",
"u 	c #663E71",
"v 	c #673F70",
"w 	c #663F70",
"x 	c #673E70",
"y 	c #673F71",
"z 	c #674071",
"A 	c #683F72",
"B 	c #684072",
"C 	c #683F71",
"D 	c #684071",
"E 	c #674072",
"F 	c #694172",
"G 	c #694073",
"H 	c #694173",
"I 	c #684173",
"J 	c #694072",
"K 	c #694273",
"L 	c #6A4173",
"M 	c #694174",
"N 	c #694274",
"O 	c #6A4274",
"P 	c #6A4374",
"Q 	c #6B4274",
"R 	c #6B4375",
"S 	c #6B4275",
"T 	c #6A4375",
"U 	c #6A4275",
"V 	c #6B4374",
"W 	c #6B4476",
"X 	c #6C4475",
"Y 	c #6C4376",
"Z 	c #6B4376",
"` 	c #6C4476",
" .	c #6C4477",
"..	c #6D4476",
"+.	c #6D4477",
"@.	c #6C4576",
"#.	c #6D4576",
"$.	c #6C4577",
"                                        ",
". . + . . @ . + # . @ . $ . . . + @ . . ",
"+ % % % % % % & % % % % % % % & % % @ % ",
"* = - ; > > > ; , ' % > ; * - , * * - * ",
") ! ~ { { { { ) { ; ) { { ~ ] ) ~ { ; ] ",
"^ ~ / ^ ~ ~ ^ ~ / ~ ~ / / ~ / ~ / / ^ ~ ",
"( _ ( ( ( ( ( ( ( _ ( ( ( ( _ ( ( ( ( ( ",
": < [ [ [ ( ( } ( : [ } ( : | : [ [ : : ",
"1 : 2 1 3 : 1 1 1 4 3 4 3 4 1 1 5 1 4 4 ",
"6 7 7 8 9 7 0 7 1 8 7 1 a 0 6 7 0 8 b 8 ",
"c c c d c e f b g h c c i c c h c i f c ",
"j j f f j f f f j f j f f j j f j j j f ",
"k l k l k k k l k k m k k n k m l m k n ",
"m o p q q m m m q m q r m s q q s m m r ",
"t r r u v w w w u r x r w u r v r w t t ",
"y z y y z y z z z y y z y y y y y y y y ",
"A z B B B B C B B D E B B B B B B B B B ",
"F G G H F F H F I H G I I H J H I F B H ",
"H K H H L M K K H L L K L H N M L L H H ",
"O O O P P O O O O O O O O O O O Q O O O ",
"R S P S R R T U S R S R R V R R V P V V ",
"W X Y Y Z ` R W Y Z W ` X W W W Z R Y ` ",
" ... .+...+...@.` ..` #.` #.$.+. .@.` ..",
"                                        "};
