/* XPM */
static char * menu_active_xpm[] = {
"20 24 120 2",
"  	c #75507B",
". 	c #CD9EC8",
"+ 	c #CE9EC8",
"@ 	c #CE9DC8",
"# 	c #CD9DC8",
"$ 	c #CA9CC5",
"% 	c #CB9CC5",
"& 	c #CB9BC6",
"* 	c #CB9BC5",
"= 	c #CA9BC6",
"- 	c #CA9BC5",
"; 	c #C899C3",
"> 	c #C999C2",
", 	c #C899C2",
"' 	c #C898C3",
") 	c #C999C3",
"! 	c #C697C0",
"~ 	c #C596C0",
"{ 	c #C696C1",
"] 	c #C696C0",
"^ 	c #C597C1",
"/ 	c #C394BD",
"( 	c #C393BD",
"_ 	c #C393BE",
": 	c #C394BE",
"< 	c #C294BE",
"[ 	c #C091BB",
"} 	c #C092BB",
"| 	c #C191BB",
"1 	c #BD8FB8",
"2 	c #BE8FB9",
"3 	c #BE8FB8",
"4 	c #BD8EB8",
"5 	c #BD8FB9",
"6 	c #BA8CB5",
"7 	c #BB8CB6",
"8 	c #BB8DB6",
"9 	c #BB8CB5",
"0 	c #B789B3",
"a 	c #B88AB3",
"b 	c #B78AB3",
"c 	c #B789B2",
"d 	c #B98AB3",
"e 	c #B989B4",
"f 	c #B98AB4",
"g 	c #B587B0",
"h 	c #B586B0",
"i 	c #B688B0",
"j 	c #B687B1",
"k 	c #B688B1",
"l 	c #B687B0",
"m 	c #B587B1",
"n 	c #B385AE",
"o 	c #B384AE",
"p 	c #B284AD",
"q 	c #B384AD",
"r 	c #B284AE",
"s 	c #B485AE",
"t 	c #B385AF",
"u 	c #AF82AA",
"v 	c #B081AB",
"w 	c #AF82AB",
"x 	c #B082AB",
"y 	c #B082AA",
"z 	c #B183AB",
"A 	c #B182AB",
"B 	c #B183AC",
"C 	c #B182AC",
"D 	c #AD80A8",
"E 	c #AD7FA8",
"F 	c #AE7FA8",
"G 	c #AE7FA9",
"H 	c #AE80A9",
"I 	c #AD80A9",
"J 	c #AA7DA6",
"K 	c #AB7CA6",
"L 	c #AB7DA6",
"M 	c #AB7DA5",
"N 	c #AA7CA6",
"O 	c #AB7CA5",
"P 	c #AC7EA6",
"Q 	c #A87BA3",
"R 	c #A87AA3",
"S 	c #A97BA4",
"T 	c #A87BA4",
"U 	c #A678A1",
"V 	c #A578A1",
"W 	c #A577A0",
"X 	c #A578A0",
"Y 	c #A678A0",
"Z 	c #A3759E",
"` 	c #A3769E",
" .	c #A3769D",
"..	c #A2759E",
"+.	c #A2769E",
"@.	c #A0739B",
"#.	c #A0729B",
"$.	c #A1739C",
"%.	c #A0729C",
"&.	c #9D7099",
"*.	c #9D7199",
"=.	c #9E7098",
"-.	c #9E7099",
";.	c #9D7198",
">.	c #9D7098",
",.	c #9E7198",
"'.	c #9B6E96",
").	c #9B6D96",
"!.	c #9A6D96",
"~.	c #9A6E96",
"{.	c #996C94",
"].	c #986B94",
"^.	c #986C94",
"/.	c #986B93",
"(.	c #986C93",
"_.	c #966991",
":.	c #956991",
"<.	c #966891",
"[.	c #956891",
"}.	c #966990",
"                                        ",
". + + . @ . # . @ + . + . . # . . + + @ ",
"$ % & * & * = * & & = % & - - * & = & $ ",
"; > , , ' ; ) ; ; ; ) ; ; ; ; ; ) ' ; , ",
"! ~ { ~ ~ ~ ] ~ ] ! ~ ~ ~ ^ ! ] ! ] ^ ] ",
"/ ( ( _ / / / / : _ / / / / : : / < / / ",
"[ } | [ [ [ [ | [ | } } | [ } } } } | [ ",
"1 2 2 2 3 3 2 3 3 3 4 4 3 1 1 2 5 2 3 5 ",
"6 7 8 9 8 7 7 7 7 7 7 8 8 7 7 8 8 8 8 7 ",
"0 a 0 b c a a a d a a d a d e d a d d f ",
"g g g g h g g i j k g j k l l m j i j l ",
"n o p p p q r o q s o n o n o s n t n n ",
"u v w v v x x x y w w x z A x B C A B z ",
"D E F E E E E G E E D E D H H I G H H H ",
"J K K L M J N K J L M L O J L L P L P L ",
"Q R R R Q R R Q R R R R R R R R R R S T ",
"U V V W U X X V X X X Y X X X V V X X X ",
"Z ` ` Z Z  ...Z Z ..Z ` Z +.+.+.Z Z ` Z ",
"@.@.@.@.#.@.@.@.@.#.@.$.@.@.%.@.#.@.@.@.",
"&.*.=.-.;.=.>.=.*.&.&.,.-.-.*.,.>.&.;.&.",
"'.).'.!.'.~.'.'.'.'.'.).'.'.).'.'.'.'.'.",
"{.].^././.(.(.^./.].(.].^.].(.].]./.{.^.",
"_.:._.:.:._.:.<.:._.:.[._.:.}._.:.:._.:.",
"                                        "};
