/* XPM */
static char * title_1_active_xpm[] = {
"5 24 72 1",
" 	c #75507B",
".	c #CF9FC9",
"+	c #CE9FCA",
"@	c #CF9FCA",
"#	c #CD9DC7",
"$	c #CD9DC6",
"%	c #CC9CC6",
"&	c #CC9DC7",
"*	c #CD9CC7",
"=	c #C99AC4",
"-	c #CA9AC4",
";	c #C797C2",
">	c #C797C1",
",	c #C698C2",
"'	c #C595BF",
")	c #C495BF",
"!	c #C496BF",
"~	c #C192BB",
"{	c #C191BC",
"]	c #C191BB",
"^	c #C192BC",
"/	c #BE8FB9",
"(	c #BE90BA",
"_	c #BE90B9",
":	c #BE8FBA",
"<	c #BC8DB6",
"[	c #BB8CB7",
"}	c #BB8DB6",
"|	c #BC8CB6",
"1	c #BB8DB7",
"2	c #B98BB4",
"3	c #B98AB3",
"4	c #B98BB3",
"5	c #B788B1",
"6	c #B688B1",
"7	c #B688B2",
"8	c #B485AF",
"9	c #B486AF",
"0	c #B385AF",
"a	c #B183AC",
"b	c #B183AD",
"c	c #AE81A9",
"d	c #AF80AA",
"e	c #AE80AA",
"f	c #AE80A9",
"g	c #AE81AA",
"h	c #AC7EA7",
"i	c #A97BA4",
"j	c #A97CA5",
"k	c #A97CA4",
"l	c #AA7BA4",
"m	c #A97BA5",
"n	c #A779A1",
"o	c #A679A1",
"p	c #A779A2",
"q	c #A4769F",
"r	c #A476A0",
"s	c #A2749D",
"t	c #A1749C",
"u	c #A2749C",
"v	c #9F719A",
"w	c #9F729A",
"x	c #9C6F97",
"y	c #9C6F98",
"z	c #9C7098",
"A	c #9A6D95",
"B	c #996C95",
"C	c #996D95",
"D	c #976A93",
"E	c #976A92",
"F	c #966A92",
"G	c #966B92",
"     ",
".+@..",
"#$%&*",
"=-==-",
";;>,>",
"'')!)",
"~{]^~",
"/(__:",
"<[}|1",
"22342",
"56766",
"88890",
"aaaba",
"cdefg",
"hhhhh",
"ijklm",
"noppn",
"qqrqq",
"stuss",
"vwvwv",
"xyyzy",
"ABCAA",
"DEEFG",
"     "};
