/* XPM */
static char * top_right_active_xpm[] = {
"5 24 60 1",
" 	c None",
".	c #94678F",
"+	c #75507B",
"@	c #CE9EC8",
"#	c #CE9FC8",
"$	c #CB9CC6",
"%	c #CB9BC6",
"&	c #C59DC7",
"*	c #C999C3",
"=	c #C899C3",
"-	c #C79AC4",
";	c #C696C1",
">	c #C596C0",
",	c #C294BD",
"'	c #C393BD",
")	c #C091BA",
"!	c #C091BB",
"~	c #BD8EB7",
"{	c #BD8EB8",
"]	c #BB8CB5",
"^	c #BA8BB5",
"/	c #BA8CB5",
"(	c #B789B3",
"_	c #B789B2",
":	c #B888B3",
"<	c #B889B2",
"[	c #B586B0",
"}	c #B587B0",
"|	c #B586AF",
"1	c #B486AE",
"2	c #B284AD",
"3	c #B183AD",
"4	c #B183AC",
"5	c #AE81A9",
"6	c #AF80AA",
"7	c #AB7EA7",
"8	c #AC7EA6",
"9	c #A97CA4",
"0	c #A97BA4",
"a	c #A679A1",
"b	c #A678A1",
"c	c #A679A2",
"d	c #A4769F",
"e	c #A3769F",
"f	c #A1739C",
"g	c #A0749C",
"h	c #A1749C",
"i	c #9E7199",
"j	c #9D7098",
"k	c #9D7198",
"l	c #9B6E97",
"m	c #9B6E96",
"n	c #9B6D96",
"o	c #976A93",
"p	c #986B93",
"q	c #956890",
"r	c #956990",
"s	c #946890",
"t	c #936790",
"u	c #75517A",
"     ",
".+   ",
"@#+  ",
"$%&+ ",
"*=-. ",
";>>>+",
",'',+",
"))!!+",
"~~~{+",
"]^]/+",
"(_:<+",
"[}|1+",
"2344+",
"5565+",
"7787+",
"9900+",
"aabc+",
"deee+",
"fgfh+",
"iijk+",
"lmmn+",
"oppp+",
"qrrs+",
"...tu"};
