/* XPM */
static char * top_lef1_active_xpm[] = {
"5 24 60 1",
" 	c None",
".	c #75507B",
"+	c #94678F",
"@	c #CE9FC8",
"#	c #CE9EC8",
"$	c #C59DC7",
"%	c #CB9BC6",
"&	c #CB9CC6",
"*	c #C79AC4",
"=	c #C899C3",
"-	c #C999C3",
";	c #C596C0",
">	c #C696C1",
",	c #C294BD",
"'	c #C393BD",
")	c #C091BB",
"!	c #C091BA",
"~	c #BD8EB8",
"{	c #BD8EB7",
"]	c #BA8CB5",
"^	c #BB8CB5",
"/	c #BA8BB5",
"(	c #B889B2",
"_	c #B888B3",
":	c #B789B2",
"<	c #B789B3",
"[	c #B486AE",
"}	c #B586AF",
"|	c #B587B0",
"1	c #B586B0",
"2	c #B183AC",
"3	c #B183AD",
"4	c #B284AD",
"5	c #AE81A9",
"6	c #AF80AA",
"7	c #AB7EA7",
"8	c #AC7EA6",
"9	c #A97BA4",
"0	c #A97CA4",
"a	c #A679A2",
"b	c #A678A1",
"c	c #A679A1",
"d	c #A3769F",
"e	c #A4769F",
"f	c #A1749C",
"g	c #A1739C",
"h	c #A0749C",
"i	c #9D7198",
"j	c #9D7098",
"k	c #9E7199",
"l	c #9B6D96",
"m	c #9B6E96",
"n	c #9B6E97",
"o	c #986B93",
"p	c #976A93",
"q	c #946890",
"r	c #956990",
"s	c #956890",
"t	c #715E72",
"u	c #936790",
"     ",
"   .+",
"  .@#",
" .$%&",
" +*=-",
".;;;>",
".,'',",
".))!!",
".~{{{",
".]^/^",
".(_:<",
".[}|1",
".2234",
".5655",
".7877",
".9900",
".abcc",
".ddde",
".fghg",
".ijkk",
".lmmn",
".ooop",
".qrrs",
"tu+++"};
