/* XPM */
static char * close_active_xpm[] = {
"12 12 20 1",
" 	c #75507B",
".	c #C193BC",
"+	c #C898C2",
"@	c #C999C3",
"#	c #C999C4",
"$	c #C899C3",
"%	c #C798C2",
"&	c #F4F5F6",
"*	c #C596C0",
"=	c #BC8DB7",
"-	c #C191BB",
";	c #B284AD",
">	c #C091BB",
",	c #C898C3",
"'	c #BD8EB8",
")	c #B082AB",
"!	c #AD7FA8",
"~	c #B183AC",
"{	c #AF80AA",
"]	c #72527D",
"            ",
" .+@@###@@$ ",
" %@######## ",
" %@&&##&&## ",
" *@&&&&&&@$ ",
" =$@&&&&@+- ",
" ;>,&&&&%') ",
" !~&&&&&&{! ",
" !!&&))&&!! ",
" !!!!!!!!!! ",
" !!!!!!!!!! ",
"]           "};
