/* XPM */
static char * maximize_active_xpm[] = {
"12 12 26 1",
" 	c #75507B",
".	c #74507B",
"+	c #C293BD",
"@	c #F4F5F6",
"#	c #C192BC",
"$	c #BE8FB8",
"%	c #C192BB",
"&	c #BF90BA",
"*	c #BB8CB6",
"=	c #B486AF",
"-	c #B889B3",
";	c #BA8CB5",
">	c #B98BB4",
",	c #B88AB3",
"'	c #B485AE",
")	c #B183AC",
"!	c #AE80A9",
"~	c #AF81AA",
"{	c #B082AB",
"]	c #AD7FA8",
"^	c #AC80A9",
"/	c #74517C",
"(	c #72527D",
"_	c #73517C",
":	c #71537D",
"<	c #72537D",
"          . ",
" ++++++++++ ",
" ++++++++++ ",
" ++@@@@@@+# ",
" $%@@@@@@&* ",
" =-@*;>,@') ",
" !~@{~!]@]] ",
" ]]@]]]]@]] ",
" ]]@@@@@@]] ",
" ]]]]]]]]]] ",
" ^]]]]]]]]] ",
"   /( (_:<  "};
