/* XPM */
static char * menu_active_xpm[] = {
"12 12 33 1",
" 	c #75507B",
".	c #C092BB",
"+	c #C797C1",
"@	c #C999C3",
"#	c #C898C2",
"$	c #C495BE",
"%	c #BB8DB6",
"&	c #C596C0",
"*	c #C999C4",
"=	c #C697C1",
"-	c #BD8EB8",
";	c #F4F5F6",
">	c #C798C2",
",	c #C798C1",
"'	c #C899C3",
")	c #BE8FB9",
"!	c #C394BE",
"~	c #C394BD",
"{	c #B789B2",
"]	c #B385AE",
"^	c #B788B1",
"/	c #BA8BB5",
"(	c #BF91BA",
"_	c #C495BF",
":	c #C192BB",
"<	c #B284AD",
"[	c #AD7FA8",
"}	c #AE80A9",
"|	c #AF81AA",
"1	c #B183AC",
"2	c #B688B1",
"3	c #B486AF",
"4	c #B182AC",
"            ",
" .+@@@@@#$% ",
" &@@*@**@=- ",
" =@@@;;@@>- ",
" +@*@;;*@,% ",
" &';;;;;;+% ",
" )!;;;;;;~{ ",
" ]^/(;;_:/< ",
" [}|1;;234} ",
" [[[[[}}[[[ ",
" [[[[[[[[[[ ",
"            "};
