/* XPM */
static char * minimize_active_xpm[] = {
"12 12 25 1",
" 	c #75507B",
".	c #C495BF",
"+	c #C999C3",
"@	c #C999C4",
"#	c #C899C3",
"$	c #C293BD",
"%	c #C696C0",
"&	c #C797C1",
"*	c #B587B0",
"=	c #C596BF",
"-	c #C798C2",
";	c #BD8EB8",
">	c #AE80A9",
",	c #B687B1",
"'	c #C898C2",
")	c #C899C2",
"!	c #BB8CB6",
"~	c #B082AB",
"{	c #AD7FA8",
"]	c #B384AD",
"^	c #B98BB4",
"/	c #BC8EB7",
"(	c #BA8CB5",
"_	c #B385AE",
":	c #FFFFFF",
"            ",
" .++@@@@+#$ ",
" %+@@@@@@+& ",
" $++@@@@@+% ",
" *=++@@@+-; ",
" >,$'++)=!~ ",
" {>]^//(_>{ ",
" {{::::::{{ ",
" {{::::::{{ ",
" {{{{{{{{{{ ",
" {{{{{{{{{{ ",
"            "};
