/* XPM */
static char * shade_toggled_active_xpm[] = {
"12 12 29 1",
" 	c #75507B",
".	c #C696C0",
"+	c #C899C3",
"@	c #C999C3",
"#	c #C798C2",
"$	c #C999C4",
"%	c #C697C1",
"&	c #F4F5F6",
"*	c #C595C0",
"=	c #C797C1",
"-	c #C495BE",
";	c #C293BC",
">	c #C192BC",
",	c #B88AB3",
"'	c #C293BD",
")	c #C294BD",
"!	c #B98BB4",
"~	c #B082AB",
"{	c #B788B2",
"]	c #BE8FB8",
"^	c #C394BD",
"/	c #BD8EB7",
"(	c #B688B1",
"_	c #B182AC",
":	c #AD7FA8",
"<	c #AE80A9",
"[	c #B284AD",
"}	c #B687B0",
"|	c #B486AF",
"            ",
" .+@@@@@@@# ",
" +@$@@$$@@% ",
" +@&&&&&&@* ",
" =@&&&&&&+- ",
" ;+@@$@@@#> ",
" ,'#&&&&#)! ",
" ~{]^&&;/(_ ",
" :<[}((|~:: ",
" :::<<<:::: ",
" :::::::::: ",
"            "};
