/* XPM */
static char * stick_toggled_active_xpm[] = {
"12 12 24 1",
" 	c #75507B",
".	c #C798C2",
"+	c #C999C3",
"@	c #C999C4",
"#	c #C697C0",
"$	c #C898C2",
"%	c #C596BF",
"&	c #C595BF",
"*	c #BC8EB7",
"=	c #C696C0",
"-	c #F4F5F6",
";	c #C899C3",
">	c #C596C0",
",	c #BC8DB7",
"'	c #B385AE",
")	c #BD8EB8",
"!	c #C494BE",
"~	c #B384AE",
"{	c #AE80A9",
"]	c #BA8BB5",
"^	c #C394BD",
"/	c #B284AD",
"(	c #AD7FA8",
"_	c #B182AC",
"            ",
" .+@@@@@@+# ",
" $+@@@@@@+. ",
" %+@@@@@@+& ",
" *=+----;>, ",
" ')&-+--!,~ ",
" {']--^-]/{ ",
" ({_----_{( ",
" (((({{(((( ",
" (((((((((( ",
" (((((((((( ",
"            "};
