/* XPM */
static char * title_focus_xpm[] = {
"1 18 16 1",
" 	c #75507B",
".	c #CC9DC6",
"+	c #C899C4",
"@	c #C696C1",
"#	c #C294BD",
"$	c #BF90BA",
"%	c #BC8DB7",
"&	c #B98AB4",
"*	c #B486B0",
"=	c #B283AD",
"-	c #AF80A9",
";	c #AB7DA6",
">	c #A87AA3",
",	c #A477A0",
"'	c #A3769E",
")	c #A3759E",
" ",
".",
"+",
"@",
"#",
"$",
"%",
"&",
"*",
"=",
"-",
";",
">",
",",
"'",
"'",
"'",
")"};
