/* XPM */
static char * unselected_active_xpm[] = {
"13 13 2 1",
" 	c #75507B",
".	c #AD7FA8",
"             ",
" ........... ",
" ........... ",
" ........... ",
" ........... ",
" ........... ",
" ........... ",
" ........... ",
" ........... ",
" ........... ",
" ........... ",
" ........... ",
"             "};
