/* XPM */
static char * closeA_xpm[] = {
"19 38 99 2",
"  	c None",
". 	c #BA75AE",
"+ 	c #863C76",
"@ 	c #9E5490",
"# 	c #B773AC",
"$ 	c #823A74",
"% 	c #7A336C",
"& 	c #954A88",
"* 	c #7F3870",
"= 	c #783169",
"- 	c #934784",
"; 	c #D59ACC",
"> 	c #C686BC",
", 	c #B570A9",
"' 	c #7E3870",
") 	c #8F4581",
"! 	c #AE68A1",
"~ 	c #AF5AA5",
"{ 	c #B26EA7",
"] 	c #7B356C",
"^ 	c #8C427D",
"/ 	c #C280B8",
"( 	c #B35EAA",
"_ 	c #64305E",
": 	c #AE67A1",
"< 	c #B06BA4",
"[ 	c #76346A",
"} 	c #88417B",
"| 	c #BF7EB5",
"1 	c #B863AF",
"2 	c #FFEFEE",
"3 	c #B863AE",
"4 	c #AB659E",
"5 	c #AD69A2",
"6 	c #753367",
"7 	c #863F79",
"8 	c #BD7DB3",
"9 	c #BC68B3",
"0 	c #A9639C",
"a 	c #AB67A0",
"b 	c #713064",
"c 	c #823C76",
"d 	c #BB78B1",
"e 	c #C16DB8",
"f 	c #A66099",
"g 	c #A8649D",
"h 	c #8C4780",
"i 	c #803A73",
"j 	c #B977AF",
"k 	c #AC56A1",
"l 	c #AB56A1",
"m 	c #A45E97",
"n 	c #A6629B",
"o 	c #89457E",
"p 	c #7D3971",
"q 	c #B874AD",
"r 	c #A8539E",
"s 	c #A15D95",
"t 	c #A46099",
"u 	c #88447E",
"v 	c #7D3871",
"w 	c #B673AD",
"x 	c #A5509A",
"y 	c #9F5D95",
"z 	c #A35F99",
"A 	c #88437C",
"B 	c #7D3770",
"C 	c #B672AC",
"D 	c #A24C97",
"E 	c #9F5C94",
"F 	c #A35E98",
"G 	c #87427C",
"H 	c #7B3670",
"I 	c #B572AC",
"J 	c #9F4994",
"K 	c #9E5B94",
"L 	c #A25D98",
"M 	c #86417C",
"N 	c #7A3570",
"O 	c #C683BE",
"P 	c #9B4590",
"Q 	c #9C5793",
"R 	c #A15C98",
"S 	c #833F79",
"T 	c #86417B",
"U 	c #7A356F",
"V 	c #933E87",
"W 	c #96408B",
"X 	c #A15C97",
"Y 	c #A05B97",
"Z 	c #823E79",
"` 	c #85407B",
" .	c #79356F",
"..	c #A46B9E",
"+.	c #874C80",
"@.	c #894F83",
"#.	c #8B5E87",
"$.	c #3D1C39",
"%.	c #000000",
". . + @ @ @ @ @ @ @ @ @ @ @ + . . . . ",
"# $ % & & & & & & & & & & & % $ # # # ",
"* = - ; > > > > > > > > > ; - = * , , ",
"' ) ! ~ ~ ~ ~ ~ ~ ~ ~ ~ ~ ~ ! ) ' { { ",
"] ^ / ( ( _ _ ( ( ( _ _ ( ( : ^ ] < < ",
"[ } | 1 _ 2 2 _ 3 _ 2 2 _ 1 4 } [ 5 5 ",
"6 7 8 9 _ 2 2 2 _ 2 2 2 _ 9 0 7 6 a a ",
"b c d e e _ 2 2 2 2 2 _ e e f c b g g ",
"h i j k l k _ 2 2 2 _ k k k m i h n n ",
"o p q r r _ 2 2 2 2 2 _ r r s p o t t ",
"u v w x _ 2 2 2 _ 2 2 2 _ x y v u z z ",
"A B C D _ 2 2 _ D _ 2 2 _ D E B A F F ",
"G H I J J _ _ J J J _ _ J J K H G L L ",
"M N O P P P P P P P P P P P Q N M R R ",
"S T U V W W W W W W W W W V U T S X X ",
"Y Z `  . . . . . . . . . . .` Z Y Y Y ",
"....+.@.@.@.@.@.@.@.@.@.@.@.+.........",
"#.#.#.#.#.#.#.#.#.#.#.#.#.#.#.#.#.#.#.",
"$.$.$.$.$.$.$.$.$.$.$.$.$.$.$.$.$.$.$.",
"%.%.%.%.%.%.%.%.%.%.%.%.%.%.%.%.%.%.%.",
"%.%.%.%.%.%.%.%.%.%.%.%.%.%.%.%.%.%.%.",
"%.%.%.%.%.%.%.%.%.%.%.%.%.%.%.%.%.%.%.",
"%.%.%.%.%.%.%.%.%.%.%.%.%.%.%.%.%.%.%.",
"%.%.%.%.%.%.%.%.%.%.%.%.%.%.%.%.%.%.%.",
"%.%.%.%.%.%.%.%.%.%.%.%.%.%.%.%.%.%.%.",
"%.%.%.%.%.%.%.%.%.%.%.%.%.%.%.%.%.%.%.",
"%.%.%.%.%.%.%.%.%.%.%.%.%.%.%.%.%.%.%.",
"%.%.%.%.%.%.%.%.%.%.%.%.%.%.%.%.%.%.%.",
"%.%.%.%.%.%.%.%.%.%.%.%.%.%.%.%.%.%.%.",
"%.%.%.%.%.%.%.%.%.%.%.%.%.%.%.%.%.%.%.",
"%.%.%.%.%.%.%.%.%.%.%.%.%.%.%.%.%.%.%.",
"%.%.%.%.%.%.%.%.%.%.%.%.%.%.%.%.%.%.%.",
"%.%.%.%.%.%.%.%.%.%.%.%.%.%.%.%.%.%.%.",
"%.%.%.%.%.%.%.%.%.%.%.%.%.%.%.%.%.%.%.",
"%.%.%.%.%.%.%.%.%.%.%.%.%.%.%.%.%.%.%.",
"%.%.%.%.%.%.%.%.%.%.%.%.%.%.%.%.%.%.%.",
"%.%.%.%.%.%.%.%.%.%.%.%.%.%.%.%.%.%.%.",
"%.%.%.%.%.%.%.%.%.%.%.%.%.%.%.%.%.%.%."};
