/* XPM */
static char * closeO_xpm[] = {
"19 38 473 2",
"  	c None",
". 	c #BC78B0",
"+ 	c #C280B7",
"@ 	c #934583",
"# 	c #AC619E",
"$ 	c #AD62A0",
"% 	c #AE63A1",
"& 	c #AF64A2",
"* 	c #B064A3",
"= 	c #B065A3",
"- 	c #AB609E",
"; 	c #924582",
"> 	c #C27FB6",
", 	c #BC77B0",
"' 	c #BA75AE",
") 	c #C07EB6",
"! 	c #904381",
"~ 	c #8A3D7B",
"{ 	c #A65899",
"] 	c #A85A9B",
"^ 	c #A95B9D",
"/ 	c #AA5C9E",
"( 	c #AB5C9E",
"_ 	c #AB5D9E",
": 	c #AA5C9D",
"< 	c #A95B9C",
"[ 	c #A75A9B",
"} 	c #893C7A",
"| 	c #8F4380",
"1 	c #BF7DB5",
"2 	c #B773AC",
"3 	c #8C417D",
"4 	c #883B79",
"5 	c #A55697",
"6 	c #E0AED9",
"7 	c #D59DCD",
"8 	c #D69ECE",
"9 	c #D79FCF",
"0 	c #D8A0D0",
"a 	c #D59CCD",
"b 	c #E0ADD9",
"c 	c #A45596",
"d 	c #873A78",
"e 	c #8B407C",
"f 	c #B570A9",
"g 	c #8E4380",
"h 	c #A15394",
"i 	c #C07CB4",
"j 	c #C36FBA",
"k 	c #C571BC",
"l 	c #C673BE",
"m 	c #C874BF",
"n 	c #C875C0",
"o 	c #C975C0",
"p 	c #C774BF",
"q 	c #C672BD",
"r 	c #BF7BB3",
"s 	c #A05393",
"t 	c #8D427E",
"u 	c #B26EA7",
"v 	c #8D417D",
"w 	c #A15292",
"x 	c #D398CB",
"y 	c #C976C1",
"z 	c #CB78C3",
"A 	c #81427A",
"B 	c #83437C",
"C 	c #CE7DC7",
"D 	c #CF7DC8",
"E 	c #CE7CC7",
"F 	c #82437B",
"G 	c #CA78C3",
"H 	c #C875C1",
"I 	c #C17DB6",
"J 	c #9F5191",
"K 	c #8C407C",
"L 	c #B06BA4",
"M 	c #89407D",
"N 	c #9E5292",
"O 	c #D298CA",
"P 	c #CF7EC8",
"Q 	c #FFF7F6",
"R 	c #FFF7F7",
"S 	c #874680",
"T 	c #D686CE",
"U 	c #FFF6F6",
"V 	c #C07CB5",
"W 	c #9D5191",
"X 	c #88407C",
"Y 	c #AD69A2",
"Z 	c #8A407B",
"` 	c #9E5191",
" .	c #D386CC",
"..	c #84447D",
"+.	c #FFF8F7",
"@.	c #FFF8F8",
"#.	c #8B4983",
"$.	c #83447C",
"%.	c #D385CB",
"&.	c #9D5090",
"*.	c #883F7A",
"=.	c #AB67A0",
"-.	c #873D79",
";.	c #9B4E8F",
">.	c #D195C9",
",.	c #D88CD2",
"'.	c #DB8FD4",
").	c #894782",
"!.	c #FFF9F8",
"~.	c #FFF9F9",
"{.	c #884780",
"].	c #DA8ED3",
"^.	c #D88BD1",
"/.	c #BF7AB3",
"(.	c #9A4D8E",
"_.	c #853C78",
":.	c #A8649D",
"<.	c #A25997",
"[.	c #9A4C8D",
"}.	c #D194C8",
"|.	c #C973C0",
"1.	c #CB77C3",
"2.	c #CF7AC6",
"3.	c #8D4A86",
"4.	c #FFFAF9",
"5.	c #FFFAFA",
"6.	c #8C4A85",
"7.	c #CE79C5",
"8.	c #CB75C1",
"9.	c #C872BE",
"0.	c #BE78B2",
"a.	c #994B8B",
"b.	c #A15895",
"c.	c #A6629B",
"d.	c #9F5795",
"e.	c #974B8B",
"f.	c #D091C7",
"g.	c #C670BD",
"h.	c #C973C1",
"i.	c #894882",
"j.	c #C872BF",
"k.	c #C56FBC",
"l.	c #BB77B1",
"m.	c #964A8A",
"n.	c #9E5693",
"o.	c #A46099",
"p.	c #9E5594",
"q.	c #974A8A",
"r.	c #CE90C7",
"s.	c #C36CB9",
"t.	c #904C89",
"u.	c #85457E",
"v.	c #C26BB8",
"w.	c #B977B0",
"x.	c #964989",
"y.	c #9D5493",
"z.	c #A35F99",
"A.	c #9D5392",
"B.	c #964889",
"C.	c #CD8EC5",
"D.	c #BF66B6",
"E.	c #C96FC0",
"F.	c #8C4985",
"G.	c #BE65B4",
"H.	c #B875AE",
"I.	c #954787",
"J.	c #9C5290",
"K.	c #A35E98",
"L.	c #9B5190",
"M.	c #934687",
"N.	c #CB8CC3",
"O.	c #BB61B1",
"P.	c #BE64B4",
"Q.	c #86457F",
"R.	c #C469BA",
"S.	c #C368B9",
"T.	c #BD63B3",
"U.	c #BA61B0",
"V.	c #B673AD",
"W.	c #914586",
"X.	c #9A508F",
"Y.	c #A25D98",
"Z.	c #994F8F",
"`.	c #904386",
" +	c #D79CD1",
".+	c #B65BAB",
"++	c #B85DAE",
"@+	c #BA5EB0",
"#+	c #BC60B2",
"$+	c #BD61B3",
"%+	c #BC60B3",
"&+	c #BB5FB1",
"*+	c #B95EAF",
"=+	c #B75CAD",
"-+	c #B55AAA",
";+	c #B36CAA",
">+	c #8F4385",
",+	c #984E8E",
"'+	c #A15C98",
")+	c #944B8A",
"!+	c #914485",
"~+	c #AB50A0",
"{+	c #B155A6",
"]+	c #B356A8",
"^+	c #B457AA",
"/+	c #B558AA",
"(+	c #B558AB",
"_+	c #B357A9",
":+	c #B256A7",
"<+	c #B054A5",
"[+	c #AB509F",
"}+	c #904384",
"|+	c #994F8E",
"1+	c #934B89",
"2+	c #A15C97",
"3+	c #AE69A6",
"4+	c #944B8B",
"5+	c #904485",
"6+	c #924587",
"7+	c #934689",
"8+	c #95478A",
"9+	c #95478B",
"0+	c #96488B",
"a+	c #94478A",
"b+	c #934688",
"c+	c #914587",
"d+	c #8F4384",
"e+	c #934A8A",
"f+	c #AD68A4",
"g+	c #A05B97",
"h+	c #A86FA2",
"i+	c #B27AAC",
"j+	c #995A92",
"k+	c #9C6097",
"l+	c #9E6199",
"m+	c #A0639A",
"n+	c #A1649B",
"o+	c #A1649C",
"p+	c #A0639B",
"q+	c #9F6299",
"r+	c #9E6198",
"s+	c #9C5F96",
"t+	c #985A91",
"u+	c #B179AB",
"v+	c #A46B9E",
"w+	c #8B5E87",
"x+	c #3D1C39",
"y+	c #B872AB",
"z+	c #B26BA5",
"A+	c #7A336A",
"B+	c #914882",
"C+	c #8F4680",
"D+	c #8E457F",
"E+	c #8D447E",
"F+	c #8C437D",
"G+	c #8E4580",
"H+	c #904781",
"I+	c #924983",
"J+	c #7B346B",
"K+	c #B36CA6",
"L+	c #B873AC",
"M+	c #AF69A3",
"N+	c #753167",
"O+	c #6B295D",
"P+	c #843B77",
"Q+	c #823A75",
"R+	c #813973",
"S+	c #803872",
"T+	c #7F3772",
"U+	c #813873",
"V+	c #823974",
"W+	c #833B76",
"X+	c #6C2A5E",
"Y+	c #763269",
"Z+	c #B06AA4",
"`+	c #722F63",
" @	c #68275A",
".@	c #813872",
"+@	c #C986BE",
"@@	c #B66FAA",
"#@	c #B56EA9",
"$@	c #B46CA8",
"%@	c #B56DA9",
"&@	c #B66EAA",
"*@	c #B770AB",
"=@	c #CA87BF",
"-@	c #833A73",
";@	c #6A285B",
">@	c #743065",
",@	c #6F2D61",
"'@	c #7D376F",
")@	c #9C548E",
"!@	c #9B4590",
"~@	c #99428D",
"{@	c #97418C",
"]@	c #96408B",
"^@	c #953F8A",
"/@	c #98428D",
"(@	c #9A438E",
"_@	c #9C4691",
":@	c #9D558F",
"<@	c #7E3870",
"[@	c #702F63",
"}@	c #6A295B",
"|@	c #783268",
"1@	c #B168A5",
"2@	c #9D4692",
"3@	c #9B4390",
"4@	c #461D41",
"5@	c #451C40",
"6@	c #973F8C",
"7@	c #973E8C",
"8@	c #471D42",
"9@	c #9C4591",
"0@	c #9E4794",
"a@	c #9B528D",
"b@	c #79336A",
"c@	c #6B2A5D",
"d@	c #632858",
"e@	c #723064",
"f@	c #AB649F",
"g@	c #A14796",
"h@	c #461C41",
"i@	c #FFE7E5",
"j@	c #FFE6E5",
"k@	c #40193B",
"l@	c #9A3F8D",
"m@	c #41193C",
"n@	c #A24997",
"o@	c #964E87",
"p@	c #733166",
"q@	c #652959",
"r@	c #612653",
"s@	c #6E2D61",
"t@	c #A8619C",
"u@	c #A44A99",
"v@	c #431B3E",
"w@	c #FFE6E4",
"x@	c #FFE5E4",
"y@	c #FFE5E3",
"z@	c #3C1638",
"A@	c #A64C9B",
"B@	c #924A83",
"C@	c #702E63",
"D@	c #622755",
"E@	c #5C234F",
"F@	c #692A5D",
"G@	c #A45B98",
"H@	c #A94D9E",
"I@	c #A64A9B",
"J@	c #3E1839",
"K@	c #FFE4E2",
"L@	c #FFE4E3",
"M@	c #A84C9D",
"N@	c #AA4FA0",
"O@	c #8D477F",
"P@	c #6B2B5F",
"Q@	c #5E2451",
"R@	c #76356A",
"S@	c #662859",
"T@	c #A15A95",
"U@	c #8F3882",
"V@	c #8A357F",
"W@	c #88317B",
"X@	c #391535",
"Y@	c #FFE3E2",
"Z@	c #FFE3E1",
"`@	c #3B1636",
" #	c #8A337D",
".#	c #8D3781",
"+#	c #903A84",
"@#	c #8A447C",
"##	c #68295C",
"$#	c #78376C",
"%#	c #733468",
"&#	c #632757",
"*#	c #A05793",
"=#	c #8A367E",
"-#	c #87327B",
";#	c #3D1738",
">#	c #3F183A",
",#	c #88347D",
"'#	c #8C3780",
")#	c #87437A",
"!#	c #652859",
"~#	c #75356A",
"{#	c #733368",
"]#	c #632658",
"^#	c #87337A",
"/#	c #411A3C",
"(#	c #381433",
"_#	c #89357D",
":#	c #86447B",
"<#	c #66285A",
"[#	c #74346A",
"}#	c #733367",
"|#	c #652658",
"1#	c #9F5693",
"2#	c #853278",
"3#	c #3C1637",
"4#	c #7B296E",
"5#	c #441C3F",
"6#	c #86337A",
"7#	c #87447B",
"8#	c #753469",
"9#	c #642659",
"0#	c #9F5895",
"a#	c #833177",
"b#	c #802E74",
"c#	c #421A3E",
"d#	c #7B2A6F",
"e#	c #421A3D",
"f#	c #441B3F",
"g#	c #823076",
"h#	c #853279",
"i#	c #87447C",
"j#	c #66285B",
"k#	c #75346A",
"l#	c #74336A",
"m#	c #65275B",
"n#	c #B56BAC",
"o#	c #813075",
"p#	c #7F2E73",
"q#	c #7C2C70",
"r#	c #7A2A6E",
"s#	c #79296D",
"t#	c #7B2B6F",
"u#	c #7E2D72",
"v#	c #802F74",
"w#	c #86437D",
"x#	c #67285D",
"y#	c #76356C",
"z#	c #733369",
"A#	c #64275A",
"B#	c #7B2C6F",
"C#	c #7C2C71",
"D#	c #7A2A6F",
"E#	c #78296C",
"F#	c #78296D",
"G#	c #792A6E",
"H#	c #7B2B70",
"I#	c #7D2D72",
"J#	c #7D2D70",
"K#	c #66275B",
"L#	c #75356B",
"M#	c #934E8A",
"N#	c #723269",
"O#	c #723268",
"P#	c #612558",
"Q#	c #602456",
"R#	c #5E2355",
"S#	c #5E2354",
"T#	c #5F2455",
"U#	c #612557",
"V#	c #622659",
"W#	c #65285B",
"X#	c #73336A",
"Y#	c #95508B",
"Z#	c #A0679A",
"`#	c #975E91",
" $	c #773F70",
".$	c #773F71",
"+$	c #753E6F",
"@$	c #743C6D",
"#$	c #733B6C",
"$$	c #723B6C",
"%$	c #723A6B",
"&$	c #733C6D",
"*$	c #743D6E",
"=$	c #763F70",
"-$	c #784072",
";$	c #783F71",
">$	c #995F92",
". + @ # $ % & * = * & % $ - ; > , ' ' ",
") ! ~ { ] ^ / ( _ ( : < [ { } | 1 2 2 ",
"3 4 5 6 7 8 9 0 0 0 9 8 a b c d e f f ",
"g h i j k l m n o n p q k j r s t u u ",
"v w x y z A B C D E F A G H I J K L L ",
"M N O P F Q R S T S Q U A C V W X Y Y ",
"Z ` O  ...R +.@.#.@.+.Q $.%.V &.*.=.=.",
"-.;.>.,.'.).@.!.~.!.@.{.].^./.(._.:.:.",
"<.[.}.|.1.2.3.4.5.~.6.7.8.9.0.a.b.c.c.",
"d.e.f.g.h.#.~.5.5.4.!.i.j.k.l.m.n.o.o.",
"p.q.r.s.S @.!.~.t.~.@.+.u.v.w.x.y.z.z.",
"A.B.C.D.u.+.@.6.E.F.@.R ..G.H.I.J.K.K.",
"L.M.N.O.P.Q.{.R.R.S.S u.T.U.V.W.X.Y.Y.",
"Z.`. +.+++@+#+$+$+%+&+*+=+-+;+>+,+'+'+",
")+X.!+~+{+]+^+/+(+/+_+:+<+[+}+|+1+2+2+",
"3+4+Z.5+6+7+8+9+0+9+a+b+c+d+,+e+f+g+g+",
"h+i+j+k+l+m+n+o+o+o+p+q+r+s+t+u+h+v+v+",
"w+w+w+w+w+w+w+w+w+w+w+w+w+w+w+w+w+w+w+",
"x+x+x+x+x+x+x+x+x+x+x+x+x+x+x+x+x+x+x+",
"y+z+A+B+C+D+E+F+F+E+D+G+H+I+J+K+L+' ' ",
"M+N+O+P+Q+R+S+T+T+T+U+V+W+_.X+Y+Z+2 2 ",
"`+ @.@+@@@#@$@$@$@$@%@&@*@=@-@;@>@f f ",
",@'@)@!@~@{@]@^@^@^@]@/@(@_@:@<@[@u u ",
"}@|@1@2@3@4@5@6@7@6@5@8@9@0@a@b@c@L L ",
"d@e@f@g@h@i@j@k@l@m@j@i@8@n@o@p@q@Y Y ",
"r@s@t@u@v@w@x@y@z@x@w@j@5@A@B@C@D@=.=.",
"E@F@G@H@I@J@y@K@K@L@y@k@M@N@O@P@Q@:.:.",
"R@S@T@U@V@W@X@Y@Z@K@`@ #.#+#@###$#c.c.",
"%#&#*#=#-#;#K@Y@Z@K@y@>#,#'#)#!#~#o.o.",
"{#]#n.^#/#x@L@K@(#L@y@w@v@_#:#<#[#z.z.",
"}#|#1#2#v@w@x@3#4#;#x@j@5#6#7#<#8#K.K.",
"{#9#0#a#b#c#k@d#4#d#e#f#g#h#i#j#k#Y.Y.",
"l#m#n#o#p#q#d#r#s#r#t#u#v#a#w#x#y#'+'+",
"z#{#A#B#C#D#s#E#E#F#G#H#I#J#K#k#L#2+2+",
"M#N#O#A#P#Q#R#S#S#S#T#U#V#W#z#X#Y#g+g+",
"Z#`# $.$+$@$#$$$%$$$&$*$=$-$;$>$Z#v+v+",
"w+w+w+w+w+w+w+w+w+w+w+w+w+w+w+w+w+w+w+",
"x+x+x+x+x+x+x+x+x+x+x+x+x+x+x+x+x+x+x+"};
