/* XPM */
static char * frameATL_xpm[] = {
"5 22 35 1",
" 	c None",
".	c #513B50",
"+	c #5C2E6E",
"@	c #5E455A",
"#	c #C9ABC5",
"$	c #DDAAE5",
"%	c #43283B",
"&	c #BC9EB6",
"*	c #BA75AE",
"=	c #C698BD",
"-	c #B773AC",
";	c #341E33",
">	c #CCA0C3",
",	c #C193B7",
"'	c #B570A9",
")	c #B26EA7",
"!	c #B06BA4",
"~	c #AD69A2",
"{	c #AB67A0",
"]	c #A8649D",
"^	c #A6629B",
"/	c #A46099",
"(	c #A35F99",
"_	c #A35E98",
":	c #A25D98",
"<	c #A15C98",
"[	c #A15C97",
"}	c #A05B97",
"|	c #A46B9E",
"1	c #916D93",
"2	c #9C6A9B",
"3	c #8B5E87",
"4	c #6D6A68",
"5	c #3A1F3E",
"6	c #3D1C39",
"     ",
"   .+",
"  @#$",
" %&**",
" %=--",
";>,''",
";))))",
";!!!!",
";~~~~",
";{{{{",
";]]]]",
";^^^^",
";////",
";((((",
";____",
";::::",
";<<<<",
";[[[[",
";}}}}",
";||||",
";1233",
"45666"};
