/* XPM */
static char * maximizeA_xpm[] = {
"19 38 98 2",
"  	c None",
". 	c #BA75AE",
"+ 	c #863C76",
"@ 	c #9E5490",
"# 	c #B773AC",
"$ 	c #823A74",
"% 	c #7A336C",
"& 	c #954A88",
"* 	c #7F3870",
"= 	c #783169",
"- 	c #934784",
"; 	c #D59ACC",
"> 	c #C686BC",
", 	c #B570A9",
"' 	c #7E3870",
") 	c #8F4581",
"! 	c #AE68A1",
"~ 	c #AF5AA5",
"{ 	c #B26EA7",
"] 	c #7B356C",
"^ 	c #8C427D",
"/ 	c #C280B8",
"( 	c #B35EAA",
"_ 	c #64305E",
": 	c #AE67A1",
"< 	c #B06BA4",
"[ 	c #76346A",
"} 	c #88417B",
"| 	c #BF7EB5",
"1 	c #B863AF",
"2 	c #FFEFEE",
"3 	c #AB659E",
"4 	c #AD69A2",
"5 	c #753367",
"6 	c #863F79",
"7 	c #BD7DB3",
"8 	c #BC68B3",
"9 	c #A9639C",
"0 	c #AB67A0",
"a 	c #713064",
"b 	c #823C76",
"c 	c #BB78B1",
"d 	c #C16DB8",
"e 	c #A66099",
"f 	c #A8649D",
"g 	c #8C4780",
"h 	c #803A73",
"i 	c #B977AF",
"j 	c #AC56A1",
"k 	c #AB56A1",
"l 	c #A45E97",
"m 	c #A6629B",
"n 	c #89457E",
"o 	c #7D3971",
"p 	c #B874AD",
"q 	c #A8539E",
"r 	c #A15D95",
"s 	c #A46099",
"t 	c #88447E",
"u 	c #7D3871",
"v 	c #B673AD",
"w 	c #A5509A",
"x 	c #9F5D95",
"y 	c #A35F99",
"z 	c #88437C",
"A 	c #7D3770",
"B 	c #B672AC",
"C 	c #A24C97",
"D 	c #9F5C94",
"E 	c #A35E98",
"F 	c #87427C",
"G 	c #7B3670",
"H 	c #B572AC",
"I 	c #9F4994",
"J 	c #9E5B94",
"K 	c #A25D98",
"L 	c #86417C",
"M 	c #7A3570",
"N 	c #C683BE",
"O 	c #9B4590",
"P 	c #9C5793",
"Q 	c #A15C98",
"R 	c #833F79",
"S 	c #86417B",
"T 	c #7A356F",
"U 	c #933E87",
"V 	c #96408B",
"W 	c #A15C97",
"X 	c #A05B97",
"Y 	c #823E79",
"Z 	c #85407B",
"` 	c #79356F",
" .	c #A46B9E",
"..	c #874C80",
"+.	c #894F83",
"@.	c #8B5E87",
"#.	c #3D1C39",
"$.	c #000000",
". . + @ @ @ @ @ @ @ @ @ @ @ + . . . . ",
"# $ % & & & & & & & & & & & % $ # # # ",
"* = - ; > > > > > > > > > ; - = * , , ",
"' ) ! ~ ~ ~ ~ ~ ~ ~ ~ ~ ~ ~ ! ) ' { { ",
"] ^ / ( _ _ _ _ _ _ _ _ _ ( : ^ ] < < ",
"[ } | 1 _ 2 2 2 2 2 2 2 _ 1 3 } [ 4 4 ",
"5 6 7 8 _ 2 2 2 2 2 2 2 _ 8 9 6 5 0 0 ",
"a b c d _ 2 _ _ _ _ _ 2 _ d e b a f f ",
"g h i j _ 2 _ k j j _ 2 _ j l h g m m ",
"n o p q _ 2 _ q q q _ 2 _ q r o n s s ",
"t u v w _ 2 _ _ _ _ _ 2 _ w x u t y y ",
"z A B C _ 2 2 2 2 2 2 2 _ C D A z E E ",
"F G H I _ _ _ _ _ _ _ _ _ I J G F K K ",
"L M N O O O O O O O O O O O P M L Q Q ",
"R S T U V V V V V V V V V U T S R W W ",
"X Y Z ` ` ` ` ` ` ` ` ` ` ` Z Y X X X ",
" . ...+.+.+.+.+.+.+.+.+.+.+... . . . .",
"@.@.@.@.@.@.@.@.@.@.@.@.@.@.@.@.@.@.@.",
"#.#.#.#.#.#.#.#.#.#.#.#.#.#.#.#.#.#.#.",
"$.$.$.$.$.$.$.$.$.$.$.$.$.$.$.$.$.$.$.",
"$.$.$.$.$.$.$.$.$.$.$.$.$.$.$.$.$.$.$.",
"$.$.$.$.$.$.$.$.$.$.$.$.$.$.$.$.$.$.$.",
"$.$.$.$.$.$.$.$.$.$.$.$.$.$.$.$.$.$.$.",
"$.$.$.$.$.$.$.$.$.$.$.$.$.$.$.$.$.$.$.",
"$.$.$.$.$.$.$.$.$.$.$.$.$.$.$.$.$.$.$.",
"$.$.$.$.$.$.$.$.$.$.$.$.$.$.$.$.$.$.$.",
"$.$.$.$.$.$.$.$.$.$.$.$.$.$.$.$.$.$.$.",
"$.$.$.$.$.$.$.$.$.$.$.$.$.$.$.$.$.$.$.",
"$.$.$.$.$.$.$.$.$.$.$.$.$.$.$.$.$.$.$.",
"$.$.$.$.$.$.$.$.$.$.$.$.$.$.$.$.$.$.$.",
"$.$.$.$.$.$.$.$.$.$.$.$.$.$.$.$.$.$.$.",
"$.$.$.$.$.$.$.$.$.$.$.$.$.$.$.$.$.$.$.",
"$.$.$.$.$.$.$.$.$.$.$.$.$.$.$.$.$.$.$.",
"$.$.$.$.$.$.$.$.$.$.$.$.$.$.$.$.$.$.$.",
"$.$.$.$.$.$.$.$.$.$.$.$.$.$.$.$.$.$.$.",
"$.$.$.$.$.$.$.$.$.$.$.$.$.$.$.$.$.$.$.",
"$.$.$.$.$.$.$.$.$.$.$.$.$.$.$.$.$.$.$.",
"$.$.$.$.$.$.$.$.$.$.$.$.$.$.$.$.$.$.$."};
