/* XPM */
static char * maximizeO_xpm[] = {
"19 38 458 2",
"  	c None",
". 	c #BC78B0",
"+ 	c #C280B7",
"@ 	c #934583",
"# 	c #AC619E",
"$ 	c #AD62A0",
"% 	c #AE63A1",
"& 	c #AF64A2",
"* 	c #B064A3",
"= 	c #B065A3",
"- 	c #AB609E",
"; 	c #924582",
"> 	c #C27FB6",
", 	c #BC77B0",
"' 	c #BA75AE",
") 	c #C07EB6",
"! 	c #904381",
"~ 	c #8A3D7B",
"{ 	c #A65899",
"] 	c #A85A9B",
"^ 	c #A95B9D",
"/ 	c #AA5C9E",
"( 	c #AB5C9E",
"_ 	c #AB5D9E",
": 	c #AA5C9D",
"< 	c #A95B9C",
"[ 	c #A75A9B",
"} 	c #893C7A",
"| 	c #8F4380",
"1 	c #BF7DB5",
"2 	c #B773AC",
"3 	c #8C417D",
"4 	c #883B79",
"5 	c #A55697",
"6 	c #E0AED9",
"7 	c #D59DCD",
"8 	c #D69ECE",
"9 	c #D79FCF",
"0 	c #D8A0D0",
"a 	c #D59CCD",
"b 	c #E0ADD9",
"c 	c #A45596",
"d 	c #873A78",
"e 	c #8B407C",
"f 	c #B570A9",
"g 	c #8E4380",
"h 	c #A15394",
"i 	c #C07CB4",
"j 	c #C36FBA",
"k 	c #C571BC",
"l 	c #C673BE",
"m 	c #C874BF",
"n 	c #C875C0",
"o 	c #C975C0",
"p 	c #C774BF",
"q 	c #C672BD",
"r 	c #BF7BB3",
"s 	c #A05393",
"t 	c #8D427E",
"u 	c #B26EA7",
"v 	c #8D417D",
"w 	c #A15292",
"x 	c #D398CB",
"y 	c #C976C1",
"z 	c #7F4178",
"A 	c #81427A",
"B 	c #83437C",
"C 	c #84447D",
"D 	c #83447C",
"E 	c #82437B",
"F 	c #C875C1",
"G 	c #C17DB6",
"H 	c #9F5191",
"I 	c #8C407C",
"J 	c #B06BA4",
"K 	c #89407D",
"L 	c #9E5292",
"M 	c #D298CA",
"N 	c #CF7EC8",
"O 	c #FFF7F6",
"P 	c #FFF7F7",
"Q 	c #FFF6F6",
"R 	c #CE7DC7",
"S 	c #C07CB5",
"T 	c #9D5191",
"U 	c #88407C",
"V 	c #AD69A2",
"W 	c #8A407B",
"X 	c #9E5191",
"Y 	c #D386CC",
"Z 	c #FFF8F7",
"` 	c #FFF8F8",
" .	c #D385CB",
"..	c #9D5090",
"+.	c #883F7A",
"@.	c #AB67A0",
"#.	c #873D79",
"$.	c #9B4E8F",
"%.	c #D195C9",
"&.	c #D88CD2",
"*.	c #86457F",
"=.	c #8B4984",
"-.	c #8D4A86",
";.	c #8E4B87",
">.	c #8A4883",
",.	c #85457E",
"'.	c #D88BD1",
").	c #BF7AB3",
"!.	c #9A4D8E",
"~.	c #853C78",
"{.	c #A8649D",
"].	c #A25997",
"^.	c #9A4C8D",
"/.	c #D194C8",
"(.	c #C973C0",
"_.	c #874680",
":.	c #D47FCC",
"<.	c #D680CD",
"[.	c #D47ECB",
"}.	c #8C4A85",
"|.	c #C872BE",
"1.	c #BE78B2",
"2.	c #994B8B",
"3.	c #A15895",
"4.	c #A6629B",
"5.	c #9F5795",
"6.	c #974B8B",
"7.	c #D091C7",
"8.	c #C670BD",
"9.	c #D27DCB",
"0.	c #D47FCD",
"a.	c #D17CCA",
"b.	c #8D4A85",
"c.	c #86467F",
"d.	c #C56FBC",
"e.	c #BB77B1",
"f.	c #964A8A",
"g.	c #9E5693",
"h.	c #A46099",
"i.	c #9E5594",
"j.	c #974A8A",
"k.	c #CE90C7",
"l.	c #C36CB9",
"m.	c #904C88",
"n.	c #904C89",
"o.	c #8F4B87",
"p.	c #8C4985",
"q.	c #C26BB8",
"r.	c #B977B0",
"s.	c #964989",
"t.	c #9D5493",
"u.	c #A35F99",
"v.	c #9D5392",
"w.	c #964889",
"x.	c #CD8EC5",
"y.	c #BF66B6",
"z.	c #FFF9F8",
"A.	c #BE65B4",
"B.	c #B875AE",
"C.	c #954787",
"D.	c #9C5290",
"E.	c #A35E98",
"F.	c #9B5190",
"G.	c #934687",
"H.	c #CB8CC3",
"I.	c #BB61B1",
"J.	c #884780",
"K.	c #894882",
"L.	c #894781",
"M.	c #BA61B0",
"N.	c #B673AD",
"O.	c #914586",
"P.	c #9A508F",
"Q.	c #A25D98",
"R.	c #994F8F",
"S.	c #904386",
"T.	c #D79CD1",
"U.	c #B65BAB",
"V.	c #B85DAE",
"W.	c #BA5EB0",
"X.	c #BC60B2",
"Y.	c #BD61B3",
"Z.	c #BC60B3",
"`.	c #BB5FB1",
" +	c #B95EAF",
".+	c #B75CAD",
"++	c #B55AAA",
"@+	c #B36CAA",
"#+	c #8F4385",
"$+	c #984E8E",
"%+	c #A15C98",
"&+	c #944B8A",
"*+	c #914485",
"=+	c #AB50A0",
"-+	c #B155A6",
";+	c #B356A8",
">+	c #B457AA",
",+	c #B558AA",
"'+	c #B558AB",
")+	c #B357A9",
"!+	c #B256A7",
"~+	c #B054A5",
"{+	c #AB509F",
"]+	c #904384",
"^+	c #994F8E",
"/+	c #934B89",
"(+	c #A15C97",
"_+	c #AE69A6",
":+	c #944B8B",
"<+	c #904485",
"[+	c #924587",
"}+	c #934689",
"|+	c #95478A",
"1+	c #95478B",
"2+	c #96488B",
"3+	c #94478A",
"4+	c #934688",
"5+	c #914587",
"6+	c #8F4384",
"7+	c #934A8A",
"8+	c #AD68A4",
"9+	c #A05B97",
"0+	c #A86FA2",
"a+	c #B27AAC",
"b+	c #995A92",
"c+	c #9C6097",
"d+	c #9E6199",
"e+	c #A0639A",
"f+	c #A1649B",
"g+	c #A1649C",
"h+	c #A0639B",
"i+	c #9F6299",
"j+	c #9E6198",
"k+	c #9C5F96",
"l+	c #985A91",
"m+	c #B179AB",
"n+	c #A46B9E",
"o+	c #8B5E87",
"p+	c #3D1C39",
"q+	c #B872AB",
"r+	c #B26BA5",
"s+	c #7A336A",
"t+	c #914882",
"u+	c #8F4680",
"v+	c #8E457F",
"w+	c #8D447E",
"x+	c #8C437D",
"y+	c #8E4580",
"z+	c #904781",
"A+	c #924983",
"B+	c #7B346B",
"C+	c #B36CA6",
"D+	c #B873AC",
"E+	c #AF69A3",
"F+	c #753167",
"G+	c #6B295D",
"H+	c #843B77",
"I+	c #823A75",
"J+	c #813973",
"K+	c #803872",
"L+	c #7F3772",
"M+	c #813873",
"N+	c #823974",
"O+	c #833B76",
"P+	c #6C2A5E",
"Q+	c #763269",
"R+	c #B06AA4",
"S+	c #722F63",
"T+	c #68275A",
"U+	c #813872",
"V+	c #C986BE",
"W+	c #B66FAA",
"X+	c #B56EA9",
"Y+	c #B46CA8",
"Z+	c #B56DA9",
"`+	c #B66EAA",
" @	c #B770AB",
".@	c #CA87BF",
"+@	c #833A73",
"@@	c #6A285B",
"#@	c #743065",
"$@	c #6F2D61",
"%@	c #7D376F",
"&@	c #9C548E",
"*@	c #9B4590",
"=@	c #99428D",
"-@	c #97418C",
";@	c #96408B",
">@	c #953F8A",
",@	c #98428D",
"'@	c #9A438E",
")@	c #9C4691",
"!@	c #9D558F",
"~@	c #7E3870",
"{@	c #702F63",
"]@	c #6A295B",
"^@	c #783268",
"/@	c #B168A5",
"(@	c #9D4692",
"_@	c #481E43",
":@	c #461D41",
"<@	c #451C40",
"[@	c #441B3F",
"}@	c #431B3E",
"|@	c #471D42",
"1@	c #4A1F45",
"2@	c #9E4794",
"3@	c #9B528D",
"4@	c #79336A",
"5@	c #6B2A5D",
"6@	c #632858",
"7@	c #723064",
"8@	c #AB649F",
"9@	c #A14796",
"0@	c #461C41",
"a@	c #FFE7E5",
"b@	c #FFE6E5",
"c@	c #FFE6E4",
"d@	c #A24997",
"e@	c #964E87",
"f@	c #733166",
"g@	c #652959",
"h@	c #612653",
"i@	c #6E2D61",
"j@	c #A8619C",
"k@	c #A44A99",
"l@	c #FFE5E4",
"m@	c #FFE5E3",
"n@	c #A64C9B",
"o@	c #924A83",
"p@	c #702E63",
"q@	c #622755",
"r@	c #5C234F",
"s@	c #692A5D",
"t@	c #A45B98",
"u@	c #A94D9E",
"v@	c #421A3D",
"w@	c #3B1637",
"x@	c #391435",
"y@	c #391434",
"z@	c #3A1536",
"A@	c #3D1738",
"B@	c #AA4FA0",
"C@	c #8D477F",
"D@	c #6B2B5F",
"E@	c #5E2451",
"F@	c #76356A",
"G@	c #662859",
"H@	c #A15A95",
"I@	c #8F3882",
"J@	c #41193C",
"K@	c #391535",
"L@	c #812B75",
"M@	c #812A74",
"N@	c #842D76",
"O@	c #3B1636",
"P@	c #421A3E",
"Q@	c #903A84",
"R@	c #8A447C",
"S@	c #68295C",
"T@	c #78376C",
"U@	c #733468",
"V@	c #632757",
"W@	c #A05793",
"X@	c #8A367E",
"Y@	c #40193B",
"Z@	c #7D2971",
"`@	c #7B276F",
" #	c #7E2A72",
".#	c #8C3780",
"+#	c #87437A",
"@#	c #652859",
"##	c #75356A",
"$#	c #733368",
"%#	c #632658",
"&#	c #87337A",
"*#	c #411A3C",
"=#	c #3B1536",
"-#	c #381434",
";#	c #381433",
">#	c #3A1535",
",#	c #3C1638",
"'#	c #89357D",
")#	c #86447B",
"!#	c #66285A",
"~#	c #74346A",
"{#	c #733367",
"]#	c #652658",
"^#	c #9F5693",
"/#	c #853278",
"(#	c #441C3F",
"_#	c #86337A",
":#	c #87447B",
"<#	c #753469",
"[#	c #642659",
"}#	c #9F5895",
"|#	c #833177",
"1#	c #3F183A",
"2#	c #853279",
"3#	c #87447C",
"4#	c #66285B",
"5#	c #75346A",
"6#	c #74336A",
"7#	c #65275B",
"8#	c #B56BAC",
"9#	c #813075",
"0#	c #7F2E73",
"a#	c #7C2C70",
"b#	c #7B2A6F",
"c#	c #7A2A6E",
"d#	c #79296D",
"e#	c #7B2B6F",
"f#	c #7E2D72",
"g#	c #802F74",
"h#	c #86437D",
"i#	c #67285D",
"j#	c #76356C",
"k#	c #733369",
"l#	c #64275A",
"m#	c #7B2C6F",
"n#	c #7C2C71",
"o#	c #7A2A6F",
"p#	c #78296C",
"q#	c #78296D",
"r#	c #792A6E",
"s#	c #7B2B70",
"t#	c #7D2D72",
"u#	c #7D2D70",
"v#	c #66275B",
"w#	c #75356B",
"x#	c #934E8A",
"y#	c #723269",
"z#	c #723268",
"A#	c #612558",
"B#	c #602456",
"C#	c #5E2355",
"D#	c #5E2354",
"E#	c #5F2455",
"F#	c #612557",
"G#	c #622659",
"H#	c #65285B",
"I#	c #73336A",
"J#	c #95508B",
"K#	c #A0679A",
"L#	c #975E91",
"M#	c #773F70",
"N#	c #773F71",
"O#	c #753E6F",
"P#	c #743C6D",
"Q#	c #733B6C",
"R#	c #723B6C",
"S#	c #723A6B",
"T#	c #733C6D",
"U#	c #743D6E",
"V#	c #763F70",
"W#	c #784072",
"X#	c #783F71",
"Y#	c #995F92",
". + @ # $ % & * = * & % $ - ; > , ' ' ",
") ! ~ { ] ^ / ( _ ( : < [ { } | 1 2 2 ",
"3 4 5 6 7 8 9 0 0 0 9 8 a b c d e f f ",
"g h i j k l m n o n p q k j r s t u u ",
"v w x y z A B C C D E A z F G H I J J ",
"K L M N E O P P P P O Q A R S T U V V ",
"W X M Y C P Z ` ` ` Z O D  .S ..+.@.@.",
"#.$.%.&.*.Z =.-.;.-.>.P ,.'.).!.~.{.{.",
"].^./.(._.` -.:.<.[.}.Z ,.|.1.2.3.4.4.",
"5.6.7.8._.` ;.9.0.a.b.Z c.d.e.f.g.h.h.",
"i.j.k.l._.` -.m.n.o.p.Z ,.q.r.s.t.u.u.",
"v.w.x.y.,.Z ` z.z.` ` P C A.B.C.D.E.E.",
"F.G.H.I.D *.J.K.K.L._.,.E M.N.O.P.Q.Q.",
"R.S.T.U.V.W.X.Y.Y.Z.`. +.+++@+#+$+%+%+",
"&+P.*+=+-+;+>+,+'+,+)+!+~+{+]+^+/+(+(+",
"_+:+R.<+[+}+|+1+2+1+3+4+5+6+$+7+8+9+9+",
"0+a+b+c+d+e+f+g+g+g+h+i+j+k+l+m+0+n+n+",
"o+o+o+o+o+o+o+o+o+o+o+o+o+o+o+o+o+o+o+",
"p+p+p+p+p+p+p+p+p+p+p+p+p+p+p+p+p+p+p+",
"q+r+s+t+u+v+w+x+x+w+v+y+z+A+B+C+D+' ' ",
"E+F+G+H+I+J+K+L+L+L+M+N+O+~.P+Q+R+2 2 ",
"S+T+U+V+W+X+Y+Y+Y+Y+Z+`+ @.@+@@@#@f f ",
"$@%@&@*@=@-@;@>@>@>@;@,@'@)@!@~@{@u u ",
"]@^@/@(@_@:@<@[@}@[@<@|@1@2@3@4@5@J J ",
"6@7@8@9@0@a@b@c@c@c@b@a@|@d@e@f@g@V V ",
"h@i@j@k@}@c@l@m@m@l@c@b@<@n@o@p@q@@.@.",
"r@s@t@u@v@l@w@x@y@z@A@c@}@B@C@D@E@{.{.",
"F@G@H@I@J@m@K@L@M@N@O@c@P@Q@R@S@T@4.4.",
"U@V@W@X@Y@m@x@Z@`@ #O@l@v@.#+#@###h.h.",
"$#%#g.&#*#l@=#-#;#>#,#c@}@'#)#!#~#u.u.",
"{#]#^#/#}@c@l@m@m@m@l@b@(#_#:#!#<#E.E.",
"$#[#}#|#<@P@Y@1#1#Y@v@[@:@2#3#4#5#Q.Q.",
"6#7#8#9#0#a#b#c#d#c#e#f#g#|#h#i#j#%+%+",
"k#$#l#m#n#o#d#p#p#q#r#s#t#u#v#5#w#(+(+",
"x#y#z#l#A#B#C#D#D#D#E#F#G#H#k#I#J#9+9+",
"K#L#M#N#O#P#Q#R#S#R#T#U#V#W#X#Y#K#n+n+",
"o+o+o+o+o+o+o+o+o+o+o+o+o+o+o+o+o+o+o+",
"p+p+p+p+p+p+p+p+p+p+p+p+p+p+p+p+p+p+p+"};
