/* XPM */
static char * minimizeO_xpm[] = {
"19 38 510 2",
"  	c None",
". 	c #BC78B0",
"+ 	c #C280B7",
"@ 	c #934583",
"# 	c #AC619E",
"$ 	c #AD62A0",
"% 	c #AE63A1",
"& 	c #AF64A2",
"* 	c #B064A3",
"= 	c #B065A3",
"- 	c #AB609E",
"; 	c #924582",
"> 	c #C27FB6",
", 	c #BC77B0",
"' 	c #BA75AE",
") 	c #C07EB6",
"! 	c #904381",
"~ 	c #8A3D7B",
"{ 	c #A65899",
"] 	c #A85A9B",
"^ 	c #A95B9D",
"/ 	c #AA5C9E",
"( 	c #AB5C9E",
"_ 	c #AB5D9E",
": 	c #AA5C9D",
"< 	c #A95B9C",
"[ 	c #A75A9B",
"} 	c #893C7A",
"| 	c #8F4380",
"1 	c #BF7DB5",
"2 	c #B773AC",
"3 	c #8C417D",
"4 	c #883B79",
"5 	c #A55697",
"6 	c #E0AED9",
"7 	c #D59DCD",
"8 	c #D69ECE",
"9 	c #D79FCF",
"0 	c #D8A0D0",
"a 	c #D59CCD",
"b 	c #E0ADD9",
"c 	c #A45596",
"d 	c #873A78",
"e 	c #8B407C",
"f 	c #B570A9",
"g 	c #8E4380",
"h 	c #A15394",
"i 	c #C07CB4",
"j 	c #C36FBA",
"k 	c #C571BC",
"l 	c #C673BE",
"m 	c #C874BF",
"n 	c #C875C0",
"o 	c #C975C0",
"p 	c #C774BF",
"q 	c #C672BD",
"r 	c #BF7BB3",
"s 	c #A05393",
"t 	c #8D427E",
"u 	c #B26EA7",
"v 	c #8D417D",
"w 	c #A15292",
"x 	c #D398CB",
"y 	c #C976C1",
"z 	c #CB78C3",
"A 	c #CC7AC5",
"B 	c #CE7CC7",
"C 	c #CE7DC7",
"D 	c #CF7DC8",
"E 	c #CD7BC6",
"F 	c #CA78C3",
"G 	c #C875C1",
"H 	c #C17DB6",
"I 	c #9F5191",
"J 	c #8C407C",
"K 	c #B06BA4",
"L 	c #89407D",
"M 	c #9E5292",
"N 	c #D298CA",
"O 	c #CF7EC8",
"P 	c #D181C9",
"Q 	c #D383CC",
"R 	c #D485CD",
"S 	c #D586CD",
"T 	c #D686CE",
"U 	c #D484CC",
"V 	c #D282CB",
"W 	c #D080C8",
"X 	c #C07CB5",
"Y 	c #9D5191",
"Z 	c #88407C",
"` 	c #AD69A2",
" .	c #8A407B",
"..	c #9E5191",
"+.	c #D386CC",
"@.	c #D689CF",
"#.	c #D88BD1",
"$.	c #D98DD3",
"%.	c #DB8FD4",
"&.	c #DB8FD5",
"*.	c #DA8FD4",
"=.	c #D98DD2",
"-.	c #D78AD0",
";.	c #D588CE",
">.	c #D385CB",
",.	c #9D5090",
"'.	c #883F7A",
").	c #AB67A0",
"!.	c #873D79",
"~.	c #9B4E8F",
"{.	c #D195C9",
"].	c #D88CD2",
"^.	c #DD92D7",
"/.	c #DF95D9",
"(.	c #E197DB",
"_.	c #E198DB",
":.	c #E197DA",
"<.	c #DF94D8",
"[.	c #DC91D6",
"}.	c #DA8ED3",
"|.	c #BF7AB3",
"1.	c #9A4D8E",
"2.	c #853C78",
"3.	c #A8649D",
"4.	c #A25997",
"5.	c #9A4C8D",
"6.	c #D194C8",
"7.	c #C973C0",
"8.	c #CB77C3",
"9.	c #CF7AC6",
"0.	c #D27DC9",
"a.	c #D47FCC",
"b.	c #D680CD",
"c.	c #D47ECB",
"d.	c #D17CC8",
"e.	c #CE79C5",
"f.	c #CB75C1",
"g.	c #C872BE",
"h.	c #BE78B2",
"i.	c #994B8B",
"j.	c #A15895",
"k.	c #A6629B",
"l.	c #9F5795",
"m.	c #974B8B",
"n.	c #D091C7",
"o.	c #C670BD",
"p.	c #874680",
"q.	c #8B4983",
"r.	c #8E4B87",
"s.	c #914D8A",
"t.	c #944E8C",
"u.	c #904C89",
"v.	c #8D4A85",
"w.	c #894882",
"x.	c #86467F",
"y.	c #C56FBC",
"z.	c #BB77B1",
"A.	c #964A8A",
"B.	c #9E5693",
"C.	c #A46099",
"D.	c #9E5594",
"E.	c #974A8A",
"F.	c #CE90C7",
"G.	c #C36CB9",
"H.	c #FFF8F8",
"I.	c #FFF9F8",
"J.	c #FFF9F9",
"K.	c #FFFAF9",
"L.	c #FFF8F7",
"M.	c #85457E",
"N.	c #C26BB8",
"O.	c #B977B0",
"P.	c #964989",
"Q.	c #9D5493",
"R.	c #A35F99",
"S.	c #9D5392",
"T.	c #964889",
"U.	c #CD8EC5",
"V.	c #BF66B6",
"W.	c #FFF7F7",
"X.	c #84447D",
"Y.	c #BE65B4",
"Z.	c #B875AE",
"`.	c #954787",
" +	c #9C5290",
".+	c #A35E98",
"++	c #9B5190",
"@+	c #934687",
"#+	c #CB8CC3",
"$+	c #BB61B1",
"%+	c #83447C",
"&+	c #86457F",
"*+	c #884780",
"=+	c #894781",
"-+	c #82437B",
";+	c #BA61B0",
">+	c #B673AD",
",+	c #914586",
"'+	c #9A508F",
")+	c #A25D98",
"!+	c #994F8F",
"~+	c #904386",
"{+	c #D79CD1",
"]+	c #B65BAB",
"^+	c #B85DAE",
"/+	c #BA5EB0",
"(+	c #BC60B2",
"_+	c #BD61B3",
":+	c #BC60B3",
"<+	c #BB5FB1",
"[+	c #B95EAF",
"}+	c #B75CAD",
"|+	c #B55AAA",
"1+	c #B36CAA",
"2+	c #8F4385",
"3+	c #984E8E",
"4+	c #A15C98",
"5+	c #944B8A",
"6+	c #914485",
"7+	c #AB50A0",
"8+	c #B155A6",
"9+	c #B356A8",
"0+	c #B457AA",
"a+	c #B558AA",
"b+	c #B558AB",
"c+	c #B357A9",
"d+	c #B256A7",
"e+	c #B054A5",
"f+	c #AB509F",
"g+	c #904384",
"h+	c #994F8E",
"i+	c #934B89",
"j+	c #A15C97",
"k+	c #AE69A6",
"l+	c #944B8B",
"m+	c #904485",
"n+	c #924587",
"o+	c #934689",
"p+	c #95478A",
"q+	c #95478B",
"r+	c #96488B",
"s+	c #94478A",
"t+	c #934688",
"u+	c #914587",
"v+	c #8F4384",
"w+	c #934A8A",
"x+	c #AD68A4",
"y+	c #A05B97",
"z+	c #A86FA2",
"A+	c #B27AAC",
"B+	c #995A92",
"C+	c #9C6097",
"D+	c #9E6199",
"E+	c #A0639A",
"F+	c #A1649B",
"G+	c #A1649C",
"H+	c #A0639B",
"I+	c #9F6299",
"J+	c #9E6198",
"K+	c #9C5F96",
"L+	c #985A91",
"M+	c #B179AB",
"N+	c #A46B9E",
"O+	c #8B5E87",
"P+	c #3D1C39",
"Q+	c #B872AB",
"R+	c #B26BA5",
"S+	c #7A336A",
"T+	c #914882",
"U+	c #8F4680",
"V+	c #8E457F",
"W+	c #8D447E",
"X+	c #8C437D",
"Y+	c #8E4580",
"Z+	c #904781",
"`+	c #924983",
" @	c #7B346B",
".@	c #B36CA6",
"+@	c #B873AC",
"@@	c #AF69A3",
"#@	c #753167",
"$@	c #6B295D",
"%@	c #843B77",
"&@	c #823A75",
"*@	c #813973",
"=@	c #803872",
"-@	c #7F3772",
";@	c #813873",
">@	c #823974",
",@	c #833B76",
"'@	c #6C2A5E",
")@	c #763269",
"!@	c #B06AA4",
"~@	c #722F63",
"{@	c #68275A",
"]@	c #813872",
"^@	c #C986BE",
"/@	c #B66FAA",
"(@	c #B56EA9",
"_@	c #B46CA8",
":@	c #B56DA9",
"<@	c #B66EAA",
"[@	c #B770AB",
"}@	c #CA87BF",
"|@	c #833A73",
"1@	c #6A285B",
"2@	c #743065",
"3@	c #6F2D61",
"4@	c #7D376F",
"5@	c #9C548E",
"6@	c #9B4590",
"7@	c #99428D",
"8@	c #97418C",
"9@	c #96408B",
"0@	c #953F8A",
"a@	c #98428D",
"b@	c #9A438E",
"c@	c #9C4691",
"d@	c #9D558F",
"e@	c #7E3870",
"f@	c #702F63",
"g@	c #6A295B",
"h@	c #783268",
"i@	c #B168A5",
"j@	c #9D4692",
"k@	c #9B4390",
"l@	c #99418E",
"m@	c #98408D",
"n@	c #973F8C",
"o@	c #973E8C",
"p@	c #9A428F",
"q@	c #9C4591",
"r@	c #9E4794",
"s@	c #9B528D",
"t@	c #79336A",
"u@	c #6B2A5D",
"v@	c #632858",
"w@	c #723064",
"x@	c #AB649F",
"y@	c #A14796",
"z@	c #9F4593",
"A@	c #9D4291",
"B@	c #9B408F",
"C@	c #9A3F8E",
"D@	c #9A3F8D",
"E@	c #9B408E",
"F@	c #9C4190",
"G@	c #9E4392",
"H@	c #A04694",
"I@	c #A24997",
"J@	c #964E87",
"K@	c #733166",
"L@	c #652959",
"M@	c #612653",
"N@	c #6E2D61",
"O@	c #A8619C",
"P@	c #A44A99",
"Q@	c #A24796",
"R@	c #9F4494",
"S@	c #9E4292",
"T@	c #9C4091",
"U@	c #9C4090",
"V@	c #9D4191",
"W@	c #9E4393",
"X@	c #A04595",
"Y@	c #A34998",
"Z@	c #A64C9B",
"`@	c #924A83",
" #	c #702E63",
".#	c #622755",
"+#	c #5C234F",
"@#	c #692A5D",
"##	c #A45B98",
"$#	c #A94D9E",
"%#	c #A64A9B",
"&#	c #A44798",
"*#	c #A24496",
"=#	c #A04194",
"-#	c #A14395",
";#	c #A34597",
">#	c #A5489A",
",#	c #A84C9D",
"'#	c #AA4FA0",
")#	c #8D477F",
"!#	c #6B2B5F",
"~#	c #5E2451",
"{#	c #76356A",
"]#	c #662859",
"^#	c #A15A95",
"/#	c #8F3882",
"(#	c #8A357F",
"_#	c #88317B",
":#	c #852E78",
"<#	c #812B75",
"[#	c #812A74",
"}#	c #842D76",
"|#	c #863079",
"1#	c #8A337D",
"2#	c #8D3781",
"3#	c #903A84",
"4#	c #8A447C",
"5#	c #68295C",
"6#	c #78376C",
"7#	c #733468",
"8#	c #632757",
"9#	c #A05793",
"0#	c #8A367E",
"a#	c #40193B",
"b#	c #3D1738",
"c#	c #391435",
"d#	c #361231",
"e#	c #341130",
"f#	c #371333",
"g#	c #3B1636",
"h#	c #3F183A",
"i#	c #421A3D",
"j#	c #8C3780",
"k#	c #87437A",
"l#	c #652859",
"m#	c #75356A",
"n#	c #733368",
"o#	c #632658",
"p#	c #87337A",
"q#	c #411A3C",
"r#	c #FFE5E4",
"s#	c #FFE4E3",
"t#	c #FFE4E2",
"u#	c #FFE5E3",
"v#	c #FFE6E4",
"w#	c #431B3E",
"x#	c #89357D",
"y#	c #86447B",
"z#	c #66285A",
"A#	c #74346A",
"B#	c #733367",
"C#	c #652658",
"D#	c #9F5693",
"E#	c #853278",
"F#	c #FFE6E5",
"G#	c #441C3F",
"H#	c #86337A",
"I#	c #87447B",
"J#	c #753469",
"K#	c #642659",
"L#	c #9F5895",
"M#	c #833177",
"N#	c #451C40",
"O#	c #421A3E",
"P#	c #441B3F",
"Q#	c #461D41",
"R#	c #853279",
"S#	c #87447C",
"T#	c #66285B",
"U#	c #75346A",
"V#	c #74336A",
"W#	c #65275B",
"X#	c #B56BAC",
"Y#	c #813075",
"Z#	c #7F2E73",
"`#	c #7C2C70",
" $	c #7B2A6F",
".$	c #7A2A6E",
"+$	c #79296D",
"@$	c #7B2B6F",
"#$	c #7E2D72",
"$$	c #802F74",
"%$	c #86437D",
"&$	c #67285D",
"*$	c #76356C",
"=$	c #733369",
"-$	c #64275A",
";$	c #7B2C6F",
">$	c #7C2C71",
",$	c #7A2A6F",
"'$	c #78296C",
")$	c #78296D",
"!$	c #792A6E",
"~$	c #7B2B70",
"{$	c #7D2D72",
"]$	c #7D2D70",
"^$	c #66275B",
"/$	c #75356B",
"($	c #934E8A",
"_$	c #723269",
":$	c #723268",
"<$	c #612558",
"[$	c #602456",
"}$	c #5E2355",
"|$	c #5E2354",
"1$	c #5F2455",
"2$	c #612557",
"3$	c #622659",
"4$	c #65285B",
"5$	c #73336A",
"6$	c #95508B",
"7$	c #A0679A",
"8$	c #975E91",
"9$	c #773F70",
"0$	c #773F71",
"a$	c #753E6F",
"b$	c #743C6D",
"c$	c #733B6C",
"d$	c #723B6C",
"e$	c #723A6B",
"f$	c #733C6D",
"g$	c #743D6E",
"h$	c #763F70",
"i$	c #784072",
"j$	c #783F71",
"k$	c #995F92",
". + @ # $ % & * = * & % $ - ; > , ' ' ",
") ! ~ { ] ^ / ( _ ( : < [ { } | 1 2 2 ",
"3 4 5 6 7 8 9 0 0 0 9 8 a b c d e f f ",
"g h i j k l m n o n p q k j r s t u u ",
"v w x y z A B C D B E A F G H I J K K ",
"L M N O P Q R S T S U V W C X Y Z ` ` ",
" ...N +.@.#.$.%.&.*.=.-.;.>.X ,.'.).).",
"!.~.{.].%.^./.(._.:.<.[.}.#.|.1.2.3.3.",
"4.5.6.7.8.9.0.a.b.c.d.e.f.g.h.i.j.k.k.",
"l.m.n.o.p.q.r.s.t.u.v.w.x.y.z.A.B.C.C.",
"D.E.F.G.p.H.I.J.K.J.H.L.M.N.O.P.Q.R.R.",
"S.T.U.V.M.L.H.I.I.H.H.W.X.Y.Z.`. +.+.+",
"++@+#+$+%+&+*+w.w.=+p.M.-+;+>+,+'+)+)+",
"!+~+{+]+^+/+(+_+_+:+<+[+}+|+1+2+3+4+4+",
"5+'+6+7+8+9+0+a+b+a+c+d+e+f+g+h+i+j+j+",
"k+l+!+m+n+o+p+q+r+q+s+t+u+v+3+w+x+y+y+",
"z+A+B+C+D+E+F+G+G+G+H+I+J+K+L+M+z+N+N+",
"O+O+O+O+O+O+O+O+O+O+O+O+O+O+O+O+O+O+O+",
"P+P+P+P+P+P+P+P+P+P+P+P+P+P+P+P+P+P+P+",
"Q+R+S+T+U+V+W+X+X+W+V+Y+Z+`+ @.@+@' ' ",
"@@#@$@%@&@*@=@-@-@-@;@>@,@2.'@)@!@2 2 ",
"~@{@]@^@/@(@_@_@_@_@:@<@[@}@|@1@2@f f ",
"3@4@5@6@7@8@9@0@0@0@9@a@b@c@d@e@f@u u ",
"g@h@i@j@k@l@m@n@o@n@m@p@q@r@s@t@u@K K ",
"v@w@x@y@z@A@B@C@D@E@F@G@H@I@J@K@L@` ` ",
"M@N@O@P@Q@R@S@T@U@V@W@X@Y@Z@`@ #.#).).",
"+#@###$#%#&#*#=#=#-#;#>#,#'#)#!#~#3.3.",
"{#]#^#/#(#_#:#<#[#}#|#1#2#3#4#5#6#k.k.",
"7#8#9#0#a#b#c#d#e#f#g#h#i#j#k#l#m#C.C.",
"n#o#B.p#q#r#s#t#t#s#u#v#w#x#y#z#A#R.R.",
"B#C#D#E#w#v#r#u#u#u#r#F#G#H#I#z#J#.+.+",
"n#K#L#M#N#O#a#h#h#a#i#P#Q#R#S#T#U#)+)+",
"V#W#X#Y#Z#`# $.$+$.$@$#$$$M#%$&$*$4+4+",
"=$n#-$;$>$,$+$'$'$)$!$~${$]$^$U#/$j+j+",
"($_$:$-$<$[$}$|$|$|$1$2$3$4$=$5$6$y+y+",
"7$8$9$0$a$b$c$d$e$d$f$g$h$i$j$k$7$N+N+",
"O+O+O+O+O+O+O+O+O+O+O+O+O+O+O+O+O+O+O+",
"P+P+P+P+P+P+P+P+P+P+P+P+P+P+P+P+P+P+P+"};
