/* XPM */
static char * minimizeA_xpm[] = {
"19 38 99 2",
"  	c None",
". 	c #BA75AE",
"+ 	c #863C76",
"@ 	c #9E5490",
"# 	c #B773AC",
"$ 	c #823A74",
"% 	c #7A336C",
"& 	c #954A88",
"* 	c #7F3870",
"= 	c #783169",
"- 	c #934784",
"; 	c #D59ACC",
"> 	c #C686BC",
", 	c #B570A9",
"' 	c #7E3870",
") 	c #8F4581",
"! 	c #AE68A1",
"~ 	c #AF5AA5",
"{ 	c #B26EA7",
"] 	c #7B356C",
"^ 	c #8C427D",
"/ 	c #C280B8",
"( 	c #B35EAA",
"_ 	c #AE67A1",
": 	c #B06BA4",
"< 	c #76346A",
"[ 	c #88417B",
"} 	c #BF7EB5",
"| 	c #B863AF",
"1 	c #B863AE",
"2 	c #AB659E",
"3 	c #AD69A2",
"4 	c #753367",
"5 	c #863F79",
"6 	c #BD7DB3",
"7 	c #BC68B3",
"8 	c #A9639C",
"9 	c #AB67A0",
"0 	c #713064",
"a 	c #823C76",
"b 	c #BB78B1",
"c 	c #C16DB8",
"d 	c #A66099",
"e 	c #A8649D",
"f 	c #8C4780",
"g 	c #803A73",
"h 	c #B977AF",
"i 	c #AC56A1",
"j 	c #AB56A1",
"k 	c #A45E97",
"l 	c #A6629B",
"m 	c #89457E",
"n 	c #7D3971",
"o 	c #B874AD",
"p 	c #A8539E",
"q 	c #64305E",
"r 	c #A15D95",
"s 	c #A46099",
"t 	c #88447E",
"u 	c #7D3871",
"v 	c #B673AD",
"w 	c #A5509A",
"x 	c #FFEFEE",
"y 	c #9F5D95",
"z 	c #A35F99",
"A 	c #88437C",
"B 	c #7D3770",
"C 	c #B672AC",
"D 	c #A24C97",
"E 	c #9F5C94",
"F 	c #A35E98",
"G 	c #87427C",
"H 	c #7B3670",
"I 	c #B572AC",
"J 	c #9F4994",
"K 	c #9E5B94",
"L 	c #A25D98",
"M 	c #86417C",
"N 	c #7A3570",
"O 	c #C683BE",
"P 	c #9B4590",
"Q 	c #9C5793",
"R 	c #A15C98",
"S 	c #833F79",
"T 	c #86417B",
"U 	c #7A356F",
"V 	c #933E87",
"W 	c #96408B",
"X 	c #A15C97",
"Y 	c #A05B97",
"Z 	c #823E79",
"` 	c #85407B",
" .	c #79356F",
"..	c #A46B9E",
"+.	c #874C80",
"@.	c #894F83",
"#.	c #8B5E87",
"$.	c #3D1C39",
"%.	c #000000",
". . + @ @ @ @ @ @ @ @ @ @ @ + . . . . ",
"# $ % & & & & & & & & & & & % $ # # # ",
"* = - ; > > > > > > > > > ; - = * , , ",
"' ) ! ~ ~ ~ ~ ~ ~ ~ ~ ~ ~ ~ ! ) ' { { ",
"] ^ / ( ( ( ( ( ( ( ( ( ( ( _ ^ ] : : ",
"< [ } | 1 | 1 1 1 1 1 | 1 | 2 [ < 3 3 ",
"4 5 6 7 7 7 7 7 7 7 7 7 7 7 8 5 4 9 9 ",
"0 a b c c c c c c c c c c c d a 0 e e ",
"f g h i j i i j i i i i i i k g f l l ",
"m n o p q q q q q q q q q p r n m s s ",
"t u v w q x x x x x x x q w y u t z z ",
"A B C D q x x x x x x x q D E B A F F ",
"G H I J q q q q q q q q q J K H G L L ",
"M N O P P P P P P P P P P P Q N M R R ",
"S T U V W W W W W W W W W V U T S X X ",
"Y Z `  . . . . . . . . . . .` Z Y Y Y ",
"....+.@.@.@.@.@.@.@.@.@.@.@.+.........",
"#.#.#.#.#.#.#.#.#.#.#.#.#.#.#.#.#.#.#.",
"$.$.$.$.$.$.$.$.$.$.$.$.$.$.$.$.$.$.$.",
"%.%.%.%.%.%.%.%.%.%.%.%.%.%.%.%.%.%.%.",
"%.%.%.%.%.%.%.%.%.%.%.%.%.%.%.%.%.%.%.",
"%.%.%.%.%.%.%.%.%.%.%.%.%.%.%.%.%.%.%.",
"%.%.%.%.%.%.%.%.%.%.%.%.%.%.%.%.%.%.%.",
"%.%.%.%.%.%.%.%.%.%.%.%.%.%.%.%.%.%.%.",
"%.%.%.%.%.%.%.%.%.%.%.%.%.%.%.%.%.%.%.",
"%.%.%.%.%.%.%.%.%.%.%.%.%.%.%.%.%.%.%.",
"%.%.%.%.%.%.%.%.%.%.%.%.%.%.%.%.%.%.%.",
"%.%.%.%.%.%.%.%.%.%.%.%.%.%.%.%.%.%.%.",
"%.%.%.%.%.%.%.%.%.%.%.%.%.%.%.%.%.%.%.",
"%.%.%.%.%.%.%.%.%.%.%.%.%.%.%.%.%.%.%.",
"%.%.%.%.%.%.%.%.%.%.%.%.%.%.%.%.%.%.%.",
"%.%.%.%.%.%.%.%.%.%.%.%.%.%.%.%.%.%.%.",
"%.%.%.%.%.%.%.%.%.%.%.%.%.%.%.%.%.%.%.",
"%.%.%.%.%.%.%.%.%.%.%.%.%.%.%.%.%.%.%.",
"%.%.%.%.%.%.%.%.%.%.%.%.%.%.%.%.%.%.%.",
"%.%.%.%.%.%.%.%.%.%.%.%.%.%.%.%.%.%.%.",
"%.%.%.%.%.%.%.%.%.%.%.%.%.%.%.%.%.%.%.",
"%.%.%.%.%.%.%.%.%.%.%.%.%.%.%.%.%.%.%."};
