/* XPM */
static char * restoreO_xpm[] = {
"19 38 489 2",
"  	c None",
". 	c #BC78B0",
"+ 	c #C280B7",
"@ 	c #934583",
"# 	c #AC619E",
"$ 	c #AD62A0",
"% 	c #AE63A1",
"& 	c #AF64A2",
"* 	c #B064A3",
"= 	c #B065A3",
"- 	c #AB609E",
"; 	c #924582",
"> 	c #C27FB6",
", 	c #BC77B0",
"' 	c #BA75AE",
") 	c #C07EB6",
"! 	c #904381",
"~ 	c #8A3D7B",
"{ 	c #A65899",
"] 	c #A85A9B",
"^ 	c #A95B9D",
"/ 	c #AA5C9E",
"( 	c #AB5C9E",
"_ 	c #AB5D9E",
": 	c #AA5C9D",
"< 	c #A95B9C",
"[ 	c #A75A9B",
"} 	c #893C7A",
"| 	c #8F4380",
"1 	c #BF7DB5",
"2 	c #B773AC",
"3 	c #8C417D",
"4 	c #883B79",
"5 	c #A55697",
"6 	c #E0AED9",
"7 	c #D59DCD",
"8 	c #D69ECE",
"9 	c #D79FCF",
"0 	c #D8A0D0",
"a 	c #D59CCD",
"b 	c #E0ADD9",
"c 	c #A45596",
"d 	c #873A78",
"e 	c #8B407C",
"f 	c #B570A9",
"g 	c #8E4380",
"h 	c #A15394",
"i 	c #C07CB4",
"j 	c #C36FBA",
"k 	c #C571BC",
"l 	c #C673BE",
"m 	c #C874BF",
"n 	c #C875C0",
"o 	c #C975C0",
"p 	c #C774BF",
"q 	c #C672BD",
"r 	c #BF7BB3",
"s 	c #A05393",
"t 	c #8D427E",
"u 	c #B26EA7",
"v 	c #8D417D",
"w 	c #A15292",
"x 	c #D398CB",
"y 	c #C976C1",
"z 	c #CB78C3",
"A 	c #CC7AC5",
"B 	c #CE7CC7",
"C 	c #CE7DC7",
"D 	c #CF7DC8",
"E 	c #CD7BC6",
"F 	c #CA78C3",
"G 	c #C875C1",
"H 	c #C17DB6",
"I 	c #9F5191",
"J 	c #8C407C",
"K 	c #B06BA4",
"L 	c #89407D",
"M 	c #9E5292",
"N 	c #D298CA",
"O 	c #CF7EC8",
"P 	c #D181C9",
"Q 	c #84447D",
"R 	c #86467F",
"S 	c #874680",
"T 	c #85457E",
"U 	c #83447C",
"V 	c #D080C8",
"W 	c #C07CB5",
"X 	c #9D5191",
"Y 	c #88407C",
"Z 	c #AD69A2",
"` 	c #8A407B",
" .	c #9E5191",
"..	c #D386CC",
"+.	c #D689CF",
"@.	c #FFF8F7",
"#.	c #FFF8F8",
"$.	c #86457F",
"%.	c #D588CE",
"&.	c #D385CB",
"*.	c #9D5090",
"=.	c #883F7A",
"-.	c #AB67A0",
";.	c #873D79",
">.	c #9B4E8F",
",.	c #D195C9",
"'.	c #D88CD2",
").	c #DB8FD4",
"!.	c #894782",
"~.	c #FFF9F8",
"{.	c #FFF9F9",
"].	c #884780",
"^.	c #DA8ED3",
"/.	c #D88BD1",
"(.	c #BF7AB3",
"_.	c #9A4D8E",
":.	c #853C78",
"<.	c #A8649D",
"[.	c #A25997",
"}.	c #9A4C8D",
"|.	c #D194C8",
"1.	c #C973C0",
"2.	c #CB77C3",
"3.	c #8A4883",
"4.	c #904C89",
"5.	c #914D8A",
"6.	c #8F4B88",
"7.	c #894882",
"8.	c #CB75C1",
"9.	c #C872BE",
"0.	c #BE78B2",
"a.	c #994B8B",
"b.	c #A15895",
"c.	c #A6629B",
"d.	c #9F5795",
"e.	c #974B8B",
"f.	c #D091C7",
"g.	c #C670BD",
"h.	c #C973C1",
"i.	c #8B4983",
"j.	c #944E8C",
"k.	c #C872BF",
"l.	c #C56FBC",
"m.	c #BB77B1",
"n.	c #964A8A",
"o.	c #9E5693",
"p.	c #A46099",
"q.	c #9E5594",
"r.	c #974A8A",
"s.	c #CE90C7",
"t.	c #C36CB9",
"u.	c #C66FBD",
"v.	c #FFFAF9",
"w.	c #894781",
"x.	c #C56EBB",
"y.	c #C26BB8",
"z.	c #B977B0",
"A.	c #964989",
"B.	c #9D5493",
"C.	c #A35F99",
"D.	c #9D5392",
"E.	c #964889",
"F.	c #CD8EC5",
"G.	c #BF66B6",
"H.	c #C269B9",
"I.	c #884781",
"J.	c #8C4A85",
"K.	c #8D4A85",
"L.	c #8C4985",
"M.	c #C168B8",
"N.	c #BE65B4",
"O.	c #B875AE",
"P.	c #954787",
"Q.	c #9C5290",
"R.	c #A35E98",
"S.	c #9B5190",
"T.	c #934687",
"U.	c #CB8CC3",
"V.	c #BB61B1",
"W.	c #BE64B4",
"X.	c #C066B6",
"Y.	c #C267B8",
"Z.	c #C469BA",
"`.	c #C368B9",
" +	c #BF65B6",
".+	c #BD63B3",
"++	c #BA61B0",
"@+	c #B673AD",
"#+	c #914586",
"$+	c #9A508F",
"%+	c #A25D98",
"&+	c #994F8F",
"*+	c #904386",
"=+	c #D79CD1",
"-+	c #B65BAB",
";+	c #B85DAE",
">+	c #BA5EB0",
",+	c #BC60B2",
"'+	c #BD61B3",
")+	c #BC60B3",
"!+	c #BB5FB1",
"~+	c #B95EAF",
"{+	c #B75CAD",
"]+	c #B55AAA",
"^+	c #B36CAA",
"/+	c #8F4385",
"(+	c #984E8E",
"_+	c #A15C98",
":+	c #944B8A",
"<+	c #914485",
"[+	c #AB50A0",
"}+	c #B155A6",
"|+	c #B356A8",
"1+	c #B457AA",
"2+	c #B558AA",
"3+	c #B558AB",
"4+	c #B357A9",
"5+	c #B256A7",
"6+	c #B054A5",
"7+	c #AB509F",
"8+	c #904384",
"9+	c #994F8E",
"0+	c #934B89",
"a+	c #A15C97",
"b+	c #AE69A6",
"c+	c #944B8B",
"d+	c #904485",
"e+	c #924587",
"f+	c #934689",
"g+	c #95478A",
"h+	c #95478B",
"i+	c #96488B",
"j+	c #94478A",
"k+	c #934688",
"l+	c #914587",
"m+	c #8F4384",
"n+	c #934A8A",
"o+	c #AD68A4",
"p+	c #A05B97",
"q+	c #A86FA2",
"r+	c #B27AAC",
"s+	c #995A92",
"t+	c #9C6097",
"u+	c #9E6199",
"v+	c #A0639A",
"w+	c #A1649B",
"x+	c #A1649C",
"y+	c #A0639B",
"z+	c #9F6299",
"A+	c #9E6198",
"B+	c #9C5F96",
"C+	c #985A91",
"D+	c #B179AB",
"E+	c #A46B9E",
"F+	c #8B5E87",
"G+	c #3D1C39",
"H+	c #B872AB",
"I+	c #B26BA5",
"J+	c #7A336A",
"K+	c #914882",
"L+	c #8F4680",
"M+	c #8E457F",
"N+	c #8D447E",
"O+	c #8C437D",
"P+	c #8E4580",
"Q+	c #904781",
"R+	c #924983",
"S+	c #7B346B",
"T+	c #B36CA6",
"U+	c #B873AC",
"V+	c #AF69A3",
"W+	c #753167",
"X+	c #6B295D",
"Y+	c #843B77",
"Z+	c #823A75",
"`+	c #813973",
" @	c #803872",
".@	c #7F3772",
"+@	c #813873",
"@@	c #823974",
"#@	c #833B76",
"$@	c #6C2A5E",
"%@	c #763269",
"&@	c #B06AA4",
"*@	c #722F63",
"=@	c #68275A",
"-@	c #813872",
";@	c #C986BE",
">@	c #B66FAA",
",@	c #B56EA9",
"'@	c #B46CA8",
")@	c #B56DA9",
"!@	c #B66EAA",
"~@	c #B770AB",
"{@	c #CA87BF",
"]@	c #833A73",
"^@	c #6A285B",
"/@	c #743065",
"(@	c #6F2D61",
"_@	c #7D376F",
":@	c #9C548E",
"<@	c #9B4590",
"[@	c #99428D",
"}@	c #97418C",
"|@	c #96408B",
"1@	c #953F8A",
"2@	c #98428D",
"3@	c #9A438E",
"4@	c #9C4691",
"5@	c #9D558F",
"6@	c #7E3870",
"7@	c #702F63",
"8@	c #6A295B",
"9@	c #783268",
"0@	c #B168A5",
"a@	c #9D4692",
"b@	c #9B4390",
"c@	c #99418E",
"d@	c #98408D",
"e@	c #973F8C",
"f@	c #973E8C",
"g@	c #9A428F",
"h@	c #9C4591",
"i@	c #9E4794",
"j@	c #9B528D",
"k@	c #79336A",
"l@	c #6B2A5D",
"m@	c #632858",
"n@	c #723064",
"o@	c #AB649F",
"p@	c #A14796",
"q@	c #9F4593",
"r@	c #431B3E",
"s@	c #411A3C",
"t@	c #40193B",
"u@	c #41193C",
"v@	c #421A3D",
"w@	c #441C3F",
"x@	c #A04694",
"y@	c #A24997",
"z@	c #964E87",
"A@	c #733166",
"B@	c #652959",
"C@	c #612653",
"D@	c #6E2D61",
"E@	c #A8619C",
"F@	c #A44A99",
"G@	c #A24796",
"H@	c #FFE5E4",
"I@	c #FFE5E3",
"J@	c #FFE6E4",
"K@	c #A34998",
"L@	c #A64C9B",
"M@	c #924A83",
"N@	c #702E63",
"O@	c #622755",
"P@	c #5C234F",
"Q@	c #692A5D",
"R@	c #A45B98",
"S@	c #A94D9E",
"T@	c #A64A9B",
"U@	c #3E1839",
"V@	c #FFE4E2",
"W@	c #FFE4E3",
"X@	c #A84C9D",
"Y@	c #AA4FA0",
"Z@	c #8D477F",
"`@	c #6B2B5F",
" #	c #5E2451",
".#	c #76356A",
"+#	c #662859",
"@#	c #A15A95",
"##	c #8F3882",
"$#	c #8A357F",
"%#	c #3D1738",
"&#	c #361332",
"*#	c #351231",
"=#	c #381433",
"-#	c #3F183A",
";#	c #8D3781",
">#	c #903A84",
",#	c #8A447C",
"'#	c #68295C",
")#	c #78376C",
"!#	c #733468",
"~#	c #632757",
"{#	c #A05793",
"]#	c #8A367E",
"^#	c #87327B",
"/#	c #361231",
"(#	c #341130",
"_#	c #371333",
":#	c #88347D",
"<#	c #8C3780",
"[#	c #87437A",
"}#	c #652859",
"|#	c #75356A",
"1#	c #733368",
"2#	c #632658",
"3#	c #87337A",
"4#	c #843177",
"5#	c #3E1739",
"6#	c #863279",
"7#	c #89357D",
"8#	c #86447B",
"9#	c #66285A",
"0#	c #74346A",
"a#	c #733367",
"b#	c #652658",
"c#	c #9F5693",
"d#	c #853278",
"e#	c #822F75",
"f#	c #3D1739",
"g#	c #3C1637",
"h#	c #3B1637",
"i#	c #833077",
"j#	c #86337A",
"k#	c #87447B",
"l#	c #753469",
"m#	c #642659",
"n#	c #9F5895",
"o#	c #833177",
"p#	c #802E74",
"q#	c #7E2C72",
"r#	c #7C2B70",
"s#	c #7B2A6F",
"t#	c #7B296E",
"u#	c #7D2C71",
"v#	c #7F2D73",
"w#	c #823076",
"x#	c #853279",
"y#	c #87447C",
"z#	c #66285B",
"A#	c #75346A",
"B#	c #74336A",
"C#	c #65275B",
"D#	c #B56BAC",
"E#	c #813075",
"F#	c #7F2E73",
"G#	c #7C2C70",
"H#	c #7A2A6E",
"I#	c #79296D",
"J#	c #7B2B6F",
"K#	c #7E2D72",
"L#	c #802F74",
"M#	c #86437D",
"N#	c #67285D",
"O#	c #76356C",
"P#	c #733369",
"Q#	c #64275A",
"R#	c #7B2C6F",
"S#	c #7C2C71",
"T#	c #7A2A6F",
"U#	c #78296C",
"V#	c #78296D",
"W#	c #792A6E",
"X#	c #7B2B70",
"Y#	c #7D2D72",
"Z#	c #7D2D70",
"`#	c #66275B",
" $	c #75356B",
".$	c #934E8A",
"+$	c #723269",
"@$	c #723268",
"#$	c #612558",
"$$	c #602456",
"%$	c #5E2355",
"&$	c #5E2354",
"*$	c #5F2455",
"=$	c #612557",
"-$	c #622659",
";$	c #65285B",
">$	c #73336A",
",$	c #95508B",
"'$	c #A0679A",
")$	c #975E91",
"!$	c #773F70",
"~$	c #773F71",
"{$	c #753E6F",
"]$	c #743C6D",
"^$	c #733B6C",
"/$	c #723B6C",
"($	c #723A6B",
"_$	c #733C6D",
":$	c #743D6E",
"<$	c #763F70",
"[$	c #784072",
"}$	c #783F71",
"|$	c #995F92",
". + @ # $ % & * = * & % $ - ; > , ' ' ",
") ! ~ { ] ^ / ( _ ( : < [ { } | 1 2 2 ",
"3 4 5 6 7 8 9 0 0 0 9 8 a b c d e f f ",
"g h i j k l m n o n p q k j r s t u u ",
"v w x y z A B C D B E A F G H I J K K ",
"L M N O P Q R S S S T U V C W X Y Z Z ",
"`  .N ..+.S @.#.#.#.@.$.%.&.W *.=.-.-.",
";.>.,.'.).!.#.~.{.~.#.].^./.(._.:.<.<.",
"[.}.|.1.2.3.~.4.5.6.~.7.8.9.0.a.b.c.c.",
"d.e.f.g.h.i.{.5.j.4.~.7.k.l.m.n.o.p.p.",
"q.r.s.t.u.3.~.{.v.{.#.w.x.y.z.A.B.C.C.",
"D.E.F.G.H.I.3.J.K.L.3.S M.N.O.P.Q.R.R.",
"S.T.U.V.W.X.Y.Z.Z.`.Y. +.+++@+#+$+%+%+",
"&+*+=+-+;+>+,+'+'+)+!+~+{+]+^+/+(+_+_+",
":+$+<+[+}+|+1+2+3+2+4+5+6+7+8+9+0+a+a+",
"b+c+&+d+e+f+g+h+i+h+j+k+l+m+(+n+o+p+p+",
"q+r+s+t+u+v+w+x+x+x+y+z+A+B+C+D+q+E+E+",
"F+F+F+F+F+F+F+F+F+F+F+F+F+F+F+F+F+F+F+",
"G+G+G+G+G+G+G+G+G+G+G+G+G+G+G+G+G+G+G+",
"H+I+J+K+L+M+N+O+O+N+M+P+Q+R+S+T+U+' ' ",
"V+W+X+Y+Z+`+ @.@.@.@+@@@#@:.$@%@&@2 2 ",
"*@=@-@;@>@,@'@'@'@'@)@!@~@{@]@^@/@f f ",
"(@_@:@<@[@}@|@1@1@1@|@2@3@4@5@6@7@u u ",
"8@9@0@a@b@c@d@e@f@e@d@g@h@i@j@k@l@K K ",
"m@n@o@p@q@r@s@t@t@u@v@w@x@y@z@A@B@Z Z ",
"C@D@E@F@G@u@H@I@I@H@J@v@K@L@M@N@O@-.-.",
"P@Q@R@S@T@U@I@V@V@W@I@t@X@Y@Z@`@ #<.<.",
".#+#@###$#%#V@&#*#=#I@-#;#>#,#'#)#c.c.",
"!#~#{#]#^#%#V@/#(#_#I@-#:#<#[#}#|#p.p.",
"1#2#o.3#4#5#W@V@V@W@I@t@6#7#8#9#0#C.C.",
"a#b#c#d#e#t@f#g#h#%#-#v@i#j#k#9#l#R.R.",
"1#m#n#o#p#q#r#s#t#s#u#v#w#x#y#z#A#%+%+",
"B#C#D#E#F#G#s#H#I#H#J#K#L#o#M#N#O#_+_+",
"P#1#Q#R#S#T#I#U#U#V#W#X#Y#Z#`#A# $a+a+",
".$+$@$Q##$$$%$&$&$&$*$=$-$;$P#>$,$p+p+",
"'$)$!$~${$]$^$/$($/$_$:$<$[$}$|$'$E+E+",
"F+F+F+F+F+F+F+F+F+F+F+F+F+F+F+F+F+F+F+",
"G+G+G+G+G+G+G+G+G+G+G+G+G+G+G+G+G+G+G+"};
