/* XPM */
static char * rolldownA_xpm[] = {
"19 38 97 2",
"  	c None",
". 	c #BA75AE",
"+ 	c #863C76",
"@ 	c #9E5490",
"# 	c #B773AC",
"$ 	c #823A74",
"% 	c #7A336C",
"& 	c #954A88",
"* 	c #7F3870",
"= 	c #783169",
"- 	c #934784",
"; 	c #D59ACC",
"> 	c #C686BC",
", 	c #B570A9",
"' 	c #7E3870",
") 	c #8F4581",
"! 	c #AE68A1",
"~ 	c #AF5AA5",
"{ 	c #B26EA7",
"] 	c #7B356C",
"^ 	c #8C427D",
"/ 	c #C280B8",
"( 	c #B35EAA",
"_ 	c #64305E",
": 	c #AE67A1",
"< 	c #B06BA4",
"[ 	c #76346A",
"} 	c #88417B",
"| 	c #BF7EB5",
"1 	c #B863AF",
"2 	c #FFEFEE",
"3 	c #AB659E",
"4 	c #AD69A2",
"5 	c #753367",
"6 	c #863F79",
"7 	c #BD7DB3",
"8 	c #BC68B3",
"9 	c #A9639C",
"0 	c #AB67A0",
"a 	c #713064",
"b 	c #823C76",
"c 	c #BB78B1",
"d 	c #C16DB8",
"e 	c #A66099",
"f 	c #A8649D",
"g 	c #8C4780",
"h 	c #803A73",
"i 	c #B977AF",
"j 	c #AC56A1",
"k 	c #A45E97",
"l 	c #A6629B",
"m 	c #89457E",
"n 	c #7D3971",
"o 	c #B874AD",
"p 	c #A8539E",
"q 	c #A15D95",
"r 	c #A46099",
"s 	c #88447E",
"t 	c #7D3871",
"u 	c #B673AD",
"v 	c #A5509A",
"w 	c #9F5D95",
"x 	c #A35F99",
"y 	c #88437C",
"z 	c #7D3770",
"A 	c #B672AC",
"B 	c #A24C97",
"C 	c #9F5C94",
"D 	c #A35E98",
"E 	c #87427C",
"F 	c #7B3670",
"G 	c #B572AC",
"H 	c #9F4994",
"I 	c #9E5B94",
"J 	c #A25D98",
"K 	c #86417C",
"L 	c #7A3570",
"M 	c #C683BE",
"N 	c #9B4590",
"O 	c #9C5793",
"P 	c #A15C98",
"Q 	c #833F79",
"R 	c #86417B",
"S 	c #7A356F",
"T 	c #933E87",
"U 	c #96408B",
"V 	c #A15C97",
"W 	c #A05B97",
"X 	c #823E79",
"Y 	c #85407B",
"Z 	c #79356F",
"` 	c #A46B9E",
" .	c #874C80",
"..	c #894F83",
"+.	c #8B5E87",
"@.	c #3D1C39",
"#.	c #000000",
". . + @ @ @ @ @ @ @ @ @ @ @ + . . . . ",
"# $ % & & & & & & & & & & & % $ # # # ",
"* = - ; > > > > > > > > > ; - = * , , ",
"' ) ! ~ ~ ~ ~ ~ ~ ~ ~ ~ ~ ~ ! ) ' { { ",
"] ^ / ( ( _ _ _ _ _ _ _ ( ( : ^ ] < < ",
"[ } | 1 _ 2 2 2 2 2 2 2 _ 1 3 } [ 4 4 ",
"5 6 7 8 _ 2 2 2 2 2 2 2 _ 8 9 6 5 0 0 ",
"a b c d _ 2 2 2 2 2 2 2 _ d e b a f f ",
"g h i j _ 2 2 2 2 2 2 2 _ j k h g l l ",
"m n o p _ 2 2 2 2 2 2 2 _ p q n m r r ",
"s t u v _ 2 2 2 2 2 2 2 _ v w t s x x ",
"y z A B _ 2 2 2 2 2 2 2 _ B C z y D D ",
"E F G H H _ _ _ _ _ _ _ H H I F E J J ",
"K L M N N N N N N N N N N N O L K P P ",
"Q R S T U U U U U U U U U T S R Q V V ",
"W X Y Z Z Z Z Z Z Z Z Z Z Z Y X W W W ",
"` `  ....................... .` ` ` ` ",
"+.+.+.+.+.+.+.+.+.+.+.+.+.+.+.+.+.+.+.",
"@.@.@.@.@.@.@.@.@.@.@.@.@.@.@.@.@.@.@.",
"#.#.#.#.#.#.#.#.#.#.#.#.#.#.#.#.#.#.#.",
"#.#.#.#.#.#.#.#.#.#.#.#.#.#.#.#.#.#.#.",
"#.#.#.#.#.#.#.#.#.#.#.#.#.#.#.#.#.#.#.",
"#.#.#.#.#.#.#.#.#.#.#.#.#.#.#.#.#.#.#.",
"#.#.#.#.#.#.#.#.#.#.#.#.#.#.#.#.#.#.#.",
"#.#.#.#.#.#.#.#.#.#.#.#.#.#.#.#.#.#.#.",
"#.#.#.#.#.#.#.#.#.#.#.#.#.#.#.#.#.#.#.",
"#.#.#.#.#.#.#.#.#.#.#.#.#.#.#.#.#.#.#.",
"#.#.#.#.#.#.#.#.#.#.#.#.#.#.#.#.#.#.#.",
"#.#.#.#.#.#.#.#.#.#.#.#.#.#.#.#.#.#.#.",
"#.#.#.#.#.#.#.#.#.#.#.#.#.#.#.#.#.#.#.",
"#.#.#.#.#.#.#.#.#.#.#.#.#.#.#.#.#.#.#.",
"#.#.#.#.#.#.#.#.#.#.#.#.#.#.#.#.#.#.#.",
"#.#.#.#.#.#.#.#.#.#.#.#.#.#.#.#.#.#.#.",
"#.#.#.#.#.#.#.#.#.#.#.#.#.#.#.#.#.#.#.",
"#.#.#.#.#.#.#.#.#.#.#.#.#.#.#.#.#.#.#.",
"#.#.#.#.#.#.#.#.#.#.#.#.#.#.#.#.#.#.#.",
"#.#.#.#.#.#.#.#.#.#.#.#.#.#.#.#.#.#.#.",
"#.#.#.#.#.#.#.#.#.#.#.#.#.#.#.#.#.#.#."};
