/* XPM */
static char * rolldownO_xpm[] = {
"19 38 436 2",
"  	c None",
". 	c #BC78B0",
"+ 	c #C280B7",
"@ 	c #934583",
"# 	c #AC619E",
"$ 	c #AD62A0",
"% 	c #AE63A1",
"& 	c #AF64A2",
"* 	c #B064A3",
"= 	c #B065A3",
"- 	c #AB609E",
"; 	c #924582",
"> 	c #C27FB6",
", 	c #BC77B0",
"' 	c #BA75AE",
") 	c #C07EB6",
"! 	c #904381",
"~ 	c #8A3D7B",
"{ 	c #A65899",
"] 	c #A85A9B",
"^ 	c #A95B9D",
"/ 	c #AA5C9E",
"( 	c #AB5C9E",
"_ 	c #AB5D9E",
": 	c #AA5C9D",
"< 	c #A95B9C",
"[ 	c #A75A9B",
"} 	c #893C7A",
"| 	c #8F4380",
"1 	c #BF7DB5",
"2 	c #B773AC",
"3 	c #8C417D",
"4 	c #883B79",
"5 	c #A55697",
"6 	c #E0AED9",
"7 	c #D59DCD",
"8 	c #D69ECE",
"9 	c #D79FCF",
"0 	c #D8A0D0",
"a 	c #D59CCD",
"b 	c #E0ADD9",
"c 	c #A45596",
"d 	c #873A78",
"e 	c #8B407C",
"f 	c #B570A9",
"g 	c #8E4380",
"h 	c #A15394",
"i 	c #C07CB4",
"j 	c #C36FBA",
"k 	c #C571BC",
"l 	c #C673BE",
"m 	c #C874BF",
"n 	c #C875C0",
"o 	c #C975C0",
"p 	c #C774BF",
"q 	c #C672BD",
"r 	c #BF7BB3",
"s 	c #A05393",
"t 	c #8D427E",
"u 	c #B26EA7",
"v 	c #8D417D",
"w 	c #A15292",
"x 	c #D398CB",
"y 	c #C976C1",
"z 	c #CB78C3",
"A 	c #81427A",
"B 	c #83437C",
"C 	c #84447D",
"D 	c #83447C",
"E 	c #82437B",
"F 	c #CA78C3",
"G 	c #C875C1",
"H 	c #C17DB6",
"I 	c #9F5191",
"J 	c #8C407C",
"K 	c #B06BA4",
"L 	c #89407D",
"M 	c #9E5292",
"N 	c #D298CA",
"O 	c #CF7EC8",
"P 	c #FFF7F6",
"Q 	c #FFF7F7",
"R 	c #FFF6F6",
"S 	c #CE7DC7",
"T 	c #C07CB5",
"U 	c #9D5191",
"V 	c #88407C",
"W 	c #AD69A2",
"X 	c #8A407B",
"Y 	c #9E5191",
"Z 	c #D386CC",
"` 	c #FFF8F7",
" .	c #FFF8F8",
"..	c #D385CB",
"+.	c #9D5090",
"@.	c #883F7A",
"#.	c #AB67A0",
"$.	c #873D79",
"%.	c #9B4E8F",
"&.	c #D195C9",
"*.	c #D88CD2",
"=.	c #86457F",
"-.	c #FFF9F8",
";.	c #FFF9F9",
">.	c #85457E",
",.	c #D88BD1",
"'.	c #BF7AB3",
").	c #9A4D8E",
"!.	c #853C78",
"~.	c #A8649D",
"{.	c #A25997",
"].	c #9A4C8D",
"^.	c #D194C8",
"/.	c #C973C0",
"(.	c #874680",
"_.	c #FFFAF9",
":.	c #FFFAFA",
"<.	c #C872BE",
"[.	c #BE78B2",
"}.	c #994B8B",
"|.	c #A15895",
"1.	c #A6629B",
"2.	c #9F5795",
"3.	c #974B8B",
"4.	c #D091C7",
"5.	c #C670BD",
"6.	c #86467F",
"7.	c #C56FBC",
"8.	c #BB77B1",
"9.	c #964A8A",
"0.	c #9E5693",
"a.	c #A46099",
"b.	c #9E5594",
"c.	c #974A8A",
"d.	c #CE90C7",
"e.	c #C36CB9",
"f.	c #C26BB8",
"g.	c #B977B0",
"h.	c #964989",
"i.	c #9D5493",
"j.	c #A35F99",
"k.	c #9D5392",
"l.	c #964889",
"m.	c #CD8EC5",
"n.	c #BF66B6",
"o.	c #BE65B4",
"p.	c #B875AE",
"q.	c #954787",
"r.	c #9C5290",
"s.	c #A35E98",
"t.	c #9B5190",
"u.	c #934687",
"v.	c #CB8CC3",
"w.	c #BB61B1",
"x.	c #BE64B4",
"y.	c #884780",
"z.	c #894882",
"A.	c #894781",
"B.	c #BD63B3",
"C.	c #BA61B0",
"D.	c #B673AD",
"E.	c #914586",
"F.	c #9A508F",
"G.	c #A25D98",
"H.	c #994F8F",
"I.	c #904386",
"J.	c #D79CD1",
"K.	c #B65BAB",
"L.	c #B85DAE",
"M.	c #BA5EB0",
"N.	c #BC60B2",
"O.	c #BD61B3",
"P.	c #BC60B3",
"Q.	c #BB5FB1",
"R.	c #B95EAF",
"S.	c #B75CAD",
"T.	c #B55AAA",
"U.	c #B36CAA",
"V.	c #8F4385",
"W.	c #984E8E",
"X.	c #A15C98",
"Y.	c #944B8A",
"Z.	c #914485",
"`.	c #AB50A0",
" +	c #B155A6",
".+	c #B356A8",
"++	c #B457AA",
"@+	c #B558AA",
"#+	c #B558AB",
"$+	c #B357A9",
"%+	c #B256A7",
"&+	c #B054A5",
"*+	c #AB509F",
"=+	c #904384",
"-+	c #994F8E",
";+	c #934B89",
">+	c #A15C97",
",+	c #AE69A6",
"'+	c #944B8B",
")+	c #904485",
"!+	c #924587",
"~+	c #934689",
"{+	c #95478A",
"]+	c #95478B",
"^+	c #96488B",
"/+	c #94478A",
"(+	c #934688",
"_+	c #914587",
":+	c #8F4384",
"<+	c #934A8A",
"[+	c #AD68A4",
"}+	c #A05B97",
"|+	c #A86FA2",
"1+	c #B27AAC",
"2+	c #995A92",
"3+	c #9C6097",
"4+	c #9E6199",
"5+	c #A0639A",
"6+	c #A1649B",
"7+	c #A1649C",
"8+	c #A0639B",
"9+	c #9F6299",
"0+	c #9E6198",
"a+	c #9C5F96",
"b+	c #985A91",
"c+	c #B179AB",
"d+	c #A46B9E",
"e+	c #8B5E87",
"f+	c #3D1C39",
"g+	c #B872AB",
"h+	c #B26BA5",
"i+	c #7A336A",
"j+	c #914882",
"k+	c #8F4680",
"l+	c #8E457F",
"m+	c #8D447E",
"n+	c #8C437D",
"o+	c #8E4580",
"p+	c #904781",
"q+	c #924983",
"r+	c #7B346B",
"s+	c #B36CA6",
"t+	c #B873AC",
"u+	c #AF69A3",
"v+	c #753167",
"w+	c #6B295D",
"x+	c #843B77",
"y+	c #823A75",
"z+	c #813973",
"A+	c #803872",
"B+	c #7F3772",
"C+	c #813873",
"D+	c #823974",
"E+	c #833B76",
"F+	c #6C2A5E",
"G+	c #763269",
"H+	c #B06AA4",
"I+	c #722F63",
"J+	c #68275A",
"K+	c #813872",
"L+	c #C986BE",
"M+	c #B66FAA",
"N+	c #B56EA9",
"O+	c #B46CA8",
"P+	c #B56DA9",
"Q+	c #B66EAA",
"R+	c #B770AB",
"S+	c #CA87BF",
"T+	c #833A73",
"U+	c #6A285B",
"V+	c #743065",
"W+	c #6F2D61",
"X+	c #7D376F",
"Y+	c #9C548E",
"Z+	c #9B4590",
"`+	c #99428D",
" @	c #97418C",
".@	c #96408B",
"+@	c #953F8A",
"@@	c #98428D",
"#@	c #9A438E",
"$@	c #9C4691",
"%@	c #9D558F",
"&@	c #7E3870",
"*@	c #702F63",
"=@	c #6A295B",
"-@	c #783268",
";@	c #B168A5",
">@	c #9D4692",
",@	c #9B4390",
"'@	c #461D41",
")@	c #451C40",
"!@	c #441B3F",
"~@	c #431B3E",
"{@	c #471D42",
"]@	c #9C4591",
"^@	c #9E4794",
"/@	c #9B528D",
"(@	c #79336A",
"_@	c #6B2A5D",
":@	c #632858",
"<@	c #723064",
"[@	c #AB649F",
"}@	c #A14796",
"|@	c #461C41",
"1@	c #FFE7E5",
"2@	c #FFE6E5",
"3@	c #FFE6E4",
"4@	c #A24997",
"5@	c #964E87",
"6@	c #733166",
"7@	c #652959",
"8@	c #612653",
"9@	c #6E2D61",
"0@	c #A8619C",
"a@	c #A44A99",
"b@	c #FFE5E4",
"c@	c #FFE5E3",
"d@	c #A64C9B",
"e@	c #924A83",
"f@	c #702E63",
"g@	c #622755",
"h@	c #5C234F",
"i@	c #692A5D",
"j@	c #A45B98",
"k@	c #A94D9E",
"l@	c #421A3D",
"m@	c #FFE4E2",
"n@	c #FFE4E3",
"o@	c #AA4FA0",
"p@	c #8D477F",
"q@	c #6B2B5F",
"r@	c #5E2451",
"s@	c #76356A",
"t@	c #662859",
"u@	c #A15A95",
"v@	c #8F3882",
"w@	c #41193C",
"x@	c #FFE3E2",
"y@	c #FFE3E1",
"z@	c #421A3E",
"A@	c #903A84",
"B@	c #8A447C",
"C@	c #68295C",
"D@	c #78376C",
"E@	c #733468",
"F@	c #632757",
"G@	c #A05793",
"H@	c #8A367E",
"I@	c #40193B",
"J@	c #8C3780",
"K@	c #87437A",
"L@	c #652859",
"M@	c #75356A",
"N@	c #733368",
"O@	c #632658",
"P@	c #87337A",
"Q@	c #411A3C",
"R@	c #89357D",
"S@	c #86447B",
"T@	c #66285A",
"U@	c #74346A",
"V@	c #733367",
"W@	c #652658",
"X@	c #9F5693",
"Y@	c #853278",
"Z@	c #441C3F",
"`@	c #86337A",
" #	c #87447B",
".#	c #753469",
"+#	c #642659",
"@#	c #9F5895",
"##	c #833177",
"$#	c #802E74",
"%#	c #3F183A",
"&#	c #823076",
"*#	c #853279",
"=#	c #87447C",
"-#	c #66285B",
";#	c #75346A",
">#	c #74336A",
",#	c #65275B",
"'#	c #B56BAC",
")#	c #813075",
"!#	c #7F2E73",
"~#	c #7C2C70",
"{#	c #7B2A6F",
"]#	c #7A2A6E",
"^#	c #79296D",
"/#	c #7B2B6F",
"(#	c #7E2D72",
"_#	c #802F74",
":#	c #86437D",
"<#	c #67285D",
"[#	c #76356C",
"}#	c #733369",
"|#	c #64275A",
"1#	c #7B2C6F",
"2#	c #7C2C71",
"3#	c #7A2A6F",
"4#	c #78296C",
"5#	c #78296D",
"6#	c #792A6E",
"7#	c #7B2B70",
"8#	c #7D2D72",
"9#	c #7D2D70",
"0#	c #66275B",
"a#	c #75356B",
"b#	c #934E8A",
"c#	c #723269",
"d#	c #723268",
"e#	c #612558",
"f#	c #602456",
"g#	c #5E2355",
"h#	c #5E2354",
"i#	c #5F2455",
"j#	c #612557",
"k#	c #622659",
"l#	c #65285B",
"m#	c #73336A",
"n#	c #95508B",
"o#	c #A0679A",
"p#	c #975E91",
"q#	c #773F70",
"r#	c #773F71",
"s#	c #753E6F",
"t#	c #743C6D",
"u#	c #733B6C",
"v#	c #723B6C",
"w#	c #723A6B",
"x#	c #733C6D",
"y#	c #743D6E",
"z#	c #763F70",
"A#	c #784072",
"B#	c #783F71",
"C#	c #995F92",
". + @ # $ % & * = * & % $ - ; > , ' ' ",
") ! ~ { ] ^ / ( _ ( : < [ { } | 1 2 2 ",
"3 4 5 6 7 8 9 0 0 0 9 8 a b c d e f f ",
"g h i j k l m n o n p q k j r s t u u ",
"v w x y z A B C C D E A F G H I J K K ",
"L M N O E P Q Q Q Q P R A S T U V W W ",
"X Y N Z C Q `  . . .` P D ..T +.@.#.#.",
"$.%.&.*.=.`  .-.;.-. .Q >.,.'.).!.~.~.",
"{.].^./.(. .-._.:.;.-.` >.<.[.}.|.1.1.",
"2.3.4.5.(. .;.:.:._.-.` 6.7.8.9.0.a.a.",
"b.c.d.e.(. .-.;._.;. .` >.f.g.h.i.j.j.",
"k.l.m.n.>.`  .-.-. . .Q C o.p.q.r.s.s.",
"t.u.v.w.x.=.y.z.z.A.(.>.B.C.D.E.F.G.G.",
"H.I.J.K.L.M.N.O.O.P.Q.R.S.T.U.V.W.X.X.",
"Y.F.Z.`. +.+++@+#+@+$+%+&+*+=+-+;+>+>+",
",+'+H.)+!+~+{+]+^+]+/+(+_+:+W.<+[+}+}+",
"|+1+2+3+4+5+6+7+7+7+8+9+0+a+b+c+|+d+d+",
"e+e+e+e+e+e+e+e+e+e+e+e+e+e+e+e+e+e+e+",
"f+f+f+f+f+f+f+f+f+f+f+f+f+f+f+f+f+f+f+",
"g+h+i+j+k+l+m+n+n+m+l+o+p+q+r+s+t+' ' ",
"u+v+w+x+y+z+A+B+B+B+C+D+E+!.F+G+H+2 2 ",
"I+J+K+L+M+N+O+O+O+O+P+Q+R+S+T+U+V+f f ",
"W+X+Y+Z+`+ @.@+@+@+@.@@@#@$@%@&@*@u u ",
"=@-@;@>@,@'@)@!@~@!@)@{@]@^@/@(@_@K K ",
":@<@[@}@|@1@2@3@3@3@2@1@{@4@5@6@7@W W ",
"8@9@0@a@~@3@b@c@c@b@3@2@)@d@e@f@g@#.#.",
"h@i@j@k@l@b@c@m@m@n@c@3@~@o@p@q@r@~.~.",
"s@t@u@v@w@c@m@x@y@m@c@3@z@A@B@C@D@1.1.",
"E@F@G@H@I@c@m@x@y@m@c@b@l@J@K@L@M@a.a.",
"N@O@0.P@Q@b@n@m@m@n@c@3@~@R@S@T@U@j.j.",
"V@W@X@Y@~@3@b@c@c@c@b@2@Z@`@ #T@.#s.s.",
"N@+#@###$#z@I@%#%#I@l@!@&#*#=#-#;#G.G.",
">#,#'#)#!#~#{#]#^#]#/#(#_###:#<#[#X.X.",
"}#N@|#1#2#3#^#4#4#5#6#7#8#9#0#;#a#>+>+",
"b#c#d#|#e#f#g#h#h#h#i#j#k#l#}#m#n#}+}+",
"o#p#q#r#s#t#u#v#w#v#x#y#z#A#B#C#o#d+d+",
"e+e+e+e+e+e+e+e+e+e+e+e+e+e+e+e+e+e+e+",
"f+f+f+f+f+f+f+f+f+f+f+f+f+f+f+f+f+f+f+"};
