/* XPM */
static char * rollupO_xpm[] = {
"19 38 503 2",
"  	c None",
". 	c #BC78B0",
"+ 	c #C280B7",
"@ 	c #934583",
"# 	c #AC619E",
"$ 	c #AD62A0",
"% 	c #AE63A1",
"& 	c #AF64A2",
"* 	c #B064A3",
"= 	c #B065A3",
"- 	c #AB609E",
"; 	c #924582",
"> 	c #C27FB6",
", 	c #BC77B0",
"' 	c #BA75AE",
") 	c #C07EB6",
"! 	c #904381",
"~ 	c #8A3D7B",
"{ 	c #A65899",
"] 	c #A85A9B",
"^ 	c #A95B9D",
"/ 	c #AA5C9E",
"( 	c #AB5C9E",
"_ 	c #AB5D9E",
": 	c #AA5C9D",
"< 	c #A95B9C",
"[ 	c #A75A9B",
"} 	c #893C7A",
"| 	c #8F4380",
"1 	c #BF7DB5",
"2 	c #B773AC",
"3 	c #8C417D",
"4 	c #883B79",
"5 	c #A55697",
"6 	c #E0AED9",
"7 	c #D59DCD",
"8 	c #D69ECE",
"9 	c #D79FCF",
"0 	c #D8A0D0",
"a 	c #D59CCD",
"b 	c #E0ADD9",
"c 	c #A45596",
"d 	c #873A78",
"e 	c #8B407C",
"f 	c #B570A9",
"g 	c #8E4380",
"h 	c #A15394",
"i 	c #C07CB4",
"j 	c #C36FBA",
"k 	c #C571BC",
"l 	c #C673BE",
"m 	c #C874BF",
"n 	c #C875C0",
"o 	c #C975C0",
"p 	c #C774BF",
"q 	c #C672BD",
"r 	c #BF7BB3",
"s 	c #A05393",
"t 	c #8D427E",
"u 	c #B26EA7",
"v 	c #8D417D",
"w 	c #A15292",
"x 	c #D398CB",
"y 	c #C976C1",
"z 	c #7F4178",
"A 	c #81427A",
"B 	c #83437C",
"C 	c #84447D",
"D 	c #83447C",
"E 	c #82437B",
"F 	c #C875C1",
"G 	c #C17DB6",
"H 	c #9F5191",
"I 	c #8C407C",
"J 	c #B06BA4",
"K 	c #89407D",
"L 	c #9E5292",
"M 	c #D298CA",
"N 	c #CF7EC8",
"O 	c #FFF7F6",
"P 	c #FFF7F7",
"Q 	c #FFF6F6",
"R 	c #CE7DC7",
"S 	c #C07CB5",
"T 	c #9D5191",
"U 	c #88407C",
"V 	c #AD69A2",
"W 	c #8A407B",
"X 	c #9E5191",
"Y 	c #D386CC",
"Z 	c #FFF8F7",
"` 	c #FFF8F8",
" .	c #D385CB",
"..	c #9D5090",
"+.	c #883F7A",
"@.	c #AB67A0",
"#.	c #873D79",
"$.	c #9B4E8F",
"%.	c #D195C9",
"&.	c #D88CD2",
"*.	c #86457F",
"=.	c #894782",
"-.	c #8B4984",
";.	c #8D4A86",
">.	c #8E4B87",
",.	c #8A4883",
"'.	c #884780",
").	c #85457E",
"!.	c #D88BD1",
"~.	c #BF7AB3",
"{.	c #9A4D8E",
"].	c #853C78",
"^.	c #A8649D",
"/.	c #A25997",
"(.	c #9A4C8D",
"_.	c #D194C8",
":.	c #C973C0",
"<.	c #CB77C3",
"[.	c #CF7AC6",
"}.	c #D27DC9",
"|.	c #D47FCC",
"1.	c #D680CD",
"2.	c #D47ECB",
"3.	c #D17CC8",
"4.	c #CE79C5",
"5.	c #CB75C1",
"6.	c #C872BE",
"7.	c #BE78B2",
"8.	c #994B8B",
"9.	c #A15895",
"0.	c #A6629B",
"a.	c #9F5795",
"b.	c #974B8B",
"c.	c #D091C7",
"d.	c #C670BD",
"e.	c #C973C1",
"f.	c #CC77C4",
"g.	c #CF7AC7",
"h.	c #D27DCB",
"i.	c #D47FCD",
"j.	c #D17CCA",
"k.	c #CE78C6",
"l.	c #CB75C3",
"m.	c #C872BF",
"n.	c #C56FBC",
"o.	c #BB77B1",
"p.	c #964A8A",
"q.	c #9E5693",
"r.	c #A46099",
"s.	c #9E5594",
"t.	c #974A8A",
"u.	c #CE90C7",
"v.	c #C36CB9",
"w.	c #C66FBD",
"x.	c #C972C0",
"y.	c #CC75C3",
"z.	c #CE77C6",
"A.	c #CF78C6",
"B.	c #CD76C5",
"C.	c #CB74C2",
"D.	c #C871BF",
"E.	c #C56EBB",
"F.	c #C26BB8",
"G.	c #B977B0",
"H.	c #964989",
"I.	c #9D5493",
"J.	c #A35F99",
"K.	c #9D5392",
"L.	c #964889",
"M.	c #CD8EC5",
"N.	c #BF66B6",
"O.	c #C269B9",
"P.	c #C56CBC",
"Q.	c #C76DBE",
"R.	c #C96FC0",
"S.	c #C76DBD",
"T.	c #C46ABB",
"U.	c #C168B8",
"V.	c #BE65B4",
"W.	c #B875AE",
"X.	c #954787",
"Y.	c #9C5290",
"Z.	c #A35E98",
"`.	c #9B5190",
" +	c #934687",
".+	c #CB8CC3",
"++	c #BB61B1",
"@+	c #BE64B4",
"#+	c #C066B6",
"$+	c #C267B8",
"%+	c #C469BA",
"&+	c #C368B9",
"*+	c #BF65B6",
"=+	c #BD63B3",
"-+	c #BA61B0",
";+	c #B673AD",
">+	c #914586",
",+	c #9A508F",
"'+	c #A25D98",
")+	c #994F8F",
"!+	c #904386",
"~+	c #D79CD1",
"{+	c #B65BAB",
"]+	c #B85DAE",
"^+	c #BA5EB0",
"/+	c #BC60B2",
"(+	c #BD61B3",
"_+	c #BC60B3",
":+	c #BB5FB1",
"<+	c #B95EAF",
"[+	c #B75CAD",
"}+	c #B55AAA",
"|+	c #B36CAA",
"1+	c #8F4385",
"2+	c #984E8E",
"3+	c #A15C98",
"4+	c #944B8A",
"5+	c #914485",
"6+	c #AB50A0",
"7+	c #B155A6",
"8+	c #B356A8",
"9+	c #B457AA",
"0+	c #B558AA",
"a+	c #B558AB",
"b+	c #B357A9",
"c+	c #B256A7",
"d+	c #B054A5",
"e+	c #AB509F",
"f+	c #904384",
"g+	c #994F8E",
"h+	c #934B89",
"i+	c #A15C97",
"j+	c #AE69A6",
"k+	c #944B8B",
"l+	c #904485",
"m+	c #924587",
"n+	c #934689",
"o+	c #95478A",
"p+	c #95478B",
"q+	c #96488B",
"r+	c #94478A",
"s+	c #934688",
"t+	c #914587",
"u+	c #8F4384",
"v+	c #934A8A",
"w+	c #AD68A4",
"x+	c #A05B97",
"y+	c #A86FA2",
"z+	c #B27AAC",
"A+	c #995A92",
"B+	c #9C6097",
"C+	c #9E6199",
"D+	c #A0639A",
"E+	c #A1649B",
"F+	c #A1649C",
"G+	c #A0639B",
"H+	c #9F6299",
"I+	c #9E6198",
"J+	c #9C5F96",
"K+	c #985A91",
"L+	c #B179AB",
"M+	c #A46B9E",
"N+	c #8B5E87",
"O+	c #3D1C39",
"P+	c #B872AB",
"Q+	c #B26BA5",
"R+	c #7A336A",
"S+	c #914882",
"T+	c #8F4680",
"U+	c #8E457F",
"V+	c #8D447E",
"W+	c #8C437D",
"X+	c #8E4580",
"Y+	c #904781",
"Z+	c #924983",
"`+	c #7B346B",
" @	c #B36CA6",
".@	c #B873AC",
"+@	c #AF69A3",
"@@	c #753167",
"#@	c #6B295D",
"$@	c #843B77",
"%@	c #823A75",
"&@	c #813973",
"*@	c #803872",
"=@	c #7F3772",
"-@	c #813873",
";@	c #823974",
">@	c #833B76",
",@	c #6C2A5E",
"'@	c #763269",
")@	c #B06AA4",
"!@	c #722F63",
"~@	c #68275A",
"{@	c #813872",
"]@	c #C986BE",
"^@	c #B66FAA",
"/@	c #B56EA9",
"(@	c #B46CA8",
"_@	c #B56DA9",
":@	c #B66EAA",
"<@	c #B770AB",
"[@	c #CA87BF",
"}@	c #833A73",
"|@	c #6A285B",
"1@	c #743065",
"2@	c #6F2D61",
"3@	c #7D376F",
"4@	c #9C548E",
"5@	c #9B4590",
"6@	c #99428D",
"7@	c #97418C",
"8@	c #96408B",
"9@	c #953F8A",
"0@	c #98428D",
"a@	c #9A438E",
"b@	c #9C4691",
"c@	c #9D558F",
"d@	c #7E3870",
"e@	c #702F63",
"f@	c #6A295B",
"g@	c #783268",
"h@	c #B168A5",
"i@	c #9D4692",
"j@	c #481E43",
"k@	c #461D41",
"l@	c #451C40",
"m@	c #441B3F",
"n@	c #431B3E",
"o@	c #471D42",
"p@	c #4A1F45",
"q@	c #9E4794",
"r@	c #9B528D",
"s@	c #79336A",
"t@	c #6B2A5D",
"u@	c #632858",
"v@	c #723064",
"w@	c #AB649F",
"x@	c #A14796",
"y@	c #461C41",
"z@	c #FFE7E5",
"A@	c #FFE6E5",
"B@	c #FFE6E4",
"C@	c #A24997",
"D@	c #964E87",
"E@	c #733166",
"F@	c #652959",
"G@	c #612653",
"H@	c #6E2D61",
"I@	c #A8619C",
"J@	c #A44A99",
"K@	c #FFE5E4",
"L@	c #FFE5E3",
"M@	c #A64C9B",
"N@	c #924A83",
"O@	c #702E63",
"P@	c #622755",
"Q@	c #5C234F",
"R@	c #692A5D",
"S@	c #A45B98",
"T@	c #A94D9E",
"U@	c #421A3D",
"V@	c #3E1839",
"W@	c #3B1637",
"X@	c #391435",
"Y@	c #391434",
"Z@	c #3A1536",
"`@	c #3D1738",
" #	c #40193B",
".#	c #AA4FA0",
"+#	c #8D477F",
"@#	c #6B2B5F",
"##	c #5E2451",
"$#	c #76356A",
"%#	c #662859",
"&#	c #A15A95",
"*#	c #8F3882",
"=#	c #8A357F",
"-#	c #88317B",
";#	c #852E78",
">#	c #812B75",
",#	c #812A74",
"'#	c #842D76",
")#	c #863079",
"!#	c #8A337D",
"~#	c #8D3781",
"{#	c #903A84",
"]#	c #8A447C",
"^#	c #68295C",
"/#	c #78376C",
"(#	c #733468",
"_#	c #632757",
":#	c #A05793",
"<#	c #8A367E",
"[#	c #87327B",
"}#	c #832F77",
"|#	c #802C74",
"1#	c #7D2971",
"2#	c #7B276F",
"3#	c #7E2A72",
"4#	c #822D76",
"5#	c #853179",
"6#	c #88347D",
"7#	c #8C3780",
"8#	c #87437A",
"9#	c #652859",
"0#	c #75356A",
"a#	c #733368",
"b#	c #632658",
"c#	c #87337A",
"d#	c #843177",
"e#	c #812D74",
"f#	c #7E2B71",
"g#	c #7B286E",
"h#	c #7D2A70",
"i#	c #7F2C72",
"j#	c #822F76",
"k#	c #863279",
"l#	c #89357D",
"m#	c #86447B",
"n#	c #66285A",
"o#	c #74346A",
"p#	c #733367",
"q#	c #652658",
"r#	c #9F5693",
"s#	c #853278",
"t#	c #822F75",
"u#	c #7B296E",
"v#	c #7C2A6F",
"w#	c #812E74",
"x#	c #833077",
"y#	c #86337A",
"z#	c #87447B",
"A#	c #753469",
"B#	c #642659",
"C#	c #9F5895",
"D#	c #833177",
"E#	c #802E74",
"F#	c #7E2C72",
"G#	c #7C2B70",
"H#	c #7B2A6F",
"I#	c #7D2C71",
"J#	c #7F2D73",
"K#	c #823076",
"L#	c #853279",
"M#	c #87447C",
"N#	c #66285B",
"O#	c #75346A",
"P#	c #74336A",
"Q#	c #65275B",
"R#	c #B56BAC",
"S#	c #813075",
"T#	c #7F2E73",
"U#	c #7C2C70",
"V#	c #7A2A6E",
"W#	c #79296D",
"X#	c #7B2B6F",
"Y#	c #7E2D72",
"Z#	c #802F74",
"`#	c #86437D",
" $	c #67285D",
".$	c #76356C",
"+$	c #733369",
"@$	c #64275A",
"#$	c #7B2C6F",
"$$	c #7C2C71",
"%$	c #7A2A6F",
"&$	c #78296C",
"*$	c #78296D",
"=$	c #792A6E",
"-$	c #7B2B70",
";$	c #7D2D72",
">$	c #7D2D70",
",$	c #66275B",
"'$	c #75356B",
")$	c #934E8A",
"!$	c #723269",
"~$	c #723268",
"{$	c #612558",
"]$	c #602456",
"^$	c #5E2355",
"/$	c #5E2354",
"($	c #5F2455",
"_$	c #612557",
":$	c #622659",
"<$	c #65285B",
"[$	c #73336A",
"}$	c #95508B",
"|$	c #A0679A",
"1$	c #975E91",
"2$	c #773F70",
"3$	c #773F71",
"4$	c #753E6F",
"5$	c #743C6D",
"6$	c #733B6C",
"7$	c #723B6C",
"8$	c #723A6B",
"9$	c #733C6D",
"0$	c #743D6E",
"a$	c #763F70",
"b$	c #784072",
"c$	c #783F71",
"d$	c #995F92",
". + @ # $ % & * = * & % $ - ; > , ' ' ",
") ! ~ { ] ^ / ( _ ( : < [ { } | 1 2 2 ",
"3 4 5 6 7 8 9 0 0 0 9 8 a b c d e f f ",
"g h i j k l m n o n p q k j r s t u u ",
"v w x y z A B C C D E A z F G H I J J ",
"K L M N E O P P P P O Q A R S T U V V ",
"W X M Y C P Z ` ` ` Z O D  .S ..+.@.@.",
"#.$.%.&.*.=.-.;.>.;.,.'.).!.~.{.].^.^.",
"/.(._.:.<.[.}.|.1.2.3.4.5.6.7.8.9.0.0.",
"a.b.c.d.e.f.g.h.i.j.k.l.m.n.o.p.q.r.r.",
"s.t.u.v.w.x.y.z.A.B.C.D.E.F.G.H.I.J.J.",
"K.L.M.N.O.P.Q.R.R.R.S.T.U.V.W.X.Y.Z.Z.",
"`. +.+++@+#+$+%+%+&+$+*+=+-+;+>+,+'+'+",
")+!+~+{+]+^+/+(+(+_+:+<+[+}+|+1+2+3+3+",
"4+,+5+6+7+8+9+0+a+0+b+c+d+e+f+g+h+i+i+",
"j+k+)+l+m+n+o+p+q+p+r+s+t+u+2+v+w+x+x+",
"y+z+A+B+C+D+E+F+F+F+G+H+I+J+K+L+y+M+M+",
"N+N+N+N+N+N+N+N+N+N+N+N+N+N+N+N+N+N+N+",
"O+O+O+O+O+O+O+O+O+O+O+O+O+O+O+O+O+O+O+",
"P+Q+R+S+T+U+V+W+W+V+U+X+Y+Z+`+ @.@' ' ",
"+@@@#@$@%@&@*@=@=@=@-@;@>@].,@'@)@2 2 ",
"!@~@{@]@^@/@(@(@(@(@_@:@<@[@}@|@1@f f ",
"2@3@4@5@6@7@8@9@9@9@8@0@a@b@c@d@e@u u ",
"f@g@h@i@j@k@l@m@n@m@l@o@p@q@r@s@t@J J ",
"u@v@w@x@y@z@A@B@B@B@A@z@o@C@D@E@F@V V ",
"G@H@I@J@n@B@K@L@L@K@B@A@l@M@N@O@P@@.@.",
"Q@R@S@T@U@V@W@X@Y@Z@`@ #n@.#+#@###^.^.",
"$#%#&#*#=#-#;#>#,#'#)#!#~#{#]#^#/#0.0.",
"(#_#:#<#[#}#|#1#2#3#4#5#6#7#8#9#0#r.r.",
"a#b#q.c#d#e#f#g#g#h#i#j#k#l#m#n#o#J.J.",
"p#q#r#s#t#i#h#u#u#v#f#w#x#y#z#n#A#Z.Z.",
"a#B#C#D#E#F#G#H#u#H#I#J#K#L#M#N#O#'+'+",
"P#Q#R#S#T#U#H#V#W#V#X#Y#Z#D#`# $.$3+3+",
"+$a#@$#$$$%$W#&$&$*$=$-$;$>$,$O#'$i+i+",
")$!$~$@${$]$^$/$/$/$($_$:$<$+$[$}$x+x+",
"|$1$2$3$4$5$6$7$8$7$9$0$a$b$c$d$|$M+M+",
"N+N+N+N+N+N+N+N+N+N+N+N+N+N+N+N+N+N+N+",
"O+O+O+O+O+O+O+O+O+O+O+O+O+O+O+O+O+O+O+"};
